<svg xmlns="http://www.w3.org/2000/svg" width="37.311" height="31.373" viewBox="0 0 37.311 31.373">
  <g id="Calendar" transform="translate(0 0)">
    <path id="Path_2515" data-name="Path 2515" d="M34.729,43.723H31.873V43.48a2.738,2.738,0,1,0-5.476,0v.243h-5V43.48a2.738,2.738,0,0,0-5.476,0v.243h-5V43.48a2.738,2.738,0,0,0-5.476,0v.243H2.582A2.6,2.6,0,0,0,0,46.324V69.514a2.594,2.594,0,0,0,2.582,2.6H34.729a2.594,2.594,0,0,0,2.582-2.6V46.324a2.6,2.6,0,0,0-2.582-2.6Zm-6.875-.243a1.281,1.281,0,1,1,2.561,0v.243H27.854Zm-10.479,0a1.281,1.281,0,1,1,2.561,0v.243H17.375ZM6.9,43.48a1.281,1.281,0,1,1,2.561,0v.243H6.9ZM1.457,46.324a1.135,1.135,0,0,1,1.125-1.143H5.439a2.741,2.741,0,0,0,2.737,2.656h2.009a.729.729,0,1,0,0-1.457H8.176a1.282,1.282,0,0,1-1.278-1.2h9.02a2.741,2.741,0,0,0,2.737,2.656h2.009a.729.729,0,1,0,0-1.457H18.656a1.282,1.282,0,0,1-1.278-1.2H26.4a2.741,2.741,0,0,0,2.737,2.656h2.009a.729.729,0,0,0,0-1.457H29.135a1.282,1.282,0,0,1-1.278-1.2h6.872a1.135,1.135,0,0,1,1.125,1.143v2.71H1.457Zm34.4,23.191a1.135,1.135,0,0,1-1.125,1.143H2.582a1.135,1.135,0,0,1-1.125-1.143V50.492h34.4Z" transform="translate(0 -40.742)" fill="#fff"/>
    <path id="Path_2516" data-name="Path 2516" d="M276.417,220.061h.863v6.878a.729.729,0,1,0,1.457,0v-7.607a.729.729,0,0,0-.729-.729h-1.592a.729.729,0,0,0,0,1.457Z" transform="translate(-255.598 -203.634)" fill="#039fae"/>
    <path id="Path_2517" data-name="Path 2517" d="M197.1,226.016a1.175,1.175,0,0,1-1.177-1.177.729.729,0,0,0-1.457,0,2.634,2.634,0,1,0,4.451-1.905,2.634,2.634,0,1,0-4.4-2.415.729.729,0,0,0,1.43.281A1.177,1.177,0,1,1,197.1,222.2a.729.729,0,0,0,0,1.457,1.177,1.177,0,1,1,0,2.354Z" transform="translate(-180.298 -203.439)" fill="#039fae"/>
  </g>
</svg>
