<svg xmlns="http://www.w3.org/2000/svg" width="32.446" height="32.447" viewBox="0 0 32.446 32.447">
  <g id="Drone" transform="translate(-109.078 0.001)">
    <path id="Path_2585" data-name="Path 2585" d="M-13.071-20a1.964,1.964,0,0,0,1.132-.4A5.931,5.931,0,0,1-12-21a5,5,0,0,1,5-5,5,5,0,0,1,5,5,5,5,0,0,1-5,5,5.931,5.931,0,0,1-.6-.062A1.959,1.959,0,0,0-8-14.931v.829a8.421,8.421,0,0,0,.986.07A6.987,6.987,0,0,0-.031-21.016,6.987,6.987,0,0,0-7.016-28,6.987,6.987,0,0,0-14-21.016V-21a8.362,8.362,0,0,0,.1,1Zm4.242,2.242L-7.488-19.1A1.907,1.907,0,0,0-7-19a2,2,0,0,0,2-2,2,2,0,0,0-2-2,2,2,0,0,0-2,2,1.923,1.923,0,0,0,.1.487l-1.341,1.341A4.6,4.6,0,0,1-13.071-18h-5.859a4.6,4.6,0,0,1-2.828-1.172L-23.1-20.512A1.907,1.907,0,0,0-23-21a2,2,0,0,0-2-2,2,2,0,0,0-2,2,2,2,0,0,0,2,2,1.923,1.923,0,0,0,.487-.1l1.341,1.341A4.6,4.6,0,0,1-22-14.929v5.859a4.6,4.6,0,0,1-1.172,2.828L-24.513-4.9A1.907,1.907,0,0,0-25-5a2,2,0,0,0-2,2,2,2,0,0,0,2,2,2,2,0,0,0,2-2,1.923,1.923,0,0,0-.1-.487l1.341-1.341A4.594,4.594,0,0,1-18.929-6h5.859a4.594,4.594,0,0,1,2.828,1.171L-8.9-3.487A1.907,1.907,0,0,0-9-3,2,2,0,0,0-7-1,2,2,0,0,0-5-3,2,2,0,0,0-7-5a1.923,1.923,0,0,0-.487.1L-8.828-6.242A4.6,4.6,0,0,1-10-9.071v-5.859A4.6,4.6,0,0,1-8.828-17.757ZM-12-8h-8v-8h8Zm-13-6a8.362,8.362,0,0,0,1-.1v-.829a1.964,1.964,0,0,0-.4-1.132A5.913,5.913,0,0,1-25-16a5,5,0,0,1-5-5,5,5,0,0,1,5-5,5,5,0,0,1,5,5,5.948,5.948,0,0,1-.062.6,1.963,1.963,0,0,0,1.132.4h.829a8.358,8.358,0,0,0,.1-1,7,7,0,0,0-7-7,7,7,0,0,0-7,7A7,7,0,0,0-25-14Zm6.071,10a1.963,1.963,0,0,0-1.132.4A5.943,5.943,0,0,1-20-3a5,5,0,0,1-5,5,5,5,0,0,1-5-5,5,5,0,0,1,5-5,5.948,5.948,0,0,1,.6.063A1.957,1.957,0,0,0-24-9.069V-9.9a8.356,8.356,0,0,0-1-.1l-.222,0a7.228,7.228,0,0,0-7.225,7.225,7.228,7.228,0,0,0,7.225,7.225A7.228,7.228,0,0,0-18-2.778,8.7,8.7,0,0,0-18.1-4ZM-7-10a8.362,8.362,0,0,0-1,.1v.829a1.964,1.964,0,0,0,.4,1.132A5.931,5.931,0,0,1-7-8,5,5,0,0,1-2-3,5,5,0,0,1-7,2a5,5,0,0,1-5-5,5.931,5.931,0,0,1,.063-.6A1.963,1.963,0,0,0-13.069-4h-.83a8.421,8.421,0,0,0-.07.986A6.987,6.987,0,0,0-6.985,3.969,6.987,6.987,0,0,0,0-3.016,6.987,6.987,0,0,0-6.985-10Z" transform="translate(141.524 28)" fill="#fff"/>
    <ellipse id="Ellipse_5" data-name="Ellipse 5" cx="2.343" cy="2.343" rx="2.343" ry="2.343" transform="translate(113.88 4.687)" fill="#00b1bf"/>
    <ellipse id="Ellipse_6" data-name="Ellipse 6" cx="2.343" cy="2.343" rx="2.343" ry="2.343" transform="translate(132.627 4.687)" fill="#00b1bf"/>
    <ellipse id="Ellipse_7" data-name="Ellipse 7" cx="2.343" cy="2.343" rx="2.343" ry="2.343" transform="translate(132.284 22.546)" fill="#00b1bf"/>
    <ellipse id="Ellipse_8" data-name="Ellipse 8" cx="2.343" cy="2.343" rx="2.343" ry="2.343" transform="translate(113.88 22.434)" fill="#00b1bf"/>
  </g>
</svg>
