<svg xmlns="http://www.w3.org/2000/svg" width="272.616" height="70.743" viewBox="0 0 272.616 70.743">
  <g id="Logo" transform="translate(-208.442 -311.801)">
    <g id="Group_3" data-name="Group 3" transform="translate(208.442 311.801)">
      <path id="Path_1" data-name="Path 1" d="M562.1,218.471h-1.535a.14.14,0,0,0-.158.159v1.323a.14.14,0,0,0,.158.158H562.1a.139.139,0,0,0,.158-.158V218.63a.14.14,0,0,0-.158-.159" transform="translate(-464.843 -204.266)" fill="#fff"/>
      <path id="Path_2" data-name="Path 2" d="M581.987,221.794a3.06,3.06,0,0,0-.689-1.058,3.5,3.5,0,0,0-1.058-.635,5.019,5.019,0,0,0-1.322-.159,2.942,2.942,0,0,0-2.964,1.8,4.419,4.419,0,0,0-.265,1.535v.476a2.043,2.043,0,0,1-.237,1.037.88.88,0,0,1-.837.392h-10.25a1.594,1.594,0,0,1-.953-.212.859.859,0,0,1-.371-.741v-2.54a.14.14,0,0,0-.158-.159H561.4a.141.141,0,0,0-.16.159v4.71a1.952,1.952,0,0,1-.581,1.535,2.167,2.167,0,0,1-1.482.477,4.222,4.222,0,0,1-.742-.106,1.636,1.636,0,0,1-.686-.318,2,2,0,0,1-.477-.688,2.093,2.093,0,0,1-.212-1.059,3.187,3.187,0,0,1,.212-1.27,7.228,7.228,0,0,0,.424-1.27l-1.27-.476a.236.236,0,0,0-.265,0,5.431,5.431,0,0,0-.636,1.482,4.911,4.911,0,0,0-.264,1.693,3.571,3.571,0,0,0,.264,1.588,3.162,3.162,0,0,0,.848,1.164,2.962,2.962,0,0,0,1.216.635,4.9,4.9,0,0,0,1.535.212,5,5,0,0,0,1.587-.212,3.572,3.572,0,0,0,1.27-.635,3.76,3.76,0,0,0,.794-1.164,4.406,4.406,0,0,0,.265-1.535v-.212c0,.047.131.15.163.181a1.843,1.843,0,0,0,1.191.342c.9.041,1.8.013,2.7.009l1.514,0h5.6a5.776,5.776,0,0,0,.95-.058,2.571,2.571,0,0,0,.479-.123,2.065,2.065,0,0,0,.424-.242,1.234,1.234,0,0,0,.371-.37,2.822,2.822,0,0,0,1.058.688,4.065,4.065,0,0,0,1.43.212,3.762,3.762,0,0,0,1.375-.212,2.4,2.4,0,0,0,1.005-.582,2.46,2.46,0,0,0,.689-1.058,4.624,4.624,0,0,0,.211-1.588,5.16,5.16,0,0,0-.211-1.641m-1.9,3.07a1.339,1.339,0,0,1-1.164.476,1.363,1.363,0,0,1-1.111-.476,2.1,2.1,0,0,1-.372-1.429,2.194,2.194,0,0,1,.372-1.429,1.365,1.365,0,0,1,1.111-.476c1.057,0,1.535.635,1.535,1.905a2.192,2.192,0,0,1-.371,1.429" transform="translate(-462.659 -204.89)" fill="#fff"/>
      <path id="Path_3" data-name="Path 3" d="M610.789,212.089h-1.747c-.031,0-.117-.133-.136-.158-.033-.048-.073-.091-.108-.138a1.044,1.044,0,0,1-.171-.324.92.92,0,0,1,.139-.906.774.774,0,0,1,.667-.2,1.96,1.96,0,0,1,.667.36l.58-.424a1.472,1.472,0,0,0-.58-.582,1.907,1.907,0,0,0-1.534,0,1.629,1.629,0,0,0-.694.581,1.492,1.492,0,0,0-.207,1.15c.027.113.068.222.1.332.01.031.079.312.109.312h-.687v.747h3.6Z" transform="translate(-484.686 -200.483)" fill="#fff"/>
      <path id="Path_4" data-name="Path 4" d="M621.334,213.3v8.573a2.134,2.134,0,0,1-.424,1.535,1.783,1.783,0,0,1-1.43.476H614.19a3.178,3.178,0,0,1-1.058-.159,1.414,1.414,0,0,1-.74-.635,1.351,1.351,0,0,1-.636.582,2.539,2.539,0,0,1-1.163.212h-6.828a.14.14,0,0,1-.158-.159v-1.27a.14.14,0,0,1,.158-.158h2.858v-6.774a.141.141,0,0,1,.16-.159h1.482a.14.14,0,0,1,.158.159V222.3h1.641a1.026,1.026,0,0,0,.422-.053.405.405,0,0,0,.212-.212,1.259,1.259,0,0,0,.107-.476V213.3a.141.141,0,0,1,.158-.159h1.483a.141.141,0,0,1,.158.159v8.2c.106.529.529.794,1.323.794h4.868a.851.851,0,0,0,.582-.159.93.93,0,0,0,.158-.635v-8.2a.141.141,0,0,1,.158-.159h1.483a.141.141,0,0,1,.159.159" transform="translate(-483.166 -202.005)" fill="#fff"/>
      <path id="Path_5" data-name="Path 5" d="M643.15,224.67a2.014,2.014,0,0,0,.221,1,1.814,1.814,0,0,0,.573.641,2.242,2.242,0,0,0,.8.331,4.4,4.4,0,0,0,.905.093l3.168-.005a2.369,2.369,0,0,0,1.266-.243.732.732,0,0,0,.341-.6.666.666,0,0,0-.263-.476,5.894,5.894,0,0,0-.668-.5q-.41-.257-.867-.558a5.835,5.835,0,0,1-.868-.688,3.446,3.446,0,0,1-.667-.858,2.287,2.287,0,0,1-.264-1.111,2.553,2.553,0,0,1,.222-1.064,2.675,2.675,0,0,1,.631-.874,3.056,3.056,0,0,1,.976-.584,3.74,3.74,0,0,1,1.288-.211,3.873,3.873,0,0,1,1.762.341,3.635,3.635,0,0,1,1.121.888c.063.073.047.15-.051.223l-.859.831a.14.14,0,0,1-.221-.015,2.746,2.746,0,0,0-.714-.512,2.219,2.219,0,0,0-.94-.181,1.623,1.623,0,0,0-.961.295.964.964,0,0,0-.425.857,1.047,1.047,0,0,0,.269.693,4.147,4.147,0,0,0,.677.615c.273.2.563.4.878.615a8.089,8.089,0,0,1,.875.667,3.822,3.822,0,0,1,.677.775,1.7,1.7,0,0,1,.267.951,2.309,2.309,0,0,1-.174.9,1.9,1.9,0,0,1-.559.749,2.7,2.7,0,0,1-.982.5,5.168,5.168,0,0,1-1.453.181l-3.7.005a4.381,4.381,0,0,1-3.081-.946,3.347,3.347,0,0,1-1.008-2.569,5.586,5.586,0,0,1,.269-1.7,6.041,6.041,0,0,1,.666-1.463c.058-.1.135-.109.244-.031l1.286.5c.051.021.083.052.089.088a.206.206,0,0,1-.026.119,7.781,7.781,0,0,0-.486,1.028,3.625,3.625,0,0,0-.227,1.3m2.1,6.362a.14.14,0,0,1-.16-.155v-1.354a.142.142,0,0,1,.16-.16h1.338a.143.143,0,0,1,.161.16v1.354a.141.141,0,0,1-.161.155Zm2.068,0a.137.137,0,0,1-.156-.155v-1.354a.139.139,0,0,1,.156-.16l1.338-.005a.143.143,0,0,1,.161.16v1.354a.141.141,0,0,1-.161.155Z" transform="translate(-499.17 -204.473)" fill="#fff"/>
      <path id="Path_6" data-name="Path 6" d="M669.729,224.049a4.813,4.813,0,0,1-.145,1.3,1.958,1.958,0,0,1-.429.827,1.534,1.534,0,0,1-.734.445,3.913,3.913,0,0,1-1.05.124h-3.689c-.108,0-.16-.052-.16-.155v-1.245a.14.14,0,0,1,.16-.161h2.956a2.981,2.981,0,0,0,.687-.062.738.738,0,0,0,.388-.211.718.718,0,0,0,.176-.388,3.611,3.611,0,0,0,.042-.584v-1.054c0-.925-.542-1.385-1.623-1.385h-1.913c-.1,0-.154-.051-.154-.16v-1.261a.136.136,0,0,1,.154-.155h2.549a2.885,2.885,0,0,1,2.026.687,2.734,2.734,0,0,1,.76,2.135Z" transform="translate(-508.582 -204.88)" fill="#fff"/>
      <path id="Path_7" data-name="Path 7" d="M723.46,213.14h-1.482a.139.139,0,0,0-.157.159v8.15a.9.9,0,0,1-.212.688.7.7,0,0,1-.529.159h-2.964a1.508,1.508,0,0,1-1.005-.265.785.785,0,0,1-.318-.688v-3.864a.14.14,0,0,0-.158-.158h-1.482a.14.14,0,0,0-.159.158v3.282c0,.317-.054.582-.054.793a.645.645,0,0,1-.158.476.488.488,0,0,1-.318.212,1.978,1.978,0,0,1-.582.053,1.1,1.1,0,0,1-.793-.212.884.884,0,0,1-.318-.741V218.75a.141.141,0,0,0-.159-.159H711.13a.14.14,0,0,0-.158.159v2.011a3.5,3.5,0,0,1-.053.793,1.053,1.053,0,0,1-.107.476c-.052.106-.212.159-.37.212a1.651,1.651,0,0,1-.583.053,1.17,1.17,0,0,1-.847-.212.858.858,0,0,1-.264-.741V218.75a.14.14,0,0,0-.158-.159h-1.482a.141.141,0,0,0-.159.159v2.7a1.052,1.052,0,0,1-.105.477.376.376,0,0,1-.211.264.573.573,0,0,1-.425.106h-5.5a.668.668,0,0,1-.317-.053,4.508,4.508,0,0,0,.635-.424,7.558,7.558,0,0,0,.529-.688,3.234,3.234,0,0,0,.371-.741,2.468,2.468,0,0,0,.158-.9,2.184,2.184,0,0,0-.846-1.8,4.322,4.322,0,0,0-2.646-.635,5.371,5.371,0,0,0-1.324.106,5.719,5.719,0,0,0-1.111.265,1.845,1.845,0,0,0-.793.37c-.212.159-.317.264-.317.37v1.217c.053.053.105.159.211.212l.634.476a2.718,2.718,0,0,1,.583.529,6.321,6.321,0,0,1,.476.635,4.558,4.558,0,0,1,.371.9,7,7,0,0,1-.794.159h-13.07v-1.746a4.757,4.757,0,0,0-.211-1.641,2.454,2.454,0,0,0-.689-1.058,3.252,3.252,0,0,0-1.005-.635,5.325,5.325,0,0,0-1.323-.159,4.5,4.5,0,0,0-1.216.159,3.522,3.522,0,0,0-1.059.635,3,3,0,0,0-.688,1.111,4.2,4.2,0,0,0-.317,1.693,4.14,4.14,0,0,0,.263,1.482,2.118,2.118,0,0,0,.584,1.005,2.636,2.636,0,0,0,1,.582,4.76,4.76,0,0,0,1.323.159h1.588a3.193,3.193,0,0,1-.107.793,1.022,1.022,0,0,1-.265.476,1.156,1.156,0,0,1-.423.265,2.586,2.586,0,0,1-.636.053h-1.9a.169.169,0,0,0-.16.159v1.27a.169.169,0,0,0,.16.158h2.169a2.974,2.974,0,0,0,2.17-.688,2.7,2.7,0,0,0,.741-2.17v-.317h12.964a8.9,8.9,0,0,0,1.058-.106,4.777,4.777,0,0,0,1.112-.424,3.081,3.081,0,0,0,.951.424,7.236,7.236,0,0,0,1.112.106h6.085a3.522,3.522,0,0,0,1.165-.212,1.226,1.226,0,0,0,.634-.635,1.6,1.6,0,0,0,1.535.847h.689a3.259,3.259,0,0,0,1.163-.212,1.238,1.238,0,0,0,.636-.635,1.669,1.669,0,0,0,.581.635,2.527,2.527,0,0,0,.953.212h.689a3.519,3.519,0,0,0,1.164-.212.662.662,0,1,1,1.323.053,3.522,3.522,0,0,0,1.112.159h3.387a1.763,1.763,0,0,0,1.428-.53,2.248,2.248,0,0,0,.424-1.481V213.3a.141.141,0,0,0-.16-.159M681.708,222.3h-1.43a1.623,1.623,0,0,1-1.163-.37,1.722,1.722,0,0,1-.371-1.323,2.2,2.2,0,0,1,.371-1.429,1.263,1.263,0,0,1,1.11-.529,1.238,1.238,0,0,1,1.112.476,2.129,2.129,0,0,1,.371,1.376Zm18.415-1.905a4.521,4.521,0,0,1-.318.529,1.985,1.985,0,0,1-.476.476,3.6,3.6,0,0,1-.529.423,4.859,4.859,0,0,0-.74-1.693,4.254,4.254,0,0,0-1.218-1.164,2.135,2.135,0,0,1,.635-.212,3.538,3.538,0,0,1,1.112-.159,2.517,2.517,0,0,1,1.163.265.928.928,0,0,1,.478.9,2.624,2.624,0,0,1-.107.635" transform="translate(-514.275 -202.004)" fill="#fff"/>
      <path id="Path_8" data-name="Path 8" d="M763.254,223.7c0,.1-.051.155-.159.155h-1.479a.133.133,0,0,1-.159-.15v-10.4a.144.144,0,0,1,.159-.165h1.479a.14.14,0,0,1,.159.16Z" transform="translate(-550.124 -202.006)" fill="#fff"/>
      <path id="Path_9" data-name="Path 9" d="M778.137,224.031a4.814,4.814,0,0,1-.145,1.3,1.959,1.959,0,0,1-.429.827,1.534,1.534,0,0,1-.734.445,3.914,3.914,0,0,1-1.05.124H772.09c-.108,0-.16-.052-.16-.155v-1.245a.141.141,0,0,1,.16-.161h2.956a3.018,3.018,0,0,0,.687-.062.743.743,0,0,0,.388-.212.718.718,0,0,0,.176-.388,3.616,3.616,0,0,0,.042-.584v-1.054c0-.925-.542-1.385-1.623-1.385H772.8c-.1,0-.154-.051-.154-.16v-1.261a.137.137,0,0,1,.154-.155h2.549a2.884,2.884,0,0,1,2.026.687,2.734,2.734,0,0,1,.759,2.135Z" transform="translate(-554.566 -204.873)" fill="#fff"/>
      <path id="Path_10" data-name="Path 10" d="M841.689,214.795h-1.323c-.105,0-.158,0-.158.106v1.376a.14.14,0,0,0,.158.158h1.323a.139.139,0,0,0,.158-.158V214.9c0-.106-.052-.106-.158-.106m-2.064,0H838.3c-.105,0-.158,0-.158.106v1.376a.14.14,0,0,0,.158.158h1.323a.14.14,0,0,0,.158-.158V214.9c0-.106-.052-.106-.158-.106" transform="translate(-582.653 -202.706)" fill="#fff"/>
      <path id="Path_11" data-name="Path 11" d="M818.674,217.48v4.392a2.25,2.25,0,0,1-.423,1.482,1.942,1.942,0,0,1-1.43.477h-5.555a3.623,3.623,0,0,1-1.165-.16,1.36,1.36,0,0,1-.795-.74,1.641,1.641,0,0,1-.845.74,4.345,4.345,0,0,1-1.27.16H787.663a1.783,1.783,0,0,1-1.429-.477,1.989,1.989,0,0,1-.477-1.482V213.3a.141.141,0,0,1,.158-.159H787.4a.14.14,0,0,1,.159.159v8.15a1.179,1.179,0,0,0,.211.688.854.854,0,0,0,.582.159H806.5a4.766,4.766,0,0,0,.5-.033.935.935,0,0,0,.471-.164.862.862,0,0,0,.292-.5,2.124,2.124,0,0,0,.04-.444c0-.128.018-.25.011-.38a5.155,5.155,0,0,0-.1-.757,1.879,1.879,0,0,0-.317-.741,1.667,1.667,0,0,0-.583-.476,1.62,1.62,0,0,0-.9-.212,2.527,2.527,0,0,0-.954.212,2.8,2.8,0,0,0-.794.582c-.052.052-.1.052-.212,0l-.846-.847c-.052-.106-.052-.159,0-.211a5.106,5.106,0,0,1,1.165-.952,4,4,0,0,1,1.693-.371,4.263,4.263,0,0,1,1.747.371,2.774,2.774,0,0,1,1.164.846,4.788,4.788,0,0,1,.635,1.27,6.685,6.685,0,0,1,.159,1.482v.423a.8.8,0,0,0,.371.635,1.566,1.566,0,0,0,.952.265h5.08a.663.663,0,0,0,.583-.212c.157-.106.211-.318.211-.635V217.48a.14.14,0,0,1,.158-.158h1.482a.141.141,0,0,1,.159.158" transform="translate(-560.432 -202.005)" fill="#fff"/>
      <path id="Path_12" data-name="Path 12" d="M850.5,222.288h1.653a.789.789,0,0,0,.579-.181.893.893,0,0,0,.185-.651V213.3c0-.109.052-.161.156-.161h1.483c.1,0,.154.052.154.161v8.568a2.193,2.193,0,0,1-.429,1.5,1.829,1.829,0,0,1-1.431.481h-6.982c-.108,0-.16-.051-.16-.155v-1.245a.14.14,0,0,1,.16-.16H848.7v-6.775a.137.137,0,0,1,.155-.155h1.483a.141.141,0,0,1,.16.155Z" transform="translate(-585.864 -202.002)" fill="#fff"/>
      <path id="Path_13" data-name="Path 13" d="M866.56,223.694c0,.1-.051.155-.159.155h-1.479a.139.139,0,0,1-.16-.155V213.3a.14.14,0,0,1,.16-.16H866.4a.14.14,0,0,1,.159.16Z" transform="translate(-593.944 -202.003)" fill="#fff"/>
      <path id="Path_14" data-name="Path 14" d="M559.991,242.524h-1.535a.14.14,0,0,0-.159.159v1.376a.14.14,0,0,0,.159.158h1.535a.139.139,0,0,0,.158-.158v-1.376a.14.14,0,0,0-.158-.159" transform="translate(-463.947 -214.468)" fill="#fff"/>
      <path id="Path_15" data-name="Path 15" d="M581.956,242.524h-1.535a.14.14,0,0,0-.158.159v1.376a.139.139,0,0,0,.158.158h1.535a.139.139,0,0,0,.158-.158v-1.376a.14.14,0,0,0-.158-.159" transform="translate(-473.264 -214.468)" fill="#fff"/>
      <path id="Path_16" data-name="Path 16" d="M571.458,248.289v4.392a2.138,2.138,0,0,1-.423,1.535,1.784,1.784,0,0,1-1.43.477h-.377c-.332,0-8.474.014-8.808,0a5.18,5.18,0,0,1-.948-.107,1.442,1.442,0,0,1-.662-.421v.317a12.4,12.4,0,0,1-.1,1.482,2.788,2.788,0,0,1-.478,1.059,2.309,2.309,0,0,1-.9.635,3.159,3.159,0,0,1-1.323.212h-.583a.141.141,0,0,1-.158-.159v-1.27a.141.141,0,0,1,.158-.159h.371a1.32,1.32,0,0,0,.688-.158.944.944,0,0,0,.371-.423,1.782,1.782,0,0,0,.158-.794v-6.615a.141.141,0,0,1,.159-.158h1.482a.14.14,0,0,1,.158.158v3.863a1.011,1.011,0,0,0,.371.741,1.814,1.814,0,0,0,.953.212h8.784a.852.852,0,0,0,.582-.159.925.925,0,0,0,.159-.635v-4.022a.14.14,0,0,1,.157-.158H571.3a.141.141,0,0,1,.159.158" transform="translate(-462.66 -216.847)" fill="#fff"/>
      <path id="Path_17" data-name="Path 17" d="M589.178,254.489a4.974,4.974,0,0,1-1.335-.165,2.231,2.231,0,0,1-.976-.553,2.472,2.472,0,0,1-.609-1,5.335,5.335,0,0,1,.047-3.163,3.03,3.03,0,0,1,.713-1.116,2.809,2.809,0,0,1,1.043-.631,3.947,3.947,0,0,1,1.242-.2,4.224,4.224,0,0,1,1.313.191,2.662,2.662,0,0,1,1.028.594,2.758,2.758,0,0,1,.666,1.075,4.724,4.724,0,0,1,.238,1.617v3.685a2.8,2.8,0,0,1-.745,2.165,3.161,3.161,0,0,1-2.181.677h-2.149a.142.142,0,0,1-.16-.16v-1.261a.14.14,0,0,1,.16-.155h1.859a3,3,0,0,0,.59-.057.978.978,0,0,0,.464-.227,1.113,1.113,0,0,0,.29-.486,2.675,2.675,0,0,0,.1-.837Zm.139-5.246a1.308,1.308,0,0,0-1.127.538,2.311,2.311,0,0,0-.4,1.431,1.79,1.79,0,0,0,.4,1.354,1.689,1.689,0,0,0,1.167.362h1.417v-1.793a2.382,2.382,0,0,0-.347-1.411,1.283,1.283,0,0,0-1.115-.481" transform="translate(-475.715 -216.65)" fill="#fff"/>
      <path id="Path_18" data-name="Path 18" d="M599.1,257.873a.14.14,0,0,1-.159-.16v-1.261c0-.1.051-.155.159-.155h.351a1.222,1.222,0,0,0,.962-.331,1.482,1.482,0,0,0,.3-1.008v-6.651a.139.139,0,0,1,.159-.155h1.479a.141.141,0,0,1,.16.155v6.682q0,2.884-2.817,2.884Z" transform="translate(-481.186 -216.856)" fill="#fff"/>
      <path id="Path_19" data-name="Path 19" d="M621.127,241.029V249.6a2.414,2.414,0,0,1-.423,1.535,2,2,0,0,1-1.483.476h-1.837c-.452,0-.9.01-1.357-.012-.229-.011-.456-.029-.682-.06a2.047,2.047,0,0,1-.622-.14,1.411,1.411,0,0,1-.793-.688,1.267,1.267,0,0,1-.794.688,3.308,3.308,0,0,1-1.324.212h-3.545a.14.14,0,0,1-.158-.159v-1.27a.139.139,0,0,1,.158-.158h2.911a2.382,2.382,0,0,0,.688-.053.8.8,0,0,0,.423-.212.786.786,0,0,0,.159-.37,1.963,1.963,0,0,0,.054-.582V247.75a1.311,1.311,0,0,0-.425-1.058,1.96,1.96,0,0,0-1.216-.317h-1.905a.141.141,0,0,1-.158-.159v-1.27a.141.141,0,0,1,.158-.159h2.435a3.258,3.258,0,0,1,2.116.635,2.722,2.722,0,0,1,.795,2.17v1.482a.785.785,0,0,0,.316.688,1.446,1.446,0,0,0,.954.265h2.963a.852.852,0,0,0,.582-.159c.158-.106.212-.318.212-.635v-8.2a.14.14,0,0,1,.158-.159h1.483a.14.14,0,0,1,.158.159" transform="translate(-485.076 -213.767)" fill="#fff"/>
      <path id="Rectangle_1" data-name="Rectangle 1" d="M.278,0H1.522A.277.277,0,0,1,1.8.277V10.435a.278.278,0,0,1-.278.278H.277A.277.277,0,0,1,0,10.436V.278A.278.278,0,0,1,.278,0Z" transform="translate(138.023 27.12)" fill="#fff"/>
      <path id="Path_20" data-name="Path 20" d="M643.45,254.48a4.951,4.951,0,0,1-1.335-.165,2.225,2.225,0,0,1-.976-.553,2.473,2.473,0,0,1-.609-1,5.335,5.335,0,0,1,.047-3.163,3.026,3.026,0,0,1,.713-1.116,2.81,2.81,0,0,1,1.043-.631,3.946,3.946,0,0,1,1.241-.2,4.218,4.218,0,0,1,1.312.191,2.649,2.649,0,0,1,1.028.594,2.758,2.758,0,0,1,.666,1.075,4.752,4.752,0,0,1,.238,1.623v3.685a2.792,2.792,0,0,1-.745,2.16,3.164,3.164,0,0,1-2.181.677h-2.149a.142.142,0,0,1-.16-.16v-1.261a.14.14,0,0,1,.16-.155H643.6a3,3,0,0,0,.59-.057.984.984,0,0,0,.464-.227,1.111,1.111,0,0,0,.29-.486,2.679,2.679,0,0,0,.1-.837Zm.139-5.245a1.308,1.308,0,0,0-1.127.538,2.31,2.31,0,0,0-.4,1.431,1.79,1.79,0,0,0,.4,1.354,1.69,1.69,0,0,0,1.168.362h1.417v-1.793a2.386,2.386,0,0,0-.347-1.411,1.283,1.283,0,0,0-1.115-.48" transform="translate(-498.737 -216.647)" fill="#fff"/>
      <path id="Path_21" data-name="Path 21" d="M665.471,241.421h-1.323a.14.14,0,0,0-.159.159v1.376c0,.052.053.105.159.105h1.323c.107,0,.158-.053.158-.105V241.58a.14.14,0,0,0-.158-.159m-2.063,0h-1.377a.14.14,0,0,0-.158.159l.053,1.376a.114.114,0,0,0,.1.105h1.377c.106,0,.158-.053.158-.105V241.58a.14.14,0,0,0-.158-.159" transform="translate(-507.882 -214.001)" fill="#fff"/>
      <path id="Path_22" data-name="Path 22" d="M680.147,261.824h-1.482a.14.14,0,0,0-.159.158v1.323a.14.14,0,0,0,.159.159h1.482a.139.139,0,0,0,.157-.159v-1.323a.139.139,0,0,0-.157-.158" transform="translate(-514.937 -222.655)" fill="#fff"/>
      <path id="Path_23" data-name="Path 23" d="M684.224,248.9a2.474,2.474,0,0,0-.688-1.058,3.261,3.261,0,0,0-1.007-.635,5.311,5.311,0,0,0-1.322-.159,4.624,4.624,0,0,0-1.27.159,2.593,2.593,0,0,0-1.058.582,3.071,3.071,0,0,0-.688,1.058,3.807,3.807,0,0,0-.221,2.042.694.694,0,0,1,0,.166,1.4,1.4,0,0,1-.362.915,1.442,1.442,0,0,1-.318.264.67.67,0,0,1-.317.053h-.9a1.592,1.592,0,0,1-.953-.212.825.825,0,0,1-.37-.688v-.37a7.14,7.14,0,0,0-.16-1.535,4.714,4.714,0,0,0-.634-1.27,2.78,2.78,0,0,0-1.165-.847,4.283,4.283,0,0,0-1.746-.318,3.339,3.339,0,0,0-1.693.371,3.825,3.825,0,0,0-1.165.9c-.053.053-.053.106.053.212l.795.846c.1.053.158.053.211,0a4.321,4.321,0,0,1,.794-.582,2.572,2.572,0,0,1,.951-.158,2.289,2.289,0,0,1,.9.158,1.654,1.654,0,0,1,.582.477,1.849,1.849,0,0,1,.317.741,5.7,5.7,0,0,1,.107.952c0,.265-.053.477-.053.635a1.089,1.089,0,0,1-.212.423.858.858,0,0,1-.372.212,2.777,2.777,0,0,1-.686.053h-5.027a.849.849,0,0,1-.582-.159,1.085,1.085,0,0,1-.16-.688v-5.08a.14.14,0,0,0-.158-.159h-1.481a.141.141,0,0,0-.16.159v.688h-1.586a4.121,4.121,0,0,0-1.165.159,2.649,2.649,0,0,0-1.005.529,2.608,2.608,0,0,0-.688.953,4.406,4.406,0,0,0-.265,1.535,4.981,4.981,0,0,0,.212,1.376,2.887,2.887,0,0,0,.687.9,2.112,2.112,0,0,0,.954.529,4.12,4.12,0,0,0,1.164.159,2.918,2.918,0,0,0,.951-.106,2.751,2.751,0,0,0,.794-.423,1.737,1.737,0,0,0,.583.953,2.6,2.6,0,0,0,1.217.264h6.4a3.935,3.935,0,0,0,1.27-.212,1.443,1.443,0,0,0,.848-.74,1.513,1.513,0,0,0,.794.74,2.541,2.541,0,0,0,1.164.212h.529c.16,0,.317-.053.477-.053a1.573,1.573,0,0,0,.529-.106,2.168,2.168,0,0,0,.476-.264.747.747,0,0,1,1.428.317,5.793,5.793,0,0,0,1.429.212,3.462,3.462,0,0,0,1.322-.212,2.582,2.582,0,0,0,1.059-.582,2.978,2.978,0,0,0,.635-1.058,4.525,4.525,0,0,0,.265-1.588,5.088,5.088,0,0,0-.265-1.64m-20.216,1.058a1.913,1.913,0,0,1-.369,1.27,1.52,1.52,0,0,1-1.111.423,1.367,1.367,0,0,1-1.06-.37,1.3,1.3,0,0,1-.369-1.058,1.586,1.586,0,0,1,.369-1.27,1.958,1.958,0,0,1,1.112-.317h1.428Zm18.365,2.011a1.563,1.563,0,0,1-1.165.423,1.36,1.36,0,0,1-1.112-.423,2.942,2.942,0,0,1,0-2.858,1.237,1.237,0,0,1,1.112-.476c1.006,0,1.535.635,1.535,1.9a2.579,2.579,0,0,1-.37,1.429" transform="translate(-506.79 -216.028)" fill="#fff"/>
      <path id="Path_24" data-name="Path 24" d="M717.788,261.824h-1.535a.14.14,0,0,0-.159.158v1.323a.14.14,0,0,0,.159.159h1.535a.14.14,0,0,0,.158-.159v-1.323a.14.14,0,0,0-.158-.158" transform="translate(-530.882 -222.655)" fill="#fff"/>
      <path id="Path_25" data-name="Path 25" d="M717.773,241.029V249.6a2.249,2.249,0,0,1-.423,1.481,1.634,1.634,0,0,1-1.429.53h-1.535a2.765,2.765,0,0,1-.952-.159,1.323,1.323,0,0,1-.74-.688,1.24,1.24,0,0,1-.635.635,3.6,3.6,0,0,1-1.217.212h-1.323a4.749,4.749,0,0,1-.952-.106,1.054,1.054,0,0,1-.635-.424v.265a6.082,6.082,0,0,1-.158,1.482,3.079,3.079,0,0,1-.477,1.111,2.532,2.532,0,0,1-.846.635,5.02,5.02,0,0,1-1.376.212h-.582a.141.141,0,0,1-.159-.158v-1.27a.141.141,0,0,1,.159-.159h.37a1.2,1.2,0,0,0,.689-.159.937.937,0,0,0,.423-.476,2.76,2.76,0,0,0,.1-.741c0-.265.053-.635.053-1.006v-5.61a.141.141,0,0,1,.16-.158h1.482a.14.14,0,0,1,.158.158v3.864a.786.786,0,0,0,.318.688,1.508,1.508,0,0,0,1.006.265h1.111a1.025,1.025,0,0,0,.423-.053.351.351,0,0,0,.212-.264,1.05,1.05,0,0,0,.106-.477v-4.022a.14.14,0,0,1,.158-.158h1.483a.14.14,0,0,1,.158.158v3.864a.824.824,0,0,0,.37.688,1.442,1.442,0,0,0,.953.265h1.005a.954.954,0,0,0,.583-.159,1.2,1.2,0,0,0,.159-.688v-8.15a.14.14,0,0,1,.157-.159h1.483a.141.141,0,0,1,.158.159" transform="translate(-525.892 -213.767)" fill="#fff"/>
      <path id="Path_26" data-name="Path 26" d="M732.933,251.441a.139.139,0,0,1-.159.156h-1.479a.139.139,0,0,1-.159-.156l-.006-10.4a.14.14,0,0,1,.161-.16h1.478a.14.14,0,0,1,.16.16Z" transform="translate(-537.259 -213.772)" fill="#fff"/>
      <path id="Path_27" data-name="Path 27" d="M740.442,254.462a4.95,4.95,0,0,1-1.335-.166,2.224,2.224,0,0,1-.976-.553,2.472,2.472,0,0,1-.609-1,5.334,5.334,0,0,1,.047-3.163,3.026,3.026,0,0,1,.713-1.116,2.809,2.809,0,0,1,1.043-.631,3.947,3.947,0,0,1,1.242-.2,4.218,4.218,0,0,1,1.312.191,2.649,2.649,0,0,1,1.028.594,2.758,2.758,0,0,1,.666,1.075,4.756,4.756,0,0,1,.238,1.623v3.685a2.792,2.792,0,0,1-.745,2.16,3.164,3.164,0,0,1-2.181.677h-2.149a.142.142,0,0,1-.16-.16v-1.261a.14.14,0,0,1,.16-.155H740.6a3,3,0,0,0,.59-.057.984.984,0,0,0,.464-.227,1.107,1.107,0,0,0,.29-.486,2.674,2.674,0,0,0,.1-.837Zm.139-5.246a1.307,1.307,0,0,0-1.127.538,2.31,2.31,0,0,0-.4,1.431,1.787,1.787,0,0,0,.4,1.354,1.69,1.69,0,0,0,1.168.362h1.417v-1.793a2.382,2.382,0,0,0-.347-1.411,1.282,1.282,0,0,0-1.115-.481" transform="translate(-539.879 -216.639)" fill="#fff"/>
      <path id="Path_28" data-name="Path 28" d="M766.237,266.878h-1.323a.14.14,0,0,0-.159.159v1.376a.14.14,0,0,0,.159.159h1.323a.139.139,0,0,0,.157-.159v-1.376a.139.139,0,0,0-.157-.159m-2.064,0h-1.323a.14.14,0,0,0-.158.159v1.376a.14.14,0,0,0,.158.159h1.323a.14.14,0,0,0,.158-.159v-1.376a.14.14,0,0,0-.158-.159" transform="translate(-550.647 -224.799)" fill="#fff"/>
      <path id="Path_29" data-name="Path 29" d="M781.019,242.524h-1.534a.14.14,0,0,0-.159.159v1.323a.14.14,0,0,0,.159.158h1.534a.139.139,0,0,0,.158-.158v-1.323a.14.14,0,0,0-.158-.159" transform="translate(-557.704 -214.468)" fill="#fff"/>
      <path id="Path_30" data-name="Path 30" d="M771.34,248.289v4.392a2,2,0,0,1-.423,1.482,1.787,1.787,0,0,1-1.43.477h-2.645a3.688,3.688,0,0,1,.159.423,1.143,1.143,0,0,1,.105.582,1.852,1.852,0,0,1-.688,1.535,2.539,2.539,0,0,1-1.005.476,5.1,5.1,0,0,1-1.429.212h-3.651a4.352,4.352,0,0,1-3.07-.953,3.312,3.312,0,0,1-1-2.593,8.234,8.234,0,0,1,.317-1.746c.106-.264.212-.529.317-.793a2.643,2.643,0,0,1,.424-.635c.052-.106.106-.106.212-.053l1.27.635a.161.161,0,0,1,0,.211,10.023,10.023,0,0,0-.477,1.059,3,3,0,0,0-.213,1.164,1.883,1.883,0,0,0,.213,1.005,1.534,1.534,0,0,0,.53.635,2.494,2.494,0,0,0,.793.318,2.777,2.777,0,0,0,.9.106h3.121a2.72,2.72,0,0,0,1.323-.212.753.753,0,0,0,.317-.635.849.849,0,0,0-.158-.476,1.287,1.287,0,0,0-.583-.424c-.264-.105-.581-.264-.952-.423-.422-.106-.9-.318-1.428-.477-.106-.052-.16-.105-.106-.211l.423-1.217c.053-.106.106-.158.213-.158.317.158.635.264.952.423.318.106.635.211.9.317a5.778,5.778,0,0,0,.9.265,4.7,4.7,0,0,0,.9.106H768.8a.857.857,0,0,0,.583-.159,1.211,1.211,0,0,0,.158-.688v-3.969a.14.14,0,0,1,.158-.158h1.482a.141.141,0,0,1,.159.158" transform="translate(-547.919 -216.847)" fill="#fff"/>
      <path id="Path_31" data-name="Path 31" d="M787.313,251.431c0,.1-.052.155-.16.155h-1.479a.138.138,0,0,1-.159-.155l-.006-10.4a.141.141,0,0,1,.161-.16h1.478a.14.14,0,0,1,.16.16Z" transform="translate(-560.326 -213.768)" fill="#fff"/>
      <path id="Path_32" data-name="Path 32" d="M818.943,261.732h-1.535c-.107,0-.158.053-.158.212v1.323a.14.14,0,0,0,.158.159h1.535a.14.14,0,0,0,.158-.159v-1.376a.14.14,0,0,0-.158-.159" transform="translate(-573.79 -222.616)" fill="#fff"/>
      <path id="Path_33" data-name="Path 33" d="M825.9,261.824h-1.323a.141.141,0,0,0-.159.158v1.376a.141.141,0,0,0,.159.159H825.9a.14.14,0,0,0,.158-.159v-1.376a.139.139,0,0,0-.158-.158m2.063,0h-1.324a.14.14,0,0,0-.157.158v1.376a.14.14,0,0,0,.157.159h1.324a.14.14,0,0,0,.158-.159v-1.376a.14.14,0,0,0-.158-.158" transform="translate(-576.831 -222.655)" fill="#fff"/>
      <path id="Path_34" data-name="Path 34" d="M831.189,241.029V249.6a1.992,1.992,0,0,1-.424,1.481,1.781,1.781,0,0,1-1.428.477h-1.483a5.97,5.97,0,0,1-1.059-.106,1.319,1.319,0,0,1-.739-.688,1.238,1.238,0,0,1-.637.635,3.076,3.076,0,0,1-1.11.159h-.688a1.81,1.81,0,0,1-.952-.212,1.054,1.054,0,0,1-.583-.582,1.156,1.156,0,0,1-.687.635,3.089,3.089,0,0,1-1.112.159H819.6a1.651,1.651,0,0,1-1.589-.794,1.234,1.234,0,0,1-.634.635,3.088,3.088,0,0,1-1.112.159h-2.117a3.211,3.211,0,0,1-.794-.106,1.187,1.187,0,0,1-.741-.688,1.158,1.158,0,0,1-.687.635,3.765,3.765,0,0,1-1.217.159h-1.483a5.944,5.944,0,0,1-1.058-.106,1.188,1.188,0,0,1-.742-.688,1.155,1.155,0,0,1-.687.635,3.417,3.417,0,0,1-1.164.159H795.486a4.284,4.284,0,0,1-.9-.053,1.364,1.364,0,0,1-.69-.424v.265a6.114,6.114,0,0,1-.157,1.482,1.943,1.943,0,0,1-.476,1.111,2.117,2.117,0,0,1-.847.635,4.623,4.623,0,0,1-1.324.212h-.582a.14.14,0,0,1-.158-.158v-1.27a.14.14,0,0,1,.158-.159h.318a1.393,1.393,0,0,0,.739-.159,1.16,1.16,0,0,0,.373-.476c.052-.212.1-.423.157-.741v-6.616a.141.141,0,0,1,.159-.158h1.482a.14.14,0,0,1,.157.158v3.864a.771.771,0,0,0,.372.688,1.571,1.571,0,0,0,.952.265H805.1c.159,0,.318-.053.424-.053a.538.538,0,0,0,.211-.264,1.057,1.057,0,0,0,.107-.477v-4.022a.14.14,0,0,1,.158-.158h1.482a.14.14,0,0,1,.159.158v3.811a.8.8,0,0,0,.37.74,1.569,1.569,0,0,0,.952.265h1.324a.993.993,0,0,0,.423-.106.537.537,0,0,0,.211-.265,1.057,1.057,0,0,0,.1-.476v-3.969c0-.053.053-.105.107-.158h1.535a.14.14,0,0,1,.158.158v3.811a.8.8,0,0,0,.371.74,1.571,1.571,0,0,0,.952.265h1.535a1.045,1.045,0,0,0,.475-.106,1.14,1.14,0,0,0,.213-.265,1.184,1.184,0,0,0,.052-.476v-2.751a.14.14,0,0,1,.16-.159h1.482a.14.14,0,0,1,.158.159v2.593a.962.962,0,0,0,.264.74,1.35,1.35,0,0,0,.848.265,2.183,2.183,0,0,0,.635-.053.48.48,0,0,0,.316-.212.845.845,0,0,0,.161-.476v-2.857a.139.139,0,0,1,.157-.159h1.482a.141.141,0,0,1,.16.159v2.646a.887.887,0,0,0,.317.741,1.75,1.75,0,0,0,.793.212,1.65,1.65,0,0,0,.583-.053.856.856,0,0,0,.37-.212,2.463,2.463,0,0,0,.158-.476v-4.075a.141.141,0,0,1,.16-.158h1.482a.141.141,0,0,1,.159.158v3.811a.8.8,0,0,0,.37.74,1.687,1.687,0,0,0,.952.265h1.058a.659.659,0,0,0,.582-.212.914.914,0,0,0,.159-.635v-8.15a.14.14,0,0,1,.157-.159h1.483a.141.141,0,0,1,.159.159" transform="translate(-562.381 -213.767)" fill="#fff"/>
      <path id="Path_35" data-name="Path 35" d="M866.556,251.423c0,.1-.051.155-.16.155h-1.479a.139.139,0,0,1-.16-.155l-.005-10.4a.14.14,0,0,1,.16-.16h1.478a.14.14,0,0,1,.159.16Z" transform="translate(-593.94 -213.765)" fill="#fff"/>
      <path id="Path_36" data-name="Path 36" d="M558.018,284.872a3.955,3.955,0,0,1-.8-.079,4.552,4.552,0,0,1-.739-.211,3.883,3.883,0,0,1-.653-.318,3.1,3.1,0,0,1-.512-.4c-.058-.059-.063-.116-.021-.167l.673-.8a.086.086,0,0,1,.148-.013,4.58,4.58,0,0,0,.4.29,3.3,3.3,0,0,0,.478.257,3.354,3.354,0,0,0,.534.182,2.36,2.36,0,0,0,.6.075,1.526,1.526,0,0,0,1.021-.308.983.983,0,0,0,.366-.787.861.861,0,0,0-.294-.673,2.055,2.055,0,0,0-1.053-.375l-.385-.054a3.026,3.026,0,0,1-1.649-.686,1.917,1.917,0,0,1-.57-1.477,2.489,2.489,0,0,1,.17-.937,2.048,2.048,0,0,1,.5-.724,2.2,2.2,0,0,1,.785-.462,3.118,3.118,0,0,1,1.032-.162,4.161,4.161,0,0,1,1.315.206,3.569,3.569,0,0,1,1.069.552.111.111,0,0,1,.021.157l-.519.825a.1.1,0,0,1-.154.033,3.882,3.882,0,0,0-.874-.447,2.776,2.776,0,0,0-.889-.144,1.21,1.21,0,0,0-.863.286.978.978,0,0,0-.3.729.836.836,0,0,0,.3.652,2.148,2.148,0,0,0,1.053.373l.392.057a2.956,2.956,0,0,1,1.634.686,1.974,1.974,0,0,1,.564,1.51,2.569,2.569,0,0,1-.174.937,2.018,2.018,0,0,1-.525.745,2.581,2.581,0,0,1-.873.491,3.643,3.643,0,0,1-1.2.18" transform="translate(-462.66 -229.112)" fill="#fff"/>
      <path id="Path_37" data-name="Path 37" d="M567.553,277.366a.132.132,0,0,1,.138-.111h1a.141.141,0,0,1,.143.111l2.486,7.36c.026.074,0,.11-.071.11h-1.063a.134.134,0,0,1-.139-.11l-.487-1.472-2.775,0-.483,1.472a.141.141,0,0,1-.144.111h-1.047c-.072,0-.1-.036-.078-.111Zm1.613,4.716-.976-2.944h-.031l-.987,2.944Z" transform="translate(-466.8 -229.201)" fill="#fff"/>
      <path id="Path_38" data-name="Path 38" d="M579.15,283.777a1.388,1.388,0,0,0,1.043-.419,1.686,1.686,0,0,0,.4-1.21v-4.783c0-.074.035-.111.107-.111h1.058a.1.1,0,0,1,.109.111v4.806a3.126,3.126,0,0,1-.207,1.176,2.4,2.4,0,0,1-1.427,1.421,3.013,3.013,0,0,1-1.084.19,2.98,2.98,0,0,1-1.074-.19,2.419,2.419,0,0,1-1.423-1.421,3.161,3.161,0,0,1-.2-1.176v-4.806a.1.1,0,0,1,.108-.111h1.058a.1.1,0,0,1,.108.111v4.783a1.68,1.68,0,0,0,.4,1.21,1.368,1.368,0,0,0,1.028.419" transform="translate(-471.646 -229.201)" fill="#fff"/>
      <path id="Path_39" data-name="Path 39" d="M587.777,277.366a.1.1,0,0,1,.109-.111h2.63a2.311,2.311,0,0,1,2.462,1.68c.026.1.051.2.072.306s.041.241.062.4.031.346.036.572.01.5.01.83,0,.6-.01.832-.022.416-.036.574-.036.287-.062.4-.046.211-.072.308a2.314,2.314,0,0,1-2.462,1.685h-2.63a.1.1,0,0,1-.109-.11Zm1.28,6.221c0,.044.02.067.061.067h1.1a1.911,1.911,0,0,0,.991-.223,1.233,1.233,0,0,0,.534-.735.846.846,0,0,0,.058-.2c.014-.079.025-.18.035-.3s.021-.277.031-.464.011-.416.011-.692-.005-.5-.011-.691-.02-.341-.031-.467a2.845,2.845,0,0,0-.035-.3.8.8,0,0,0-.058-.191,1.233,1.233,0,0,0-.534-.735,1.916,1.916,0,0,0-.991-.223h-1.1c-.041,0-.061.02-.061.067Z" transform="translate(-476.452 -229.201)" fill="#fff"/>
      <path id="Path_40" data-name="Path 40" d="M598.708,277.361a.1.1,0,0,1,.108-.111h1.064a.1.1,0,0,1,.108.111v7.359a.1.1,0,0,1-.108.111h-1.064a.1.1,0,0,1-.108-.111Z" transform="translate(-481.088 -229.199)" fill="#fff"/>
      <path id="Path_41" data-name="Path 41" d="M606.533,277.361a.1.1,0,0,1,.108-.111h4.613a.1.1,0,0,1,.109.111v.958a.1.1,0,0,1-.109.113h-3.38c-.041,0-.061.021-.061.067v1.93c0,.043.02.066.061.066h2.851a.1.1,0,0,1,.109.111v.958a.1.1,0,0,1-.109.113h-2.851c-.041,0-.061.02-.061.066v2.978a.1.1,0,0,1-.109.111h-1.063a.1.1,0,0,1-.108-.111Z" transform="translate(-484.408 -229.199)" fill="#fff"/>
      <path id="Path_42" data-name="Path 42" d="M616.249,277.359a.1.1,0,0,1,.108-.111l4.613,0a.1.1,0,0,1,.109.111v.958a.1.1,0,0,1-.109.113l-3.38,0c-.041,0-.062.021-.062.067v1.85c0,.047.021.067.062.067l2.85,0a.1.1,0,0,1,.109.113v.958a.1.1,0,0,1-.109.111l-2.85,0c-.041,0-.062.023-.062.067v1.919c0,.043.021.067.062.067l3.38,0a.1.1,0,0,1,.109.111v.96a.1.1,0,0,1-.109.111l-4.613,0a.1.1,0,0,1-.108-.111Z" transform="translate(-488.529 -229.197)" fill="#fff"/>
      <path id="Path_43" data-name="Path 43" d="M626.142,277.357a.1.1,0,0,1,.109-.111h2.63a2.312,2.312,0,0,1,2.462,1.683c.026.1.051.2.072.306s.041.241.062.4.03.347.036.573.01.5.01.829,0,.6-.01.833-.022.416-.036.573-.036.287-.062.4-.046.211-.072.308a2.312,2.312,0,0,1-2.462,1.683h-2.63a.1.1,0,0,1-.109-.111Zm1.28,6.222c0,.044.02.067.061.067h1.1a1.915,1.915,0,0,0,.991-.223,1.232,1.232,0,0,0,.534-.735.837.837,0,0,0,.058-.2c.014-.079.025-.18.035-.3s.021-.278.032-.465.01-.416.01-.692-.005-.5-.01-.691-.021-.341-.032-.468a2.853,2.853,0,0,0-.035-.3.8.8,0,0,0-.058-.191,1.233,1.233,0,0,0-.534-.735,1.916,1.916,0,0,0-.991-.223h-1.1c-.041,0-.061.02-.061.066Z" transform="translate(-492.726 -229.197)" fill="#fff"/>
      <path id="Path_44" data-name="Path 44" d="M637.065,277.357c0-.074.035-.111.107-.111h4.613a.1.1,0,0,1,.108.111v.958a.1.1,0,0,1-.108.113H638.4c-.04,0-.061.021-.061.067v1.85c0,.047.021.067.061.067h2.851a.1.1,0,0,1,.108.113v.959a.1.1,0,0,1-.108.11H638.4c-.04,0-.061.023-.061.067v1.919c0,.043.021.066.061.066h3.381a.1.1,0,0,1,.108.111v.961a.1.1,0,0,1-.108.111h-4.613c-.072,0-.107-.036-.107-.111Z" transform="translate(-497.359 -229.197)" fill="#fff"/>
      <path id="Path_45" data-name="Path 45" d="M651.132,284.822a.161.161,0,0,1-.164-.11l-1.408-2.957-1.268,0c-.042,0-.062.024-.062.07v2.887a.1.1,0,0,1-.108.111h-1.064a.1.1,0,0,1-.109-.111v-7.359a.1.1,0,0,1,.109-.111l2.845,0a2.554,2.554,0,0,1,.941.167,2.266,2.266,0,0,1,.739.462,2.063,2.063,0,0,1,.494.714,2.331,2.331,0,0,1,.179.92,2.212,2.212,0,0,1-.379,1.292,2.12,2.12,0,0,1-1.018.791l1.547,3.09a.092.092,0,0,1,.005.1.091.091,0,0,1-.083.043Zm-1.269-4.248a1.145,1.145,0,0,0,.817-.288,1.157,1.157,0,0,0,0-1.572,1.136,1.136,0,0,0-.817-.29l-1.571,0c-.042,0-.062.02-.062.066v2.016c0,.047.02.067.062.067Z" transform="translate(-501.552 -229.195)" fill="#fff"/>
      <path id="Path_46" data-name="Path 46" d="M659.21,277.353a.132.132,0,0,1,.138-.111h1a.142.142,0,0,1,.144.111l2.486,7.359c.025.075,0,.111-.072.111h-1.062a.135.135,0,0,1-.14-.111l-.487-1.472h-2.776l-.482,1.472a.141.141,0,0,1-.144.111h-1.049c-.072,0-.1-.036-.077-.111Zm1.614,4.716-.976-2.944h-.031l-.986,2.944Z" transform="translate(-505.679 -229.195)" fill="#fff"/>
      <path id="Path_47" data-name="Path 47" d="M668.618,284.822c-.072,0-.108-.036-.108-.111v-6.222c0-.046-.021-.067-.062-.067h-1.931a.1.1,0,0,1-.108-.113v-.958a.1.1,0,0,1,.108-.111h5.266a.1.1,0,0,1,.108.111v.958a.1.1,0,0,1-.108.113h-1.927c-.046,0-.067.021-.067.067v6.222c0,.075-.035.111-.107.111Z" transform="translate(-509.806 -229.195)" fill="#fff"/>
      <path id="Path_48" data-name="Path 48" d="M676.929,277.351a.1.1,0,0,1,.108-.111l1.064,0a.1.1,0,0,1,.108.11v7.359a.1.1,0,0,1-.108.111l-1.064,0a.1.1,0,0,1-.108-.111Z" transform="translate(-514.269 -229.194)" fill="#fff"/>
      <path id="Path_49" data-name="Path 49" d="M683.56,284.85a2.863,2.863,0,0,1-1.64-.462,2.478,2.478,0,0,1-.96-1.367c-.035-.118-.067-.238-.093-.357a3.567,3.567,0,0,1-.061-.411c-.011-.157-.026-.342-.031-.552s-.01-.468-.01-.766,0-.549.01-.763.02-.4.031-.552a3.5,3.5,0,0,1,.061-.411c.026-.12.058-.239.093-.357a2.468,2.468,0,0,1,.96-1.366,3.146,3.146,0,0,1,3.283,0,2.493,2.493,0,0,1,.966,1.366c.037.118.063.237.088.357a3.448,3.448,0,0,1,.062.411c.014.157.026.342.031.552s.009.468.009.763,0,.552-.009.766-.017.4-.031.552a3.511,3.511,0,0,1-.062.411c-.025.119-.051.239-.088.357a2.5,2.5,0,0,1-.966,1.367,2.863,2.863,0,0,1-1.643.462m0-1.182a1.391,1.391,0,0,0,.883-.262,1.429,1.429,0,0,0,.489-.732,1.87,1.87,0,0,0,.056-.233c.016-.088.025-.2.037-.334s.02-.3.025-.486.015-.416.015-.686-.005-.5-.015-.686-.015-.349-.025-.483-.021-.247-.037-.337a1.961,1.961,0,0,0-.056-.234,1.436,1.436,0,0,0-.489-.73,1.62,1.62,0,0,0-1.767,0,1.5,1.5,0,0,0-.482.73,2.052,2.052,0,0,0-.058.234,2.452,2.452,0,0,0-.046.337c-.009.134-.015.295-.02.483s-.006.419-.006.686,0,.5.006.686.011.352.02.486a2.353,2.353,0,0,0,.046.334,1.95,1.95,0,0,0,.058.233,1.49,1.49,0,0,0,.482.732,1.382,1.382,0,0,0,.884.262" transform="translate(-515.896 -229.102)" fill="#fff"/>
      <path id="Path_50" data-name="Path 50" d="M692.1,277.348a.1.1,0,0,1,.108-.11h1a.207.207,0,0,1,.184.11l3,5.23h.041v-5.23a.1.1,0,0,1,.108-.11h.94a.1.1,0,0,1,.113.11v7.359a.1.1,0,0,1-.113.111h-.981a.2.2,0,0,1-.185-.111l-3.01-5.22h-.041v5.22c0,.075-.036.111-.114.111h-.94c-.072,0-.108-.036-.108-.111Z" transform="translate(-520.703 -229.194)" fill="#fff"/>
      <path id="Path_51" data-name="Path 51" d="M707.237,277.343a.1.1,0,0,1,.108-.11h4.613a.1.1,0,0,1,.109.11v.958a.1.1,0,0,1-.109.113h-3.379c-.041,0-.062.021-.062.067v1.929c0,.043.021.067.062.067h2.85a.1.1,0,0,1,.109.111v.958a.1.1,0,0,1-.109.113h-2.85c-.041,0-.062.02-.062.067V284.7a.1.1,0,0,1-.108.111h-1.064c-.072,0-.108-.036-.108-.111Z" transform="translate(-527.125 -229.191)" fill="#fff"/>
      <path id="Path_52" data-name="Path 52" d="M719.374,284.846a2.865,2.865,0,0,1-1.64-.462,2.483,2.483,0,0,1-.96-1.367c-.035-.118-.067-.238-.093-.357a3.57,3.57,0,0,1-.06-.411c-.011-.157-.026-.342-.031-.552s-.01-.468-.01-.766,0-.55.01-.763.02-.4.031-.552a3.507,3.507,0,0,1,.06-.411c.026-.12.058-.239.093-.357a2.472,2.472,0,0,1,.96-1.366,3.146,3.146,0,0,1,3.283,0,2.487,2.487,0,0,1,.966,1.366c.037.118.063.237.088.357a3.488,3.488,0,0,1,.062.411c.015.157.026.342.031.552s.009.468.009.763,0,.552-.009.766-.016.4-.031.552a3.552,3.552,0,0,1-.062.411c-.025.119-.051.239-.088.357a2.5,2.5,0,0,1-.966,1.367,2.863,2.863,0,0,1-1.643.462m0-1.182a1.392,1.392,0,0,0,.883-.262,1.436,1.436,0,0,0,.488-.732,1.836,1.836,0,0,0,.056-.234c.016-.087.025-.2.037-.333s.02-.3.025-.486.015-.416.015-.686-.005-.5-.015-.686-.015-.349-.025-.483-.021-.247-.037-.337a1.938,1.938,0,0,0-.056-.234,1.438,1.438,0,0,0-.488-.73,1.621,1.621,0,0,0-1.767,0,1.5,1.5,0,0,0-.483.73,2.2,2.2,0,0,0-.058.234,2.633,2.633,0,0,0-.046.337c-.009.134-.014.295-.02.483s-.006.419-.006.686,0,.5.006.686.011.352.02.486a2.513,2.513,0,0,0,.046.333,2.07,2.07,0,0,0,.058.234,1.5,1.5,0,0,0,.483.732,1.382,1.382,0,0,0,.884.262" transform="translate(-531.087 -229.101)" fill="#fff"/>
      <path id="Path_53" data-name="Path 53" d="M732.1,284.809a.162.162,0,0,1-.164-.111l-1.408-2.957-1.269,0c-.042,0-.062.023-.062.069V284.7c0,.075-.036.111-.108.111h-1.064a.1.1,0,0,1-.109-.111v-7.359a.1.1,0,0,1,.109-.11l2.845,0a2.556,2.556,0,0,1,.941.167,2.277,2.277,0,0,1,.739.462,2.064,2.064,0,0,1,.494.714,2.332,2.332,0,0,1,.179.92,2.21,2.21,0,0,1-.379,1.292,2.119,2.119,0,0,1-1.018.791l1.547,3.09a.092.092,0,0,1,.005.1.091.091,0,0,1-.083.044Zm-1.269-4.249a1.145,1.145,0,0,0,.817-.288,1.157,1.157,0,0,0,0-1.572,1.136,1.136,0,0,0-.817-.29l-1.571,0c-.042,0-.062.02-.062.067V280.5c0,.046.02.066.062.066Z" transform="translate(-535.897 -229.189)" fill="#fff"/>
      <path id="Path_54" data-name="Path 54" d="M742.158,282.979c-.036-.118-.067-.236-.093-.352a3.716,3.716,0,0,1-.062-.4c-.01-.151-.025-.331-.03-.534s-.01-.46-.01-.765.005-.55.01-.758.02-.388.03-.54a3.5,3.5,0,0,1,.062-.4c.026-.116.057-.234.093-.352a2.5,2.5,0,0,1,.945-1.4,2.759,2.759,0,0,1,1.608-.462,2.658,2.658,0,0,1,1.531.434,2.6,2.6,0,0,1,.961,1.194c.02.067.005.111-.057.134l-.92.457c-.061.036-.112.018-.138-.056a2.168,2.168,0,0,0-.5-.691,1.258,1.258,0,0,0-.874-.29,1.272,1.272,0,0,0-.848.267,1.549,1.549,0,0,0-.473.737c-.021.082-.042.162-.056.244a1.861,1.861,0,0,0-.046.318c-.012.128-.016.288-.021.473s-.005.416-.005.691,0,.517.005.7.009.336.021.468a1.978,1.978,0,0,0,.046.324,2.208,2.208,0,0,0,.056.239,1.549,1.549,0,0,0,.473.737,1.272,1.272,0,0,0,.848.267,1.258,1.258,0,0,0,.874-.29,2.168,2.168,0,0,0,.5-.691c.026-.074.077-.093.138-.056l.92.457c.062.023.077.067.057.134a2.582,2.582,0,0,1-.961,1.192,2.663,2.663,0,0,1-1.531.436,2.759,2.759,0,0,1-1.608-.462,2.5,2.5,0,0,1-.945-1.4" transform="translate(-541.855 -229.099)" fill="#fff"/>
      <path id="Path_55" data-name="Path 55" d="M753.372,284.807c-.078,0-.113-.036-.113-.111v-2.99l-2.132-4.369c-.026-.075,0-.111.087-.111h1.093a.159.159,0,0,1,.155.111l1.438,2.944h.031l1.454-2.944a.147.147,0,0,1,.149-.111l1.047,0c.088,0,.118.036.088.11l-2.133,4.372v2.99c0,.075-.035.111-.107.111Z" transform="translate(-545.738 -229.188)" fill="#fff"/>
      <path id="Path_56" data-name="Path 56" d="M761.572,277.334a.1.1,0,0,1,.109-.111h2.739a2.4,2.4,0,0,1,1.736.553,1.951,1.951,0,0,1,.561,1.464,1.854,1.854,0,0,1-.253,1.033,1.686,1.686,0,0,1-.6.572v.024a1.247,1.247,0,0,1,.344.211,1.545,1.545,0,0,1,.313.362,2.109,2.109,0,0,1,.324,1.133,2.05,2.05,0,0,1-.658,1.683,2.867,2.867,0,0,1-1.876.547h-2.63a.1.1,0,0,1-.109-.11Zm2.816,3.044a1.066,1.066,0,0,0,.77-.272.97.97,0,0,0,.277-.719.985.985,0,0,0-.277-.732,1.078,1.078,0,0,0-.77-.272h-1.475c-.041,0-.061.023-.061.066v1.863c0,.043.02.067.061.067Zm-1.536,3.2c0,.044.02.067.061.067h1.541a1.116,1.116,0,0,0,.828-.29,1.051,1.051,0,0,0,.287-.77,1.036,1.036,0,0,0-.287-.758,1.116,1.116,0,0,0-.828-.29h-1.541c-.041,0-.061.023-.061.067Z" transform="translate(-550.173 -229.187)" fill="#fff"/>
      <path id="Path_57" data-name="Path 57" d="M772.164,277.334a.1.1,0,0,1,.108-.11h4.613a.1.1,0,0,1,.108.11v.958c0,.075-.036.113-.108.113h-3.38c-.041,0-.062.021-.062.067v1.85c0,.047.02.067.062.067h2.85a.1.1,0,0,1,.109.112v.959a.1.1,0,0,1-.109.11h-2.85c-.041,0-.062.023-.062.067v1.919c0,.044.02.067.062.067h3.38a.1.1,0,0,1,.108.111v.96a.1.1,0,0,1-.108.111h-4.613c-.072,0-.108-.036-.108-.111Z" transform="translate(-554.666 -229.188)" fill="#fff"/>
      <path id="Path_58" data-name="Path 58" d="M786.231,284.8a.161.161,0,0,1-.164-.11l-1.408-2.957-1.269,0c-.043,0-.062.023-.062.069v2.887c0,.075-.036.111-.108.111h-1.064a.1.1,0,0,1-.109-.111v-7.359a.1.1,0,0,1,.109-.111l2.845,0a2.553,2.553,0,0,1,.941.167,2.275,2.275,0,0,1,.739.462,2.064,2.064,0,0,1,.494.714,2.332,2.332,0,0,1,.179.92,2.21,2.21,0,0,1-.379,1.292,2.12,2.12,0,0,1-1.018.791l1.547,3.09a.09.09,0,0,1-.078.143Zm-1.269-4.248a1.145,1.145,0,0,0,.817-.288,1.157,1.157,0,0,0,0-1.572,1.136,1.136,0,0,0-.817-.29l-1.571,0c-.043,0-.062.02-.062.066v2.017c0,.047.02.067.062.067Z" transform="translate(-558.858 -229.186)" fill="#fff"/>
      <path id="Path_59" data-name="Path 59" d="M794.858,284.832a3.964,3.964,0,0,1-.8-.079,4.584,4.584,0,0,1-.739-.211,3.9,3.9,0,0,1-.653-.318,3.126,3.126,0,0,1-.513-.4c-.058-.059-.063-.116-.021-.167l.673-.8a.086.086,0,0,1,.148-.013,4.672,4.672,0,0,0,.4.29,3.287,3.287,0,0,0,.477.257,3.369,3.369,0,0,0,.534.182,2.363,2.363,0,0,0,.6.075,1.525,1.525,0,0,0,1.021-.308.982.982,0,0,0,.365-.787.862.862,0,0,0-.293-.673,2.06,2.06,0,0,0-1.053-.375l-.385-.054a3.029,3.029,0,0,1-1.649-.686,1.917,1.917,0,0,1-.57-1.477,2.488,2.488,0,0,1,.17-.937,2.046,2.046,0,0,1,.5-.724,2.213,2.213,0,0,1,.785-.462,3.1,3.1,0,0,1,1.032-.162,4.161,4.161,0,0,1,1.315.206,3.549,3.549,0,0,1,1.069.552.111.111,0,0,1,.021.157l-.519.825a.1.1,0,0,1-.154.033,3.885,3.885,0,0,0-.874-.447,2.772,2.772,0,0,0-.889-.144,1.21,1.21,0,0,0-.863.285.979.979,0,0,0-.3.73.834.834,0,0,0,.3.652,2.144,2.144,0,0,0,1.053.373l.391.056a2.96,2.96,0,0,1,1.634.686,1.974,1.974,0,0,1,.564,1.51,2.569,2.569,0,0,1-.173.937,2.025,2.025,0,0,1-.525.745,2.579,2.579,0,0,1-.873.491,3.649,3.649,0,0,1-1.2.18" transform="translate(-563.123 -229.095)" fill="#fff"/>
      <path id="Path_60" data-name="Path 60" d="M803.07,277.33a.1.1,0,0,1,.108-.111h4.613a.1.1,0,0,1,.109.111v.958a.1.1,0,0,1-.109.113h-3.379c-.041,0-.062.021-.062.067v1.85c0,.047.021.067.062.067h2.85a.1.1,0,0,1,.109.113v.959a.1.1,0,0,1-.109.11h-2.85c-.041,0-.062.023-.062.067v1.919c0,.043.021.067.062.067h3.379a.1.1,0,0,1,.109.11v.961a.1.1,0,0,1-.109.111h-4.613a.1.1,0,0,1-.108-.111Z" transform="translate(-567.776 -229.186)" fill="#fff"/>
      <path id="Path_61" data-name="Path 61" d="M812.786,282.968c-.036-.118-.067-.236-.093-.352a3.746,3.746,0,0,1-.062-.4c-.01-.151-.025-.331-.03-.534s-.011-.46-.011-.765.006-.55.011-.758.02-.388.03-.54a3.53,3.53,0,0,1,.062-.4c.026-.116.057-.234.093-.352a2.509,2.509,0,0,1,.946-1.4,2.759,2.759,0,0,1,1.608-.462,2.662,2.662,0,0,1,1.531.434,2.6,2.6,0,0,1,.961,1.194c.02.067.005.111-.057.134l-.92.457c-.061.036-.112.018-.139-.056a2.166,2.166,0,0,0-.5-.691,1.258,1.258,0,0,0-.873-.29,1.272,1.272,0,0,0-.848.267,1.55,1.55,0,0,0-.473.737c-.021.082-.042.162-.056.244a1.862,1.862,0,0,0-.046.318c-.012.128-.016.288-.021.473s-.005.416-.005.691,0,.517.005.7.009.336.021.468a1.971,1.971,0,0,0,.046.324,2.241,2.241,0,0,0,.056.239,1.553,1.553,0,0,0,.473.737,1.276,1.276,0,0,0,.848.267,1.26,1.26,0,0,0,.873-.29,2.167,2.167,0,0,0,.5-.691c.026-.075.078-.093.139-.057l.92.457c.062.023.077.067.057.134a2.587,2.587,0,0,1-.961,1.192,2.663,2.663,0,0,1-1.531.436,2.759,2.759,0,0,1-1.608-.462,2.5,2.5,0,0,1-.946-1.4" transform="translate(-571.814 -229.093)" fill="#fff"/>
      <path id="Path_62" data-name="Path 62" d="M825.58,283.737a1.388,1.388,0,0,0,1.043-.419,1.686,1.686,0,0,0,.4-1.21v-4.783c0-.074.035-.111.107-.111h1.058a.1.1,0,0,1,.109.111v4.806a3.136,3.136,0,0,1-.207,1.176,2.4,2.4,0,0,1-1.427,1.421,3.029,3.029,0,0,1-1.084.19,2.992,2.992,0,0,1-1.073-.19,2.419,2.419,0,0,1-1.423-1.421,3.149,3.149,0,0,1-.2-1.176v-4.806a.1.1,0,0,1,.108-.111h1.058a.1.1,0,0,1,.108.111v4.783a1.681,1.681,0,0,0,.4,1.21,1.366,1.366,0,0,0,1.027.419" transform="translate(-576.178 -229.184)" fill="#fff"/>
      <path id="Path_63" data-name="Path 63" d="M838.391,284.793a.162.162,0,0,1-.165-.111l-1.407-2.954H835.55c-.042,0-.062.023-.062.069v2.888a.1.1,0,0,1-.108.11h-1.064a.1.1,0,0,1-.109-.11v-7.36a.1.1,0,0,1,.109-.111h2.845a2.6,2.6,0,0,1,.941.165,2.274,2.274,0,0,1,.739.462,2.069,2.069,0,0,1,.494.714,2.336,2.336,0,0,1,.179.92,2.21,2.21,0,0,1-.379,1.292,2.113,2.113,0,0,1-1.018.791l1.547,3.09a.09.09,0,0,1-.078.144Zm-1.269-4.246a1.136,1.136,0,0,0,.817-.29,1.157,1.157,0,0,0,0-1.572,1.145,1.145,0,0,0-.817-.288H835.55c-.042,0-.062.021-.062.067v2.017c0,.046.02.067.062.067Z" transform="translate(-580.984 -229.184)" fill="#fff"/>
      <path id="Path_64" data-name="Path 64" d="M845.023,277.321c0-.074.035-.111.107-.111h1.064a.1.1,0,0,1,.108.111v7.359a.1.1,0,0,1-.108.111H845.13c-.072,0-.107-.036-.107-.111Z" transform="translate(-585.571 -229.182)" fill="#fff"/>
      <path id="Path_65" data-name="Path 65" d="M859.166,277.321l-2.157,4.366v3c0,.052,0,.1-.106.1h-1.052a.112.112,0,0,1-.1-.1v-3l-1.647-3.314h-2.405c-.052,0-.052.052-.052.105v6.208a.113.113,0,0,1-.1.1h-1.053c-.106,0-.159-.052-.159-.1v-6.208c0-.053,0-.105-.051-.105h-1.894c-.105,0-.105,0-.105-.1v-.947c0-.053,0-.105.105-.105H854.8c.053,0,.106.052.157.105l1.421,2.946h.054l1.473-2.946a.112.112,0,0,1,.1-.105h1.053c.105,0,.158.052.105.105" transform="translate(-586.951 -229.184)" fill="#fff"/>
      <path id="Path_66" data-name="Path 66" d="M865.744,288.124a.1.1,0,0,1,.108-.111l1.017,0a.1.1,0,0,1,.108.111v1.214a.467.467,0,0,1-.01.134.212.212,0,0,1-.061.1l-.9.96a.221.221,0,0,1-.154.079c-.072,0-.108-.039-.108-.113Z" transform="translate(-594.361 -233.763)" fill="#fff"/>
      <path id="Path_67" data-name="Path 67" d="M555.429,309.4c-.072,0-.108-.036-.108-.111l-.006-7.4a.1.1,0,0,1,.109-.111h2.781a2.719,2.719,0,0,1,.982.173,2.3,2.3,0,0,1,.775.484,2.15,2.15,0,0,1,.5.744,2.7,2.7,0,0,1,0,1.941,2.189,2.189,0,0,1-.5.747,2.281,2.281,0,0,1-.775.481,2.708,2.708,0,0,1-.982.176h-1.54c-.041,0-.062.021-.062.067l0,2.7c0,.075-.036.111-.108.111Zm2.7-4.083a1.243,1.243,0,0,0,.9-.318,1.283,1.283,0,0,0,0-1.71,1.226,1.226,0,0,0-.9-.326h-1.463c-.041,0-.062.021-.062.067v2.22c0,.046.02.067.062.067Z" transform="translate(-462.682 -239.601)" fill="#fff"/>
      <path id="Path_68" data-name="Path 68" d="M570.649,309.393a.164.164,0,0,1-.166-.111l-1.42-2.972h-1.277c-.042,0-.062.024-.062.07l0,2.9c0,.075-.036.111-.108.111H566.55c-.072,0-.108-.036-.108-.111l-.005-7.4a.1.1,0,0,1,.109-.111l2.862,0a2.568,2.568,0,0,1,.946.168,2.291,2.291,0,0,1,.745.465,2.076,2.076,0,0,1,.5.718,2.358,2.358,0,0,1,.181.925,2.226,2.226,0,0,1-.382,1.3,2.142,2.142,0,0,1-1.024.8l1.56,3.109a.092.092,0,0,1,.006.1.091.091,0,0,1-.083.044Zm-1.282-4.271a1.163,1.163,0,0,0,.822-.292,1.162,1.162,0,0,0,0-1.581,1.132,1.132,0,0,0-.822-.29h-1.581c-.042,0-.062.021-.062.067v2.028c0,.047.021.067.062.067Z" transform="translate(-467.4 -239.598)" fill="#fff"/>
      <path id="Path_69" data-name="Path 69" d="M580.4,309.426a2.874,2.874,0,0,1-1.649-.465,2.522,2.522,0,0,1-.972-1.375c-.036-.119-.067-.24-.093-.359a3.707,3.707,0,0,1-.062-.413c-.01-.158-.026-.344-.031-.556s-.012-.47-.012-.77.006-.553.012-.767.021-.4.031-.556a3.638,3.638,0,0,1,.062-.414c.026-.121.057-.24.093-.359a2.482,2.482,0,0,1,.967-1.375,3.165,3.165,0,0,1,3.3,0,2.513,2.513,0,0,1,.973,1.375c.035.119.061.238.087.359a3.513,3.513,0,0,1,.063.414c.016.157.025.343.03.556s.012.47.012.767,0,.556-.012.77-.014.4-.03.556a3.578,3.578,0,0,1-.063.413c-.026.119-.052.241-.087.359a2.486,2.486,0,0,1-.967,1.375,2.88,2.88,0,0,1-1.654.465m0-1.189a1.373,1.373,0,0,0,.883-.264,1.443,1.443,0,0,0,.492-.736,1.757,1.757,0,0,0,.056-.235c.016-.088.026-.2.037-.336s.021-.3.026-.488.016-.419.016-.69-.006-.5-.016-.69-.016-.351-.026-.486-.021-.248-.037-.338a1.859,1.859,0,0,0-.056-.236,1.447,1.447,0,0,0-.492-.734,1.631,1.631,0,0,0-1.778,0,1.507,1.507,0,0,0-.485.734,1.778,1.778,0,0,0-.057.236,2.283,2.283,0,0,0-.046.338c-.012.135-.017.3-.021.486s-.005.421-.005.69,0,.5.005.69.009.354.021.488a2.212,2.212,0,0,0,.046.336,1.682,1.682,0,0,0,.057.235,1.5,1.5,0,0,0,.485.736,1.421,1.421,0,0,0,.895.264" transform="translate(-472.128 -239.508)" fill="#fff"/>
      <path id="Path_70" data-name="Path 70" d="M589.448,307.586c-.036-.119-.067-.24-.093-.359a4.006,4.006,0,0,1-.063-.413c-.009-.158-.025-.344-.03-.556s-.01-.47-.01-.77.005-.553.01-.768.021-.4.03-.555a3.9,3.9,0,0,1,.063-.414c.026-.121.057-.24.093-.359a2.479,2.479,0,0,1,.967-1.375,2.931,2.931,0,0,1,1.68-.465,3.078,3.078,0,0,1,.944.135,2.9,2.9,0,0,1,.755.354,2.141,2.141,0,0,1,.542.514,2.548,2.548,0,0,1,.336.612.113.113,0,0,1-.041.158l-.915.413a.1.1,0,0,1-.139-.054,2.036,2.036,0,0,0-.6-.7,1.546,1.546,0,0,0-.894-.24,1.426,1.426,0,0,0-.9.263,1.487,1.487,0,0,0-.492.734,1.982,1.982,0,0,0-.056.236,2.21,2.21,0,0,0-.047.338c-.01.134-.017.3-.022.486s0,.421,0,.69,0,.5,0,.69.011.354.022.488a2.144,2.144,0,0,0,.047.336,1.865,1.865,0,0,0,.056.235,1.482,1.482,0,0,0,.492.737,1.451,1.451,0,0,0,.909.264,1.543,1.543,0,0,0,.863-.243,1.268,1.268,0,0,0,.538-.711,3.424,3.424,0,0,0,.087-.422,4.475,4.475,0,0,0,.031-.565c0-.047-.021-.067-.068-.067h-1.22c-.073,0-.108-.039-.108-.114v-.9c0-.075.035-.111.108-.111h2.45q.109,0,.109.109v.662a8.871,8.871,0,0,1-.042.925,4.255,4.255,0,0,1-.128.749,2.515,2.515,0,0,1-.962,1.385,2.776,2.776,0,0,1-1.649.488,2.928,2.928,0,0,1-1.68-.465,2.515,2.515,0,0,1-.971-1.374" transform="translate(-477.077 -239.507)" fill="#fff"/>
      <path id="Path_71" data-name="Path 71" d="M605.508,309.389a.165.165,0,0,1-.166-.111l-1.42-2.974h-1.277c-.042,0-.062.023-.062.07l0,2.9c0,.075-.035.111-.108.111h-1.07c-.073,0-.108-.036-.108-.111l-.006-7.4a.1.1,0,0,1,.109-.111h2.862a2.561,2.561,0,0,1,.947.168,2.3,2.3,0,0,1,.744.465,2.074,2.074,0,0,1,.5.719,2.348,2.348,0,0,1,.181.925,2.228,2.228,0,0,1-.382,1.3,2.128,2.128,0,0,1-1.024.795l1.562,3.109a.092.092,0,0,1,.005.1.09.09,0,0,1-.083.044Zm-1.282-4.274a1.153,1.153,0,0,0,.822-.289,1.164,1.164,0,0,0,0-1.581,1.143,1.143,0,0,0-.822-.292h-1.581c-.042,0-.062.021-.062.067v2.028c0,.047.021.067.062.067Z" transform="translate(-482.186 -239.597)" fill="#fff"/>
      <path id="Path_72" data-name="Path 72" d="M614.279,301.874a.134.134,0,0,1,.139-.111h1a.143.143,0,0,1,.145.111l2.507,7.4c.025.075,0,.111-.073.111h-1.07a.134.134,0,0,1-.139-.111l-.5-1.481H613.5l-.481,1.481a.143.143,0,0,1-.144.111h-1.054c-.073,0-.1-.036-.078-.111Zm1.623,4.744-.982-2.961h-.031l-.992,2.961Z" transform="translate(-486.616 -239.597)" fill="#fff"/>
      <path id="Path_73" data-name="Path 73" d="M624.3,301.872c0-.075.036-.111.108-.111h.973a.175.175,0,0,1,.185.109l2.036,4.7h.042l2.005-4.7a.172.172,0,0,1,.185-.111h.956a.1.1,0,0,1,.109.111l.005,7.4a.1.1,0,0,1-.109.111h-.944a.1.1,0,0,1-.109-.111l-.006-4.666h-.046l-1.565,3.589a.208.208,0,0,1-.2.145h-.636a.23.23,0,0,1-.213-.145l-1.564-3.589h-.043l.006,4.666a.1.1,0,0,1-.113.114h-.947c-.072,0-.108-.036-.108-.111Z" transform="translate(-491.944 -239.595)" fill="#fff"/>
      <path id="Path_74" data-name="Path 74" d="M638.407,301.87c0-.075.036-.111.108-.111h.973a.179.179,0,0,1,.185.111l2.036,4.7h.043l2-4.7a.172.172,0,0,1,.185-.111h.956a.1.1,0,0,1,.109.111l.006,7.4a.1.1,0,0,1-.109.112h-.945a.1.1,0,0,1-.109-.112l-.005-4.666H643.8l-1.565,3.589a.208.208,0,0,1-.2.145h-.636a.229.229,0,0,1-.212-.145l-1.565-3.589h-.043l.006,4.666c0,.075-.036.112-.114.112h-.946c-.073,0-.108-.036-.108-.112Z" transform="translate(-497.928 -239.595)" fill="#fff"/>
      <path id="Path_75" data-name="Path 75" d="M652.517,301.868c0-.075.036-.111.108-.111l1.07,0c.073,0,.108.036.108.111l.006,7.4a.1.1,0,0,1-.108.111l-1.07,0c-.073,0-.108-.036-.108-.112Z" transform="translate(-503.913 -239.593)" fill="#fff"/>
      <path id="Path_76" data-name="Path 76" d="M657.4,301.865c0-.075.036-.111.108-.111h1a.211.211,0,0,1,.186.111l3.017,5.261h.041v-5.261a.1.1,0,0,1,.109-.111h.945a.1.1,0,0,1,.115.111l.005,7.4a.1.1,0,0,1-.115.111h-.987a.2.2,0,0,1-.186-.111l-3.032-5.25h-.043l.006,5.25c0,.075-.036.111-.113.111h-.947c-.072,0-.108-.036-.108-.111Z" transform="translate(-505.984 -239.593)" fill="#fff"/>
      <path id="Path_77" data-name="Path 77" d="M669.451,307.572c-.036-.119-.067-.24-.093-.359a3.951,3.951,0,0,1-.063-.413c-.009-.157-.025-.343-.03-.556s-.011-.47-.011-.77.006-.553.011-.768.021-.4.03-.555a3.86,3.86,0,0,1,.063-.413c.026-.121.057-.241.093-.359a2.475,2.475,0,0,1,.966-1.374,2.928,2.928,0,0,1,1.68-.465,3.081,3.081,0,0,1,.945.134,2.9,2.9,0,0,1,.755.354,2.141,2.141,0,0,1,.542.514,2.541,2.541,0,0,1,.336.613.112.112,0,0,1-.04.157l-.915.413a.1.1,0,0,1-.139-.054,2.05,2.05,0,0,0-.6-.7,1.549,1.549,0,0,0-.895-.24,1.425,1.425,0,0,0-.9.264,1.48,1.48,0,0,0-.492.734,2.11,2.11,0,0,0-.056.236,2.3,2.3,0,0,0-.046.338c-.011.135-.017.3-.022.486s0,.422,0,.69,0,.5,0,.69.011.354.022.488a2.219,2.219,0,0,0,.046.336,1.981,1.981,0,0,0,.056.235,1.476,1.476,0,0,0,.492.736,1.446,1.446,0,0,0,.909.264,1.543,1.543,0,0,0,.863-.243,1.273,1.273,0,0,0,.538-.711,3.41,3.41,0,0,0,.088-.421,4.491,4.491,0,0,0,.031-.566c0-.047-.022-.067-.068-.067h-1.22c-.073,0-.108-.039-.108-.113v-.9c0-.075.035-.111.108-.111h2.45a.1.1,0,0,1,.109.111v.661a8.873,8.873,0,0,1-.043.925,4.29,4.29,0,0,1-.128.747,2.512,2.512,0,0,1-.962,1.385,2.773,2.773,0,0,1-1.649.488,2.928,2.928,0,0,1-1.68-.465,2.515,2.515,0,0,1-.971-1.374" transform="translate(-511.013 -239.502)" fill="#fff"/>
      <path id="Path_78" data-name="Path 78" d="M685.356,307.366a2.315,2.315,0,0,1,.31-1.155,4.3,4.3,0,0,1,1.1-1.178c-.155-.2-.284-.38-.388-.532a3.175,3.175,0,0,1-.258-.432,1.869,1.869,0,0,1-.139-.388,1.63,1.63,0,0,1-.047-.4,1.736,1.736,0,0,1,.145-.7,1.626,1.626,0,0,1,.392-.556,1.706,1.706,0,0,1,.59-.365,1.983,1.983,0,0,1,.718-.129,1.922,1.922,0,0,1,.739.139,1.78,1.78,0,0,1,.573.378,1.71,1.71,0,0,1,.492,1.2,1.613,1.613,0,0,1-.28.948,3.452,3.452,0,0,1-.4.475,6.591,6.591,0,0,1-.605.527l1.153,1.524.738-.907a.1.1,0,0,1,.156-.01l.6.527a.1.1,0,0,1,.021.155l-.868,1.088.257.339a.6.6,0,0,0,.213.188.5.5,0,0,0,.238.058h.165a.1.1,0,0,1,.108.111v.9c0,.075-.036.111-.108.111h-.357a1.8,1.8,0,0,1-.332-.029.78.78,0,0,1-.258-.1,1.258,1.258,0,0,1-.243-.178,2.429,2.429,0,0,1-.247-.292l-.187-.236a3.266,3.266,0,0,1-.914.729,2.227,2.227,0,0,1-1.012.225,2.447,2.447,0,0,1-.9-.153,1.694,1.694,0,0,1-.641-.426,1.841,1.841,0,0,1-.388-.648,2.326,2.326,0,0,1-.134-.814m1.131-.067a1.019,1.019,0,0,0,.269.739.987.987,0,0,0,.75.282,1.155,1.155,0,0,0,.573-.153,3.076,3.076,0,0,0,.632-.556l-1.309-1.726a2.823,2.823,0,0,0-.722.762,1.3,1.3,0,0,0-.192.651m1.164-2.951a4.523,4.523,0,0,0,.423-.359,1.98,1.98,0,0,0,.243-.279.78.78,0,0,0,.119-.236.873.873,0,0,0,.032-.235.653.653,0,0,0-.191-.478.68.68,0,0,0-.492-.2.688.688,0,0,0-.51.2.649.649,0,0,0-.2.488.786.786,0,0,0,.021.191.9.9,0,0,0,.083.207,3.09,3.09,0,0,0,.17.287c.077.111.181.25.3.413" transform="translate(-517.843 -239.5)" fill="#fff"/>
      <path id="Path_79" data-name="Path 79" d="M701.878,301.861a.1.1,0,0,1,.108-.111h2.646a2.321,2.321,0,0,1,2.475,1.69c.026.1.051.2.073.307s.041.243.062.4.031.348.036.576.01.506.01.835,0,.607-.01.837-.021.419-.036.576-.036.29-.062.4-.047.212-.073.31a2.321,2.321,0,0,1-2.47,1.7h-2.646a.1.1,0,0,1-.109-.112Zm1.287,6.258c0,.044.02.067.061.067h1.1a1.93,1.93,0,0,0,1-.225,1.256,1.256,0,0,0,.538-.742.8.8,0,0,0,.056-.2,2.822,2.822,0,0,0,.037-.3c.009-.123.02-.279.03-.467s.011-.419.011-.7-.006-.507-.011-.7-.021-.344-.03-.47a2.511,2.511,0,0,0-.037-.3.777.777,0,0,0-.056-.191,1.244,1.244,0,0,0-.538-.737,1.936,1.936,0,0,0-1-.225h-1.1c-.041,0-.061.021-.061.067Z" transform="translate(-524.852 -239.591)" fill="#fff"/>
      <path id="Path_80" data-name="Path 80" d="M717.722,309.37a.164.164,0,0,1-.166-.111l-1.42-2.974h-1.277c-.041,0-.062.024-.062.07l0,2.9c0,.075-.036.111-.108.111h-1.071c-.072,0-.108-.036-.108-.111l-.005-7.4a.1.1,0,0,1,.109-.111h2.862a2.556,2.556,0,0,1,.946.168,2.3,2.3,0,0,1,.745.465,2.078,2.078,0,0,1,.5.719,2.355,2.355,0,0,1,.181.925,2.228,2.228,0,0,1-.382,1.3,2.139,2.139,0,0,1-1.024.8l1.56,3.109a.092.092,0,0,1,.006.1.09.09,0,0,1-.084.044ZM716.44,305.1a1.154,1.154,0,0,0,.822-.289,1.163,1.163,0,0,0,0-1.582,1.143,1.143,0,0,0-.822-.292h-1.581c-.041,0-.062.021-.062.067v2.028c0,.047.021.067.062.067Z" transform="translate(-529.786 -239.589)" fill="#fff"/>
      <path id="Path_81" data-name="Path 81" d="M727.473,309.4a2.872,2.872,0,0,1-1.648-.465,2.519,2.519,0,0,1-.972-1.374c-.036-.119-.067-.24-.093-.359a3.581,3.581,0,0,1-.062-.413c-.01-.158-.026-.344-.031-.556s-.011-.47-.011-.77.005-.553.011-.767.021-.4.031-.556a3.518,3.518,0,0,1,.062-.414c.026-.121.057-.24.093-.359a2.478,2.478,0,0,1,.967-1.374,3.161,3.161,0,0,1,3.3,0,2.509,2.509,0,0,1,.973,1.374c.035.119.061.238.087.359a3.6,3.6,0,0,1,.063.414c.016.157.025.343.03.556s.011.47.011.767,0,.556-.011.77-.014.4-.03.556a3.67,3.67,0,0,1-.063.413c-.026.119-.052.241-.087.359a2.488,2.488,0,0,1-.967,1.374,2.88,2.88,0,0,1-1.654.465m0-1.188a1.373,1.373,0,0,0,.883-.264,1.443,1.443,0,0,0,.492-.736,1.776,1.776,0,0,0,.056-.235c.017-.088.026-.2.037-.336s.021-.3.026-.488.015-.419.015-.69-.005-.5-.015-.69-.016-.351-.026-.485-.02-.249-.037-.339a1.879,1.879,0,0,0-.056-.236,1.446,1.446,0,0,0-.492-.734,1.631,1.631,0,0,0-1.778,0,1.507,1.507,0,0,0-.485.734,1.749,1.749,0,0,0-.057.236,2.3,2.3,0,0,0-.046.339c-.011.134-.017.3-.021.485s-.005.421-.005.69,0,.5.005.69.009.354.021.488a2.227,2.227,0,0,0,.046.336,1.658,1.658,0,0,0,.057.235,1.5,1.5,0,0,0,.485.736,1.421,1.421,0,0,0,.895.264" transform="translate(-534.514 -239.498)" fill="#fff"/>
      <path id="Path_82" data-name="Path 82" d="M736.7,301.852c0-.075.036-.111.108-.111h1a.211.211,0,0,1,.186.111l3.018,5.261h.04v-5.261a.1.1,0,0,1,.109-.111h.945a.1.1,0,0,1,.114.111l.006,7.4a.1.1,0,0,1-.115.111h-.987a.2.2,0,0,1-.185-.111L737.91,304h-.042l.006,5.251c0,.075-.036.111-.113.111h-.947c-.073,0-.108-.036-.108-.111Z" transform="translate(-539.623 -239.587)" fill="#fff"/>
      <path id="Path_83" data-name="Path 83" d="M748.943,301.852c0-.075.036-.111.108-.111h4.641a.1.1,0,0,1,.109.111v.964c0,.075-.036.114-.109.114h-3.4c-.041,0-.063.02-.063.067v1.86c0,.047.022.067.063.067h2.868a.1.1,0,0,1,.109.113V306a.1.1,0,0,1-.109.111h-2.868c-.041,0-.063.023-.063.067v1.93c0,.044.022.067.063.067h3.4a.1.1,0,0,1,.113.112v.966c0,.075-.036.111-.108.111h-4.642c-.073,0-.108-.036-.108-.111Z" transform="translate(-544.816 -239.587)" fill="#fff"/>
      <path id="Path_84" data-name="Path 84" d="M761.548,309.394a3.824,3.824,0,0,1-.806-.078,4.549,4.549,0,0,1-.744-.211,3.93,3.93,0,0,1-.656-.321,3.025,3.025,0,0,1-.517-.4.117.117,0,0,1-.022-.168l.672-.806a.087.087,0,0,1,.15-.013,4.524,4.524,0,0,0,.4.291,3.358,3.358,0,0,0,1.023.442,2.363,2.363,0,0,0,.6.073,1.514,1.514,0,0,0,1.023-.31.99.99,0,0,0,.367-.791.865.865,0,0,0-.3-.677,2.076,2.076,0,0,0-1.06-.377L761.3,306a3.051,3.051,0,0,1-1.659-.69,1.929,1.929,0,0,1-.574-1.486,2.515,2.515,0,0,1,.17-.943,2.068,2.068,0,0,1,.5-.729,2.22,2.22,0,0,1,.791-.465,3.172,3.172,0,0,1,1.038-.165,4.189,4.189,0,0,1,1.323.207,3.56,3.56,0,0,1,1.075.555.112.112,0,0,1,.022.158l-.523.83a.1.1,0,0,1-.154.033,3.929,3.929,0,0,0-.879-.45,2.79,2.79,0,0,0-.893-.145,1.224,1.224,0,0,0-.868.29.979.979,0,0,0-.3.734.839.839,0,0,0,.306.656,2.13,2.13,0,0,0,1.058.372l.393.057a2.985,2.985,0,0,1,1.644.69,1.984,1.984,0,0,1,.568,1.519,2.575,2.575,0,0,1-.177.943,1.962,1.962,0,0,1-.521.75,2.607,2.607,0,0,1-.878.493,3.671,3.671,0,0,1-1.21.181" transform="translate(-548.987 -239.494)" fill="#fff"/>
      <path id="Path_85" data-name="Path 85" d="M469.628,311.987a.4.4,0,0,1-.132.783,4.9,4.9,0,0,1-.587-.037l-10.879-1.344a.405.405,0,0,0-.335.116l-1.464,1.466a.4.4,0,0,1-.506.054c-.521-.341-1.041-.7-1.553-1.067a40.853,40.853,0,0,1-3.72-3.012.4.4,0,0,1,.446-.66,21.758,21.758,0,0,0,5.428,1.516h0c3.385.559,7,.711,10.119,1.335a24.754,24.754,0,0,1,3.183.849" transform="translate(-418.144 -242.347)" fill="#fff"/>
      <path id="Path_86" data-name="Path 86" d="M459.379,292.9a.586.586,0,0,1-.605.969l-.036-.012a15.9,15.9,0,0,0-2.229-.537c-1.179-.206-2.545-.354-4.176-.5-7.139-.625-13.455-.557-19.672-2.714l-.036-.013a10.139,10.139,0,0,1-5.193-4.126l-.212-.331h0l-3-4.677a.587.587,0,0,1,.656-.88q.808.229,1.639.432c4.425,1.085,9.256,1.687,14.026,2.851,7.929,1.938,13.362,4.8,17.179,8.022q.869.732,1.63,1.488l.024.024" transform="translate(-407.035 -230.389)" fill="#00b1bf"/>
      <path id="Path_87" data-name="Path 87" d="M454.71,265.682a.393.393,0,0,1-.576.519,21.055,21.055,0,0,0-6.258-3.2c-10.129-3.443-27.148-5.019-40.342-13.322a34.112,34.112,0,0,1-4-2.832,12.9,12.9,0,0,1-1.351-1.493,83.26,83.26,0,0,1-6.97-10.877,6.864,6.864,0,0,1-.752-3.223.393.393,0,0,1,.66-.237q.746.7,1.529,1.349c8.667,7.176,20.681,9.779,34.282,15.734,15.371,6.732,19.8,11.3,23.777,17.581" transform="translate(-394.442 -209.542)" fill="#fff"/>
      <path id="Path_88" data-name="Path 88" d="M457.95,246.708a.376.376,0,0,1-.632.395c-2.431-2.976-5.585-5.179-10.051-7.567-16.408-8.77-34.395-10.731-47.592-24.6-.163-.17-.326-.344-.487-.519a1.358,1.358,0,0,1,.367-2.129,4.756,4.756,0,0,1,2.166-.519h.126l1.964.052a7.852,7.852,0,0,0,3.2-.589.376.376,0,0,0,.164-.564l-.592-.841a4.762,4.762,0,0,1-.524-.966,1.2,1.2,0,0,1,1.789-1.448l.07.046c12.966,8.713,27.668,14.918,39.506,25.4a40.873,40.873,0,0,1,10.532,13.854" transform="translate(-396.301 -199.484)" fill="#00b1bf"/>
      <path id="Path_89" data-name="Path 89" d="M484.826,252.774l-13.581,3.431a1.364,1.364,0,0,1-1.61-1.806l.012-.031c.725-1.908,1.593-3.89,2.5-5.979,3.6-8.33-.132-13.814-5.006-19.028-11.6-12.419-29.126-21.4-43.5-31.723a1.379,1.379,0,0,1,.353-2.422l3.316-1.15a4.778,4.778,0,0,1,4.135.485l19.319,12.307a1.374,1.374,0,0,0,.574.2l8.361.992a4.779,4.779,0,0,1,3.324,1.965l15.631,21.043a1.365,1.365,0,0,0,.979.546l8.654.751c.068.006.135.014.2.022a1.365,1.365,0,0,1,1.064.81,18.821,18.821,0,0,1,1.627,6.669c.253,4.972-2.166,9.4-5.781,12.616a1.344,1.344,0,0,1-.567.3" transform="translate(-406.582 -193.801)" fill="#fff"/>
    </g>
  </g>
</svg>
