<svg xmlns="http://www.w3.org/2000/svg" width="335.377" height="691.386" viewBox="0 0 335.377 691.386">
  <g id="Pattern_2" data-name="Pattern 2" transform="translate(2.084 -2716.431)" opacity="0.699">
    <g id="logo" transform="translate(-2.063 2716.445)" opacity="0.333">
      <path id="Path_700" data-name="Path 700" d="M398.313,309.542a5.546,5.546,0,0,0,4.112-5.333v-.014a5.515,5.515,0,0,0-5.515-5.515H396.9a5.544,5.544,0,0,0-5.332,4.112,15.47,15.47,0,0,1-29.823,0,5.544,5.544,0,0,0-5.332-4.112h-.014a5.515,5.515,0,0,0-5.515,5.515v.014a5.546,5.546,0,0,0,4.112,5.333,15.468,15.468,0,0,1,0,29.821,5.544,5.544,0,0,0-4.112,5.332v.012a5.513,5.513,0,0,0,5.515,5.513h.014a5.544,5.544,0,0,0,5.332-4.11,15.47,15.47,0,0,1,29.823,0,5.544,5.544,0,0,0,5.332,4.11h.014a5.515,5.515,0,0,0,5.515-5.513v-.016a5.544,5.544,0,0,0-4.112-5.332,15.468,15.468,0,0,1,0-29.821Z" transform="translate(-342.485 -290.279)" fill="#c6c6c6"/>
      <path id="Path_701" data-name="Path 701" d="M342.247,253.252h0a1.21,1.21,0,0,0,1.383.228,11.007,11.007,0,0,1,12.54,2.1,1.224,1.224,0,0,0,1.7.038,1.2,1.2,0,0,0,.021-1.716,13.413,13.413,0,0,0-15.323-2.573,1.2,1.2,0,0,0-.316,1.922Z" transform="translate(-335.053 -250)" fill="#c6c6c6"/>
      <path id="Path_702" data-name="Path 702" d="M303.532,290.332a13.411,13.411,0,0,0,2.525,15.3,1.23,1.23,0,0,0,1.612.15,1.2,1.2,0,0,0,.124-1.806,11.007,11.007,0,0,1-2.115-12.566,1.21,1.21,0,0,0-.226-1.383h0a1.2,1.2,0,0,0-1.92.308Z" transform="translate(-302.202 -282.828)" fill="#c6c6c6"/>
      <path id="Path_703" data-name="Path 703" d="M578.182,613.617a11.007,11.007,0,0,1-12.544-2.1,1.2,1.2,0,1,0-1.713,1.689,13.41,13.41,0,0,0,15.323,2.572,1.2,1.2,0,0,0,.311-1.922h0A1.21,1.21,0,0,0,578.182,613.617Z" transform="translate(-518.418 -548.749)" fill="#c6c6c6"/>
      <path id="Path_704" data-name="Path 704" d="M663.674,511.783a1.222,1.222,0,0,0,.038,1.69,11,11,0,0,1,2.1,12.559,1.21,1.21,0,0,0,.228,1.383h0a1.2,1.2,0,0,0,1.922-.311,13.413,13.413,0,0,0-2.566-15.333,1.2,1.2,0,0,0-1.72.012Z" transform="translate(-600.954 -466.246)" fill="#c6c6c6"/>
      <path id="Path_705" data-name="Path 705" d="M665.814,291.386a11.009,11.009,0,0,1-2.1,12.549,1.222,1.222,0,0,0-.038,1.69,1.2,1.2,0,0,0,1.718.022,13.41,13.41,0,0,0,2.566-15.328,1.2,1.2,0,0,0-1.922-.311h0A1.21,1.21,0,0,0,665.814,291.386Z" transform="translate(-600.954 -282.814)" fill="#c6c6c6"/>
      <path id="Path_706" data-name="Path 706" d="M565.667,255.583a11.008,11.008,0,0,1,12.549-2.1,1.21,1.21,0,0,0,1.383-.228h0a1.2,1.2,0,0,0-.311-1.922,13.41,13.41,0,0,0-15.328,2.57,1.2,1.2,0,0,0,.022,1.718A1.218,1.218,0,0,0,565.667,255.583Z" transform="translate(-518.447 -250)" fill="#c6c6c6"/>
      <path id="Path_707" data-name="Path 707" d="M356.111,611.511a11.008,11.008,0,0,1-12.549,2.1,1.21,1.21,0,0,0-1.383.228h0a1.2,1.2,0,0,0,.311,1.922,13.412,13.412,0,0,0,15.333-2.563,1.2,1.2,0,1,0-1.713-1.687Z" transform="translate(-334.995 -548.744)" fill="#c6c6c6"/>
      <path id="Path_708" data-name="Path 708" d="M305.675,525.974a11.007,11.007,0,0,1,2.1-12.547,1.222,1.222,0,0,0,.038-1.69,1.2,1.2,0,0,0-1.728-.022,13.406,13.406,0,0,0-2.556,15.326,1.2,1.2,0,0,0,1.922.311h0A1.21,1.21,0,0,0,305.675,525.974Z" transform="translate(-302.2 -466.199)" fill="#c6c6c6"/>
    </g>
    <g id="logo-2" data-name="logo" transform="translate(86.938 2716.445)" opacity="0.333">
      <path id="Path_700-2" data-name="Path 700" d="M398.313,309.542a5.546,5.546,0,0,0,4.112-5.333v-.014a5.515,5.515,0,0,0-5.515-5.515H396.9a5.544,5.544,0,0,0-5.332,4.112,15.47,15.47,0,0,1-29.823,0,5.544,5.544,0,0,0-5.332-4.112h-.014a5.515,5.515,0,0,0-5.515,5.515v.014a5.546,5.546,0,0,0,4.112,5.333,15.468,15.468,0,0,1,0,29.821,5.544,5.544,0,0,0-4.112,5.332v.012a5.513,5.513,0,0,0,5.515,5.513h.014a5.544,5.544,0,0,0,5.332-4.11,15.47,15.47,0,0,1,29.823,0,5.544,5.544,0,0,0,5.332,4.11h.014a5.515,5.515,0,0,0,5.515-5.513v-.016a5.544,5.544,0,0,0-4.112-5.332,15.468,15.468,0,0,1,0-29.821Z" transform="translate(-342.485 -290.279)" fill="#c6c6c6"/>
      <path id="Path_701-2" data-name="Path 701" d="M342.247,253.252h0a1.21,1.21,0,0,0,1.383.228,11.007,11.007,0,0,1,12.54,2.1,1.224,1.224,0,0,0,1.7.038,1.2,1.2,0,0,0,.021-1.716,13.413,13.413,0,0,0-15.323-2.573,1.2,1.2,0,0,0-.316,1.922Z" transform="translate(-335.053 -250)" fill="#c6c6c6"/>
      <path id="Path_702-2" data-name="Path 702" d="M303.532,290.332a13.411,13.411,0,0,0,2.525,15.3,1.23,1.23,0,0,0,1.612.15,1.2,1.2,0,0,0,.124-1.806,11.007,11.007,0,0,1-2.115-12.566,1.21,1.21,0,0,0-.226-1.383h0a1.2,1.2,0,0,0-1.92.308Z" transform="translate(-302.202 -282.828)" fill="#c6c6c6"/>
      <path id="Path_703-2" data-name="Path 703" d="M578.182,613.617a11.007,11.007,0,0,1-12.544-2.1,1.2,1.2,0,1,0-1.713,1.689,13.41,13.41,0,0,0,15.323,2.572,1.2,1.2,0,0,0,.311-1.922h0A1.21,1.21,0,0,0,578.182,613.617Z" transform="translate(-518.418 -548.749)" fill="#c6c6c6"/>
      <path id="Path_704-2" data-name="Path 704" d="M663.674,511.783a1.222,1.222,0,0,0,.038,1.69,11,11,0,0,1,2.1,12.559,1.21,1.21,0,0,0,.228,1.383h0a1.2,1.2,0,0,0,1.922-.311,13.413,13.413,0,0,0-2.566-15.333,1.2,1.2,0,0,0-1.72.012Z" transform="translate(-600.954 -466.246)" fill="#c6c6c6"/>
      <path id="Path_705-2" data-name="Path 705" d="M665.814,291.386a11.009,11.009,0,0,1-2.1,12.549,1.222,1.222,0,0,0-.038,1.69,1.2,1.2,0,0,0,1.718.022,13.41,13.41,0,0,0,2.566-15.328,1.2,1.2,0,0,0-1.922-.311h0A1.21,1.21,0,0,0,665.814,291.386Z" transform="translate(-600.954 -282.814)" fill="#c6c6c6"/>
      <path id="Path_706-2" data-name="Path 706" d="M565.667,255.583a11.008,11.008,0,0,1,12.549-2.1,1.21,1.21,0,0,0,1.383-.228h0a1.2,1.2,0,0,0-.311-1.922,13.41,13.41,0,0,0-15.328,2.57,1.2,1.2,0,0,0,.022,1.718A1.218,1.218,0,0,0,565.667,255.583Z" transform="translate(-518.447 -250)" fill="#c6c6c6"/>
      <path id="Path_707-2" data-name="Path 707" d="M356.111,611.511a11.008,11.008,0,0,1-12.549,2.1,1.21,1.21,0,0,0-1.383.228h0a1.2,1.2,0,0,0,.311,1.922,13.412,13.412,0,0,0,15.333-2.563,1.2,1.2,0,1,0-1.713-1.687Z" transform="translate(-334.995 -548.744)" fill="#c6c6c6"/>
      <path id="Path_708-2" data-name="Path 708" d="M305.675,525.974a11.007,11.007,0,0,1,2.1-12.547,1.222,1.222,0,0,0,.038-1.69,1.2,1.2,0,0,0-1.728-.022,13.406,13.406,0,0,0-2.556,15.326,1.2,1.2,0,0,0,1.922.311h0A1.21,1.21,0,0,0,305.675,525.974Z" transform="translate(-302.2 -466.199)" fill="#c6c6c6"/>
    </g>
    <g id="logo-3" data-name="logo" transform="translate(175.938 2716.445)" opacity="0.333">
      <path id="Path_700-3" data-name="Path 700" d="M398.313,309.542a5.546,5.546,0,0,0,4.112-5.333v-.014a5.515,5.515,0,0,0-5.515-5.515H396.9a5.544,5.544,0,0,0-5.332,4.112,15.47,15.47,0,0,1-29.823,0,5.544,5.544,0,0,0-5.332-4.112h-.014a5.515,5.515,0,0,0-5.515,5.515v.014a5.546,5.546,0,0,0,4.112,5.333,15.468,15.468,0,0,1,0,29.821,5.544,5.544,0,0,0-4.112,5.332v.012a5.513,5.513,0,0,0,5.515,5.513h.014a5.544,5.544,0,0,0,5.332-4.11,15.47,15.47,0,0,1,29.823,0,5.544,5.544,0,0,0,5.332,4.11h.014a5.515,5.515,0,0,0,5.515-5.513v-.016a5.544,5.544,0,0,0-4.112-5.332,15.468,15.468,0,0,1,0-29.821Z" transform="translate(-342.485 -290.279)" fill="#c6c6c6"/>
      <path id="Path_701-3" data-name="Path 701" d="M342.247,253.252h0a1.21,1.21,0,0,0,1.383.228,11.007,11.007,0,0,1,12.54,2.1,1.224,1.224,0,0,0,1.7.038,1.2,1.2,0,0,0,.021-1.716,13.413,13.413,0,0,0-15.323-2.573,1.2,1.2,0,0,0-.316,1.922Z" transform="translate(-335.053 -250)" fill="#c6c6c6"/>
      <path id="Path_702-3" data-name="Path 702" d="M303.532,290.332a13.411,13.411,0,0,0,2.525,15.3,1.23,1.23,0,0,0,1.612.15,1.2,1.2,0,0,0,.124-1.806,11.007,11.007,0,0,1-2.115-12.566,1.21,1.21,0,0,0-.226-1.383h0a1.2,1.2,0,0,0-1.92.308Z" transform="translate(-302.202 -282.828)" fill="#c6c6c6"/>
      <path id="Path_703-3" data-name="Path 703" d="M578.182,613.617a11.007,11.007,0,0,1-12.544-2.1,1.2,1.2,0,1,0-1.713,1.689,13.41,13.41,0,0,0,15.323,2.572,1.2,1.2,0,0,0,.311-1.922h0A1.21,1.21,0,0,0,578.182,613.617Z" transform="translate(-518.418 -548.749)" fill="#c6c6c6"/>
      <path id="Path_704-3" data-name="Path 704" d="M663.674,511.783a1.222,1.222,0,0,0,.038,1.69,11,11,0,0,1,2.1,12.559,1.21,1.21,0,0,0,.228,1.383h0a1.2,1.2,0,0,0,1.922-.311,13.413,13.413,0,0,0-2.566-15.333,1.2,1.2,0,0,0-1.72.012Z" transform="translate(-600.954 -466.246)" fill="#c6c6c6"/>
      <path id="Path_705-3" data-name="Path 705" d="M665.814,291.386a11.009,11.009,0,0,1-2.1,12.549,1.222,1.222,0,0,0-.038,1.69,1.2,1.2,0,0,0,1.718.022,13.41,13.41,0,0,0,2.566-15.328,1.2,1.2,0,0,0-1.922-.311h0A1.21,1.21,0,0,0,665.814,291.386Z" transform="translate(-600.954 -282.814)" fill="#c6c6c6"/>
      <path id="Path_706-3" data-name="Path 706" d="M565.667,255.583a11.008,11.008,0,0,1,12.549-2.1,1.21,1.21,0,0,0,1.383-.228h0a1.2,1.2,0,0,0-.311-1.922,13.41,13.41,0,0,0-15.328,2.57,1.2,1.2,0,0,0,.022,1.718A1.218,1.218,0,0,0,565.667,255.583Z" transform="translate(-518.447 -250)" fill="#c6c6c6"/>
      <path id="Path_707-3" data-name="Path 707" d="M356.111,611.511a11.008,11.008,0,0,1-12.549,2.1,1.21,1.21,0,0,0-1.383.228h0a1.2,1.2,0,0,0,.311,1.922,13.412,13.412,0,0,0,15.333-2.563,1.2,1.2,0,1,0-1.713-1.687Z" transform="translate(-334.995 -548.744)" fill="#c6c6c6"/>
      <path id="Path_708-3" data-name="Path 708" d="M305.675,525.974a11.007,11.007,0,0,1,2.1-12.547,1.222,1.222,0,0,0,.038-1.69,1.2,1.2,0,0,0-1.728-.022,13.406,13.406,0,0,0-2.556,15.326,1.2,1.2,0,0,0,1.922.311h0A1.21,1.21,0,0,0,305.675,525.974Z" transform="translate(-302.2 -466.199)" fill="#c6c6c6"/>
    </g>
    <g id="logo-4" data-name="logo" transform="translate(264.938 2716.445)" opacity="0.333">
      <path id="Path_700-4" data-name="Path 700" d="M398.313,309.542a5.546,5.546,0,0,0,4.112-5.333v-.014a5.515,5.515,0,0,0-5.515-5.515H396.9a5.544,5.544,0,0,0-5.332,4.112,15.47,15.47,0,0,1-29.823,0,5.544,5.544,0,0,0-5.332-4.112h-.014a5.515,5.515,0,0,0-5.515,5.515v.014a5.546,5.546,0,0,0,4.112,5.333,15.468,15.468,0,0,1,0,29.821,5.544,5.544,0,0,0-4.112,5.332v.012a5.513,5.513,0,0,0,5.515,5.513h.014a5.544,5.544,0,0,0,5.332-4.11,15.47,15.47,0,0,1,29.823,0,5.544,5.544,0,0,0,5.332,4.11h.014a5.515,5.515,0,0,0,5.515-5.513v-.016a5.544,5.544,0,0,0-4.112-5.332,15.468,15.468,0,0,1,0-29.821Z" transform="translate(-342.485 -290.279)" fill="#c6c6c6"/>
      <path id="Path_701-4" data-name="Path 701" d="M342.247,253.252h0a1.21,1.21,0,0,0,1.383.228,11.007,11.007,0,0,1,12.54,2.1,1.224,1.224,0,0,0,1.7.038,1.2,1.2,0,0,0,.021-1.716,13.413,13.413,0,0,0-15.323-2.573,1.2,1.2,0,0,0-.316,1.922Z" transform="translate(-335.053 -250)" fill="#c6c6c6"/>
      <path id="Path_702-4" data-name="Path 702" d="M303.532,290.332a13.411,13.411,0,0,0,2.525,15.3,1.23,1.23,0,0,0,1.612.15,1.2,1.2,0,0,0,.124-1.806,11.007,11.007,0,0,1-2.115-12.566,1.21,1.21,0,0,0-.226-1.383h0a1.2,1.2,0,0,0-1.92.308Z" transform="translate(-302.202 -282.828)" fill="#c6c6c6"/>
      <path id="Path_703-4" data-name="Path 703" d="M578.182,613.617a11.007,11.007,0,0,1-12.544-2.1,1.2,1.2,0,1,0-1.713,1.689,13.41,13.41,0,0,0,15.323,2.572,1.2,1.2,0,0,0,.311-1.922h0A1.21,1.21,0,0,0,578.182,613.617Z" transform="translate(-518.418 -548.749)" fill="#c6c6c6"/>
      <path id="Path_704-4" data-name="Path 704" d="M663.674,511.783a1.222,1.222,0,0,0,.038,1.69,11,11,0,0,1,2.1,12.559,1.21,1.21,0,0,0,.228,1.383h0a1.2,1.2,0,0,0,1.922-.311,13.413,13.413,0,0,0-2.566-15.333,1.2,1.2,0,0,0-1.72.012Z" transform="translate(-600.954 -466.246)" fill="#c6c6c6"/>
      <path id="Path_705-4" data-name="Path 705" d="M665.814,291.386a11.009,11.009,0,0,1-2.1,12.549,1.222,1.222,0,0,0-.038,1.69,1.2,1.2,0,0,0,1.718.022,13.41,13.41,0,0,0,2.566-15.328,1.2,1.2,0,0,0-1.922-.311h0A1.21,1.21,0,0,0,665.814,291.386Z" transform="translate(-600.954 -282.814)" fill="#c6c6c6"/>
      <path id="Path_706-4" data-name="Path 706" d="M565.667,255.583a11.008,11.008,0,0,1,12.549-2.1,1.21,1.21,0,0,0,1.383-.228h0a1.2,1.2,0,0,0-.311-1.922,13.41,13.41,0,0,0-15.328,2.57,1.2,1.2,0,0,0,.022,1.718A1.218,1.218,0,0,0,565.667,255.583Z" transform="translate(-518.447 -250)" fill="#c6c6c6"/>
      <path id="Path_707-4" data-name="Path 707" d="M356.111,611.511a11.008,11.008,0,0,1-12.549,2.1,1.21,1.21,0,0,0-1.383.228h0a1.2,1.2,0,0,0,.311,1.922,13.412,13.412,0,0,0,15.333-2.563,1.2,1.2,0,1,0-1.713-1.687Z" transform="translate(-334.995 -548.744)" fill="#c6c6c6"/>
      <path id="Path_708-4" data-name="Path 708" d="M305.675,525.974a11.007,11.007,0,0,1,2.1-12.547,1.222,1.222,0,0,0,.038-1.69,1.2,1.2,0,0,0-1.728-.022,13.406,13.406,0,0,0-2.556,15.326,1.2,1.2,0,0,0,1.922.311h0A1.21,1.21,0,0,0,305.675,525.974Z" transform="translate(-302.2 -466.199)" fill="#c6c6c6"/>
    </g>
    <g id="logo-5" data-name="logo" transform="translate(-2.063 2805.445)" opacity="0.333">
      <path id="Path_700-5" data-name="Path 700" d="M398.313,309.542a5.546,5.546,0,0,0,4.112-5.333v-.014a5.515,5.515,0,0,0-5.515-5.515H396.9a5.544,5.544,0,0,0-5.332,4.112,15.47,15.47,0,0,1-29.823,0,5.544,5.544,0,0,0-5.332-4.112h-.014a5.515,5.515,0,0,0-5.515,5.515v.014a5.546,5.546,0,0,0,4.112,5.333,15.468,15.468,0,0,1,0,29.821,5.544,5.544,0,0,0-4.112,5.332v.012a5.513,5.513,0,0,0,5.515,5.513h.014a5.544,5.544,0,0,0,5.332-4.11,15.47,15.47,0,0,1,29.823,0,5.544,5.544,0,0,0,5.332,4.11h.014a5.515,5.515,0,0,0,5.515-5.513v-.016a5.544,5.544,0,0,0-4.112-5.332,15.468,15.468,0,0,1,0-29.821Z" transform="translate(-342.485 -290.279)" fill="#c6c6c6"/>
      <path id="Path_701-5" data-name="Path 701" d="M342.247,253.252h0a1.21,1.21,0,0,0,1.383.228,11.007,11.007,0,0,1,12.54,2.1,1.224,1.224,0,0,0,1.7.038,1.2,1.2,0,0,0,.021-1.716,13.413,13.413,0,0,0-15.323-2.573,1.2,1.2,0,0,0-.316,1.922Z" transform="translate(-335.053 -250)" fill="#c6c6c6"/>
      <path id="Path_702-5" data-name="Path 702" d="M303.532,290.332a13.411,13.411,0,0,0,2.525,15.3,1.23,1.23,0,0,0,1.612.15,1.2,1.2,0,0,0,.124-1.806,11.007,11.007,0,0,1-2.115-12.566,1.21,1.21,0,0,0-.226-1.383h0a1.2,1.2,0,0,0-1.92.308Z" transform="translate(-302.202 -282.828)" fill="#c6c6c6"/>
      <path id="Path_703-5" data-name="Path 703" d="M578.182,613.617a11.007,11.007,0,0,1-12.544-2.1,1.2,1.2,0,1,0-1.713,1.689,13.41,13.41,0,0,0,15.323,2.572,1.2,1.2,0,0,0,.311-1.922h0A1.21,1.21,0,0,0,578.182,613.617Z" transform="translate(-518.418 -548.749)" fill="#c6c6c6"/>
      <path id="Path_704-5" data-name="Path 704" d="M663.674,511.783a1.222,1.222,0,0,0,.038,1.69,11,11,0,0,1,2.1,12.559,1.21,1.21,0,0,0,.228,1.383h0a1.2,1.2,0,0,0,1.922-.311,13.413,13.413,0,0,0-2.566-15.333,1.2,1.2,0,0,0-1.72.012Z" transform="translate(-600.954 -466.246)" fill="#c6c6c6"/>
      <path id="Path_705-5" data-name="Path 705" d="M665.814,291.386a11.009,11.009,0,0,1-2.1,12.549,1.222,1.222,0,0,0-.038,1.69,1.2,1.2,0,0,0,1.718.022,13.41,13.41,0,0,0,2.566-15.328,1.2,1.2,0,0,0-1.922-.311h0A1.21,1.21,0,0,0,665.814,291.386Z" transform="translate(-600.954 -282.814)" fill="#c6c6c6"/>
      <path id="Path_706-5" data-name="Path 706" d="M565.667,255.583a11.008,11.008,0,0,1,12.549-2.1,1.21,1.21,0,0,0,1.383-.228h0a1.2,1.2,0,0,0-.311-1.922,13.41,13.41,0,0,0-15.328,2.57,1.2,1.2,0,0,0,.022,1.718A1.218,1.218,0,0,0,565.667,255.583Z" transform="translate(-518.447 -250)" fill="#c6c6c6"/>
      <path id="Path_707-5" data-name="Path 707" d="M356.111,611.511a11.008,11.008,0,0,1-12.549,2.1,1.21,1.21,0,0,0-1.383.228h0a1.2,1.2,0,0,0,.311,1.922,13.412,13.412,0,0,0,15.333-2.563,1.2,1.2,0,1,0-1.713-1.687Z" transform="translate(-334.995 -548.744)" fill="#c6c6c6"/>
      <path id="Path_708-5" data-name="Path 708" d="M305.675,525.974a11.007,11.007,0,0,1,2.1-12.547,1.222,1.222,0,0,0,.038-1.69,1.2,1.2,0,0,0-1.728-.022,13.406,13.406,0,0,0-2.556,15.326,1.2,1.2,0,0,0,1.922.311h0A1.21,1.21,0,0,0,305.675,525.974Z" transform="translate(-302.2 -466.199)" fill="#c6c6c6"/>
    </g>
    <g id="logo-6" data-name="logo" transform="translate(86.938 2805.445)" opacity="0.333">
      <path id="Path_700-6" data-name="Path 700" d="M398.313,309.542a5.546,5.546,0,0,0,4.112-5.333v-.014a5.515,5.515,0,0,0-5.515-5.515H396.9a5.544,5.544,0,0,0-5.332,4.112,15.47,15.47,0,0,1-29.823,0,5.544,5.544,0,0,0-5.332-4.112h-.014a5.515,5.515,0,0,0-5.515,5.515v.014a5.546,5.546,0,0,0,4.112,5.333,15.468,15.468,0,0,1,0,29.821,5.544,5.544,0,0,0-4.112,5.332v.012a5.513,5.513,0,0,0,5.515,5.513h.014a5.544,5.544,0,0,0,5.332-4.11,15.47,15.47,0,0,1,29.823,0,5.544,5.544,0,0,0,5.332,4.11h.014a5.515,5.515,0,0,0,5.515-5.513v-.016a5.544,5.544,0,0,0-4.112-5.332,15.468,15.468,0,0,1,0-29.821Z" transform="translate(-342.485 -290.279)" fill="#c6c6c6"/>
      <path id="Path_701-6" data-name="Path 701" d="M342.247,253.252h0a1.21,1.21,0,0,0,1.383.228,11.007,11.007,0,0,1,12.54,2.1,1.224,1.224,0,0,0,1.7.038,1.2,1.2,0,0,0,.021-1.716,13.413,13.413,0,0,0-15.323-2.573,1.2,1.2,0,0,0-.316,1.922Z" transform="translate(-335.053 -250)" fill="#c6c6c6"/>
      <path id="Path_702-6" data-name="Path 702" d="M303.532,290.332a13.411,13.411,0,0,0,2.525,15.3,1.23,1.23,0,0,0,1.612.15,1.2,1.2,0,0,0,.124-1.806,11.007,11.007,0,0,1-2.115-12.566,1.21,1.21,0,0,0-.226-1.383h0a1.2,1.2,0,0,0-1.92.308Z" transform="translate(-302.202 -282.828)" fill="#c6c6c6"/>
      <path id="Path_703-6" data-name="Path 703" d="M578.182,613.617a11.007,11.007,0,0,1-12.544-2.1,1.2,1.2,0,1,0-1.713,1.689,13.41,13.41,0,0,0,15.323,2.572,1.2,1.2,0,0,0,.311-1.922h0A1.21,1.21,0,0,0,578.182,613.617Z" transform="translate(-518.418 -548.749)" fill="#c6c6c6"/>
      <path id="Path_704-6" data-name="Path 704" d="M663.674,511.783a1.222,1.222,0,0,0,.038,1.69,11,11,0,0,1,2.1,12.559,1.21,1.21,0,0,0,.228,1.383h0a1.2,1.2,0,0,0,1.922-.311,13.413,13.413,0,0,0-2.566-15.333,1.2,1.2,0,0,0-1.72.012Z" transform="translate(-600.954 -466.246)" fill="#c6c6c6"/>
      <path id="Path_705-6" data-name="Path 705" d="M665.814,291.386a11.009,11.009,0,0,1-2.1,12.549,1.222,1.222,0,0,0-.038,1.69,1.2,1.2,0,0,0,1.718.022,13.41,13.41,0,0,0,2.566-15.328,1.2,1.2,0,0,0-1.922-.311h0A1.21,1.21,0,0,0,665.814,291.386Z" transform="translate(-600.954 -282.814)" fill="#c6c6c6"/>
      <path id="Path_706-6" data-name="Path 706" d="M565.667,255.583a11.008,11.008,0,0,1,12.549-2.1,1.21,1.21,0,0,0,1.383-.228h0a1.2,1.2,0,0,0-.311-1.922,13.41,13.41,0,0,0-15.328,2.57,1.2,1.2,0,0,0,.022,1.718A1.218,1.218,0,0,0,565.667,255.583Z" transform="translate(-518.447 -250)" fill="#c6c6c6"/>
      <path id="Path_707-6" data-name="Path 707" d="M356.111,611.511a11.008,11.008,0,0,1-12.549,2.1,1.21,1.21,0,0,0-1.383.228h0a1.2,1.2,0,0,0,.311,1.922,13.412,13.412,0,0,0,15.333-2.563,1.2,1.2,0,1,0-1.713-1.687Z" transform="translate(-334.995 -548.744)" fill="#c6c6c6"/>
      <path id="Path_708-6" data-name="Path 708" d="M305.675,525.974a11.007,11.007,0,0,1,2.1-12.547,1.222,1.222,0,0,0,.038-1.69,1.2,1.2,0,0,0-1.728-.022,13.406,13.406,0,0,0-2.556,15.326,1.2,1.2,0,0,0,1.922.311h0A1.21,1.21,0,0,0,305.675,525.974Z" transform="translate(-302.2 -466.199)" fill="#c6c6c6"/>
    </g>
    <g id="logo-7" data-name="logo" transform="translate(175.938 2805.445)" opacity="0.333">
      <path id="Path_700-7" data-name="Path 700" d="M398.313,309.542a5.546,5.546,0,0,0,4.112-5.333v-.014a5.515,5.515,0,0,0-5.515-5.515H396.9a5.544,5.544,0,0,0-5.332,4.112,15.47,15.47,0,0,1-29.823,0,5.544,5.544,0,0,0-5.332-4.112h-.014a5.515,5.515,0,0,0-5.515,5.515v.014a5.546,5.546,0,0,0,4.112,5.333,15.468,15.468,0,0,1,0,29.821,5.544,5.544,0,0,0-4.112,5.332v.012a5.513,5.513,0,0,0,5.515,5.513h.014a5.544,5.544,0,0,0,5.332-4.11,15.47,15.47,0,0,1,29.823,0,5.544,5.544,0,0,0,5.332,4.11h.014a5.515,5.515,0,0,0,5.515-5.513v-.016a5.544,5.544,0,0,0-4.112-5.332,15.468,15.468,0,0,1,0-29.821Z" transform="translate(-342.485 -290.279)" fill="#c6c6c6"/>
      <path id="Path_701-7" data-name="Path 701" d="M342.247,253.252h0a1.21,1.21,0,0,0,1.383.228,11.007,11.007,0,0,1,12.54,2.1,1.224,1.224,0,0,0,1.7.038,1.2,1.2,0,0,0,.021-1.716,13.413,13.413,0,0,0-15.323-2.573,1.2,1.2,0,0,0-.316,1.922Z" transform="translate(-335.053 -250)" fill="#c6c6c6"/>
      <path id="Path_702-7" data-name="Path 702" d="M303.532,290.332a13.411,13.411,0,0,0,2.525,15.3,1.23,1.23,0,0,0,1.612.15,1.2,1.2,0,0,0,.124-1.806,11.007,11.007,0,0,1-2.115-12.566,1.21,1.21,0,0,0-.226-1.383h0a1.2,1.2,0,0,0-1.92.308Z" transform="translate(-302.202 -282.828)" fill="#c6c6c6"/>
      <path id="Path_703-7" data-name="Path 703" d="M578.182,613.617a11.007,11.007,0,0,1-12.544-2.1,1.2,1.2,0,1,0-1.713,1.689,13.41,13.41,0,0,0,15.323,2.572,1.2,1.2,0,0,0,.311-1.922h0A1.21,1.21,0,0,0,578.182,613.617Z" transform="translate(-518.418 -548.749)" fill="#c6c6c6"/>
      <path id="Path_704-7" data-name="Path 704" d="M663.674,511.783a1.222,1.222,0,0,0,.038,1.69,11,11,0,0,1,2.1,12.559,1.21,1.21,0,0,0,.228,1.383h0a1.2,1.2,0,0,0,1.922-.311,13.413,13.413,0,0,0-2.566-15.333,1.2,1.2,0,0,0-1.72.012Z" transform="translate(-600.954 -466.246)" fill="#c6c6c6"/>
      <path id="Path_705-7" data-name="Path 705" d="M665.814,291.386a11.009,11.009,0,0,1-2.1,12.549,1.222,1.222,0,0,0-.038,1.69,1.2,1.2,0,0,0,1.718.022,13.41,13.41,0,0,0,2.566-15.328,1.2,1.2,0,0,0-1.922-.311h0A1.21,1.21,0,0,0,665.814,291.386Z" transform="translate(-600.954 -282.814)" fill="#c6c6c6"/>
      <path id="Path_706-7" data-name="Path 706" d="M565.667,255.583a11.008,11.008,0,0,1,12.549-2.1,1.21,1.21,0,0,0,1.383-.228h0a1.2,1.2,0,0,0-.311-1.922,13.41,13.41,0,0,0-15.328,2.57,1.2,1.2,0,0,0,.022,1.718A1.218,1.218,0,0,0,565.667,255.583Z" transform="translate(-518.447 -250)" fill="#c6c6c6"/>
      <path id="Path_707-7" data-name="Path 707" d="M356.111,611.511a11.008,11.008,0,0,1-12.549,2.1,1.21,1.21,0,0,0-1.383.228h0a1.2,1.2,0,0,0,.311,1.922,13.412,13.412,0,0,0,15.333-2.563,1.2,1.2,0,1,0-1.713-1.687Z" transform="translate(-334.995 -548.744)" fill="#c6c6c6"/>
      <path id="Path_708-7" data-name="Path 708" d="M305.675,525.974a11.007,11.007,0,0,1,2.1-12.547,1.222,1.222,0,0,0,.038-1.69,1.2,1.2,0,0,0-1.728-.022,13.406,13.406,0,0,0-2.556,15.326,1.2,1.2,0,0,0,1.922.311h0A1.21,1.21,0,0,0,305.675,525.974Z" transform="translate(-302.2 -466.199)" fill="#c6c6c6"/>
    </g>
    <g id="logo-8" data-name="logo" transform="translate(264.938 2805.445)" opacity="0.333">
      <path id="Path_700-8" data-name="Path 700" d="M398.313,309.542a5.546,5.546,0,0,0,4.112-5.333v-.014a5.515,5.515,0,0,0-5.515-5.515H396.9a5.544,5.544,0,0,0-5.332,4.112,15.47,15.47,0,0,1-29.823,0,5.544,5.544,0,0,0-5.332-4.112h-.014a5.515,5.515,0,0,0-5.515,5.515v.014a5.546,5.546,0,0,0,4.112,5.333,15.468,15.468,0,0,1,0,29.821,5.544,5.544,0,0,0-4.112,5.332v.012a5.513,5.513,0,0,0,5.515,5.513h.014a5.544,5.544,0,0,0,5.332-4.11,15.47,15.47,0,0,1,29.823,0,5.544,5.544,0,0,0,5.332,4.11h.014a5.515,5.515,0,0,0,5.515-5.513v-.016a5.544,5.544,0,0,0-4.112-5.332,15.468,15.468,0,0,1,0-29.821Z" transform="translate(-342.485 -290.279)" fill="#c6c6c6"/>
      <path id="Path_701-8" data-name="Path 701" d="M342.247,253.252h0a1.21,1.21,0,0,0,1.383.228,11.007,11.007,0,0,1,12.54,2.1,1.224,1.224,0,0,0,1.7.038,1.2,1.2,0,0,0,.021-1.716,13.413,13.413,0,0,0-15.323-2.573,1.2,1.2,0,0,0-.316,1.922Z" transform="translate(-335.053 -250)" fill="#c6c6c6"/>
      <path id="Path_702-8" data-name="Path 702" d="M303.532,290.332a13.411,13.411,0,0,0,2.525,15.3,1.23,1.23,0,0,0,1.612.15,1.2,1.2,0,0,0,.124-1.806,11.007,11.007,0,0,1-2.115-12.566,1.21,1.21,0,0,0-.226-1.383h0a1.2,1.2,0,0,0-1.92.308Z" transform="translate(-302.202 -282.828)" fill="#c6c6c6"/>
      <path id="Path_703-8" data-name="Path 703" d="M578.182,613.617a11.007,11.007,0,0,1-12.544-2.1,1.2,1.2,0,1,0-1.713,1.689,13.41,13.41,0,0,0,15.323,2.572,1.2,1.2,0,0,0,.311-1.922h0A1.21,1.21,0,0,0,578.182,613.617Z" transform="translate(-518.418 -548.749)" fill="#c6c6c6"/>
      <path id="Path_704-8" data-name="Path 704" d="M663.674,511.783a1.222,1.222,0,0,0,.038,1.69,11,11,0,0,1,2.1,12.559,1.21,1.21,0,0,0,.228,1.383h0a1.2,1.2,0,0,0,1.922-.311,13.413,13.413,0,0,0-2.566-15.333,1.2,1.2,0,0,0-1.72.012Z" transform="translate(-600.954 -466.246)" fill="#c6c6c6"/>
      <path id="Path_705-8" data-name="Path 705" d="M665.814,291.386a11.009,11.009,0,0,1-2.1,12.549,1.222,1.222,0,0,0-.038,1.69,1.2,1.2,0,0,0,1.718.022,13.41,13.41,0,0,0,2.566-15.328,1.2,1.2,0,0,0-1.922-.311h0A1.21,1.21,0,0,0,665.814,291.386Z" transform="translate(-600.954 -282.814)" fill="#c6c6c6"/>
      <path id="Path_706-8" data-name="Path 706" d="M565.667,255.583a11.008,11.008,0,0,1,12.549-2.1,1.21,1.21,0,0,0,1.383-.228h0a1.2,1.2,0,0,0-.311-1.922,13.41,13.41,0,0,0-15.328,2.57,1.2,1.2,0,0,0,.022,1.718A1.218,1.218,0,0,0,565.667,255.583Z" transform="translate(-518.447 -250)" fill="#c6c6c6"/>
      <path id="Path_707-8" data-name="Path 707" d="M356.111,611.511a11.008,11.008,0,0,1-12.549,2.1,1.21,1.21,0,0,0-1.383.228h0a1.2,1.2,0,0,0,.311,1.922,13.412,13.412,0,0,0,15.333-2.563,1.2,1.2,0,1,0-1.713-1.687Z" transform="translate(-334.995 -548.744)" fill="#c6c6c6"/>
      <path id="Path_708-8" data-name="Path 708" d="M305.675,525.974a11.007,11.007,0,0,1,2.1-12.547,1.222,1.222,0,0,0,.038-1.69,1.2,1.2,0,0,0-1.728-.022,13.406,13.406,0,0,0-2.556,15.326,1.2,1.2,0,0,0,1.922.311h0A1.21,1.21,0,0,0,305.675,525.974Z" transform="translate(-302.2 -466.199)" fill="#c6c6c6"/>
    </g>
    <g id="logo-9" data-name="logo" transform="translate(-2.063 2894.445)" opacity="0.333">
      <path id="Path_700-9" data-name="Path 700" d="M398.313,309.542a5.546,5.546,0,0,0,4.112-5.333v-.014a5.515,5.515,0,0,0-5.515-5.515H396.9a5.544,5.544,0,0,0-5.332,4.112,15.47,15.47,0,0,1-29.823,0,5.544,5.544,0,0,0-5.332-4.112h-.014a5.515,5.515,0,0,0-5.515,5.515v.014a5.546,5.546,0,0,0,4.112,5.333,15.468,15.468,0,0,1,0,29.821,5.544,5.544,0,0,0-4.112,5.332v.012a5.513,5.513,0,0,0,5.515,5.513h.014a5.544,5.544,0,0,0,5.332-4.11,15.47,15.47,0,0,1,29.823,0,5.544,5.544,0,0,0,5.332,4.11h.014a5.515,5.515,0,0,0,5.515-5.513v-.016a5.544,5.544,0,0,0-4.112-5.332,15.468,15.468,0,0,1,0-29.821Z" transform="translate(-342.485 -290.279)" fill="#c6c6c6"/>
      <path id="Path_701-9" data-name="Path 701" d="M342.247,253.252h0a1.21,1.21,0,0,0,1.383.228,11.007,11.007,0,0,1,12.54,2.1,1.224,1.224,0,0,0,1.7.038,1.2,1.2,0,0,0,.021-1.716,13.413,13.413,0,0,0-15.323-2.573,1.2,1.2,0,0,0-.316,1.922Z" transform="translate(-335.053 -250)" fill="#c6c6c6"/>
      <path id="Path_702-9" data-name="Path 702" d="M303.532,290.332a13.411,13.411,0,0,0,2.525,15.3,1.23,1.23,0,0,0,1.612.15,1.2,1.2,0,0,0,.124-1.806,11.007,11.007,0,0,1-2.115-12.566,1.21,1.21,0,0,0-.226-1.383h0a1.2,1.2,0,0,0-1.92.308Z" transform="translate(-302.202 -282.828)" fill="#c6c6c6"/>
      <path id="Path_703-9" data-name="Path 703" d="M578.182,613.617a11.007,11.007,0,0,1-12.544-2.1,1.2,1.2,0,1,0-1.713,1.689,13.41,13.41,0,0,0,15.323,2.572,1.2,1.2,0,0,0,.311-1.922h0A1.21,1.21,0,0,0,578.182,613.617Z" transform="translate(-518.418 -548.749)" fill="#c6c6c6"/>
      <path id="Path_704-9" data-name="Path 704" d="M663.674,511.783a1.222,1.222,0,0,0,.038,1.69,11,11,0,0,1,2.1,12.559,1.21,1.21,0,0,0,.228,1.383h0a1.2,1.2,0,0,0,1.922-.311,13.413,13.413,0,0,0-2.566-15.333,1.2,1.2,0,0,0-1.72.012Z" transform="translate(-600.954 -466.246)" fill="#c6c6c6"/>
      <path id="Path_705-9" data-name="Path 705" d="M665.814,291.386a11.009,11.009,0,0,1-2.1,12.549,1.222,1.222,0,0,0-.038,1.69,1.2,1.2,0,0,0,1.718.022,13.41,13.41,0,0,0,2.566-15.328,1.2,1.2,0,0,0-1.922-.311h0A1.21,1.21,0,0,0,665.814,291.386Z" transform="translate(-600.954 -282.814)" fill="#c6c6c6"/>
      <path id="Path_706-9" data-name="Path 706" d="M565.667,255.583a11.008,11.008,0,0,1,12.549-2.1,1.21,1.21,0,0,0,1.383-.228h0a1.2,1.2,0,0,0-.311-1.922,13.41,13.41,0,0,0-15.328,2.57,1.2,1.2,0,0,0,.022,1.718A1.218,1.218,0,0,0,565.667,255.583Z" transform="translate(-518.447 -250)" fill="#c6c6c6"/>
      <path id="Path_707-9" data-name="Path 707" d="M356.111,611.511a11.008,11.008,0,0,1-12.549,2.1,1.21,1.21,0,0,0-1.383.228h0a1.2,1.2,0,0,0,.311,1.922,13.412,13.412,0,0,0,15.333-2.563,1.2,1.2,0,1,0-1.713-1.687Z" transform="translate(-334.995 -548.744)" fill="#c6c6c6"/>
      <path id="Path_708-9" data-name="Path 708" d="M305.675,525.974a11.007,11.007,0,0,1,2.1-12.547,1.222,1.222,0,0,0,.038-1.69,1.2,1.2,0,0,0-1.728-.022,13.406,13.406,0,0,0-2.556,15.326,1.2,1.2,0,0,0,1.922.311h0A1.21,1.21,0,0,0,305.675,525.974Z" transform="translate(-302.2 -466.199)" fill="#c6c6c6"/>
    </g>
    <g id="logo-10" data-name="logo" transform="translate(86.938 2894.445)" opacity="0.333">
      <path id="Path_700-10" data-name="Path 700" d="M398.313,309.542a5.546,5.546,0,0,0,4.112-5.333v-.014a5.515,5.515,0,0,0-5.515-5.515H396.9a5.544,5.544,0,0,0-5.332,4.112,15.47,15.47,0,0,1-29.823,0,5.544,5.544,0,0,0-5.332-4.112h-.014a5.515,5.515,0,0,0-5.515,5.515v.014a5.546,5.546,0,0,0,4.112,5.333,15.468,15.468,0,0,1,0,29.821,5.544,5.544,0,0,0-4.112,5.332v.012a5.513,5.513,0,0,0,5.515,5.513h.014a5.544,5.544,0,0,0,5.332-4.11,15.47,15.47,0,0,1,29.823,0,5.544,5.544,0,0,0,5.332,4.11h.014a5.515,5.515,0,0,0,5.515-5.513v-.016a5.544,5.544,0,0,0-4.112-5.332,15.468,15.468,0,0,1,0-29.821Z" transform="translate(-342.485 -290.279)" fill="#c6c6c6"/>
      <path id="Path_701-10" data-name="Path 701" d="M342.247,253.252h0a1.21,1.21,0,0,0,1.383.228,11.007,11.007,0,0,1,12.54,2.1,1.224,1.224,0,0,0,1.7.038,1.2,1.2,0,0,0,.021-1.716,13.413,13.413,0,0,0-15.323-2.573,1.2,1.2,0,0,0-.316,1.922Z" transform="translate(-335.053 -250)" fill="#c6c6c6"/>
      <path id="Path_702-10" data-name="Path 702" d="M303.532,290.332a13.411,13.411,0,0,0,2.525,15.3,1.23,1.23,0,0,0,1.612.15,1.2,1.2,0,0,0,.124-1.806,11.007,11.007,0,0,1-2.115-12.566,1.21,1.21,0,0,0-.226-1.383h0a1.2,1.2,0,0,0-1.92.308Z" transform="translate(-302.202 -282.828)" fill="#c6c6c6"/>
      <path id="Path_703-10" data-name="Path 703" d="M578.182,613.617a11.007,11.007,0,0,1-12.544-2.1,1.2,1.2,0,1,0-1.713,1.689,13.41,13.41,0,0,0,15.323,2.572,1.2,1.2,0,0,0,.311-1.922h0A1.21,1.21,0,0,0,578.182,613.617Z" transform="translate(-518.418 -548.749)" fill="#c6c6c6"/>
      <path id="Path_704-10" data-name="Path 704" d="M663.674,511.783a1.222,1.222,0,0,0,.038,1.69,11,11,0,0,1,2.1,12.559,1.21,1.21,0,0,0,.228,1.383h0a1.2,1.2,0,0,0,1.922-.311,13.413,13.413,0,0,0-2.566-15.333,1.2,1.2,0,0,0-1.72.012Z" transform="translate(-600.954 -466.246)" fill="#c6c6c6"/>
      <path id="Path_705-10" data-name="Path 705" d="M665.814,291.386a11.009,11.009,0,0,1-2.1,12.549,1.222,1.222,0,0,0-.038,1.69,1.2,1.2,0,0,0,1.718.022,13.41,13.41,0,0,0,2.566-15.328,1.2,1.2,0,0,0-1.922-.311h0A1.21,1.21,0,0,0,665.814,291.386Z" transform="translate(-600.954 -282.814)" fill="#c6c6c6"/>
      <path id="Path_706-10" data-name="Path 706" d="M565.667,255.583a11.008,11.008,0,0,1,12.549-2.1,1.21,1.21,0,0,0,1.383-.228h0a1.2,1.2,0,0,0-.311-1.922,13.41,13.41,0,0,0-15.328,2.57,1.2,1.2,0,0,0,.022,1.718A1.218,1.218,0,0,0,565.667,255.583Z" transform="translate(-518.447 -250)" fill="#c6c6c6"/>
      <path id="Path_707-10" data-name="Path 707" d="M356.111,611.511a11.008,11.008,0,0,1-12.549,2.1,1.21,1.21,0,0,0-1.383.228h0a1.2,1.2,0,0,0,.311,1.922,13.412,13.412,0,0,0,15.333-2.563,1.2,1.2,0,1,0-1.713-1.687Z" transform="translate(-334.995 -548.744)" fill="#c6c6c6"/>
      <path id="Path_708-10" data-name="Path 708" d="M305.675,525.974a11.007,11.007,0,0,1,2.1-12.547,1.222,1.222,0,0,0,.038-1.69,1.2,1.2,0,0,0-1.728-.022,13.406,13.406,0,0,0-2.556,15.326,1.2,1.2,0,0,0,1.922.311h0A1.21,1.21,0,0,0,305.675,525.974Z" transform="translate(-302.2 -466.199)" fill="#c6c6c6"/>
    </g>
    <g id="logo-11" data-name="logo" transform="translate(175.938 2894.445)" opacity="0.333">
      <path id="Path_700-11" data-name="Path 700" d="M398.313,309.542a5.546,5.546,0,0,0,4.112-5.333v-.014a5.515,5.515,0,0,0-5.515-5.515H396.9a5.544,5.544,0,0,0-5.332,4.112,15.47,15.47,0,0,1-29.823,0,5.544,5.544,0,0,0-5.332-4.112h-.014a5.515,5.515,0,0,0-5.515,5.515v.014a5.546,5.546,0,0,0,4.112,5.333,15.468,15.468,0,0,1,0,29.821,5.544,5.544,0,0,0-4.112,5.332v.012a5.513,5.513,0,0,0,5.515,5.513h.014a5.544,5.544,0,0,0,5.332-4.11,15.47,15.47,0,0,1,29.823,0,5.544,5.544,0,0,0,5.332,4.11h.014a5.515,5.515,0,0,0,5.515-5.513v-.016a5.544,5.544,0,0,0-4.112-5.332,15.468,15.468,0,0,1,0-29.821Z" transform="translate(-342.485 -290.279)" fill="#c6c6c6"/>
      <path id="Path_701-11" data-name="Path 701" d="M342.247,253.252h0a1.21,1.21,0,0,0,1.383.228,11.007,11.007,0,0,1,12.54,2.1,1.224,1.224,0,0,0,1.7.038,1.2,1.2,0,0,0,.021-1.716,13.413,13.413,0,0,0-15.323-2.573,1.2,1.2,0,0,0-.316,1.922Z" transform="translate(-335.053 -250)" fill="#c6c6c6"/>
      <path id="Path_702-11" data-name="Path 702" d="M303.532,290.332a13.411,13.411,0,0,0,2.525,15.3,1.23,1.23,0,0,0,1.612.15,1.2,1.2,0,0,0,.124-1.806,11.007,11.007,0,0,1-2.115-12.566,1.21,1.21,0,0,0-.226-1.383h0a1.2,1.2,0,0,0-1.92.308Z" transform="translate(-302.202 -282.828)" fill="#c6c6c6"/>
      <path id="Path_703-11" data-name="Path 703" d="M578.182,613.617a11.007,11.007,0,0,1-12.544-2.1,1.2,1.2,0,1,0-1.713,1.689,13.41,13.41,0,0,0,15.323,2.572,1.2,1.2,0,0,0,.311-1.922h0A1.21,1.21,0,0,0,578.182,613.617Z" transform="translate(-518.418 -548.749)" fill="#c6c6c6"/>
      <path id="Path_704-11" data-name="Path 704" d="M663.674,511.783a1.222,1.222,0,0,0,.038,1.69,11,11,0,0,1,2.1,12.559,1.21,1.21,0,0,0,.228,1.383h0a1.2,1.2,0,0,0,1.922-.311,13.413,13.413,0,0,0-2.566-15.333,1.2,1.2,0,0,0-1.72.012Z" transform="translate(-600.954 -466.246)" fill="#c6c6c6"/>
      <path id="Path_705-11" data-name="Path 705" d="M665.814,291.386a11.009,11.009,0,0,1-2.1,12.549,1.222,1.222,0,0,0-.038,1.69,1.2,1.2,0,0,0,1.718.022,13.41,13.41,0,0,0,2.566-15.328,1.2,1.2,0,0,0-1.922-.311h0A1.21,1.21,0,0,0,665.814,291.386Z" transform="translate(-600.954 -282.814)" fill="#c6c6c6"/>
      <path id="Path_706-11" data-name="Path 706" d="M565.667,255.583a11.008,11.008,0,0,1,12.549-2.1,1.21,1.21,0,0,0,1.383-.228h0a1.2,1.2,0,0,0-.311-1.922,13.41,13.41,0,0,0-15.328,2.57,1.2,1.2,0,0,0,.022,1.718A1.218,1.218,0,0,0,565.667,255.583Z" transform="translate(-518.447 -250)" fill="#c6c6c6"/>
      <path id="Path_707-11" data-name="Path 707" d="M356.111,611.511a11.008,11.008,0,0,1-12.549,2.1,1.21,1.21,0,0,0-1.383.228h0a1.2,1.2,0,0,0,.311,1.922,13.412,13.412,0,0,0,15.333-2.563,1.2,1.2,0,1,0-1.713-1.687Z" transform="translate(-334.995 -548.744)" fill="#c6c6c6"/>
      <path id="Path_708-11" data-name="Path 708" d="M305.675,525.974a11.007,11.007,0,0,1,2.1-12.547,1.222,1.222,0,0,0,.038-1.69,1.2,1.2,0,0,0-1.728-.022,13.406,13.406,0,0,0-2.556,15.326,1.2,1.2,0,0,0,1.922.311h0A1.21,1.21,0,0,0,305.675,525.974Z" transform="translate(-302.2 -466.199)" fill="#c6c6c6"/>
    </g>
    <g id="logo-12" data-name="logo" transform="translate(264.938 2894.445)" opacity="0.333">
      <path id="Path_700-12" data-name="Path 700" d="M398.313,309.542a5.546,5.546,0,0,0,4.112-5.333v-.014a5.515,5.515,0,0,0-5.515-5.515H396.9a5.544,5.544,0,0,0-5.332,4.112,15.47,15.47,0,0,1-29.823,0,5.544,5.544,0,0,0-5.332-4.112h-.014a5.515,5.515,0,0,0-5.515,5.515v.014a5.546,5.546,0,0,0,4.112,5.333,15.468,15.468,0,0,1,0,29.821,5.544,5.544,0,0,0-4.112,5.332v.012a5.513,5.513,0,0,0,5.515,5.513h.014a5.544,5.544,0,0,0,5.332-4.11,15.47,15.47,0,0,1,29.823,0,5.544,5.544,0,0,0,5.332,4.11h.014a5.515,5.515,0,0,0,5.515-5.513v-.016a5.544,5.544,0,0,0-4.112-5.332,15.468,15.468,0,0,1,0-29.821Z" transform="translate(-342.485 -290.279)" fill="#c6c6c6"/>
      <path id="Path_701-12" data-name="Path 701" d="M342.247,253.252h0a1.21,1.21,0,0,0,1.383.228,11.007,11.007,0,0,1,12.54,2.1,1.224,1.224,0,0,0,1.7.038,1.2,1.2,0,0,0,.021-1.716,13.413,13.413,0,0,0-15.323-2.573,1.2,1.2,0,0,0-.316,1.922Z" transform="translate(-335.053 -250)" fill="#c6c6c6"/>
      <path id="Path_702-12" data-name="Path 702" d="M303.532,290.332a13.411,13.411,0,0,0,2.525,15.3,1.23,1.23,0,0,0,1.612.15,1.2,1.2,0,0,0,.124-1.806,11.007,11.007,0,0,1-2.115-12.566,1.21,1.21,0,0,0-.226-1.383h0a1.2,1.2,0,0,0-1.92.308Z" transform="translate(-302.202 -282.828)" fill="#c6c6c6"/>
      <path id="Path_703-12" data-name="Path 703" d="M578.182,613.617a11.007,11.007,0,0,1-12.544-2.1,1.2,1.2,0,1,0-1.713,1.689,13.41,13.41,0,0,0,15.323,2.572,1.2,1.2,0,0,0,.311-1.922h0A1.21,1.21,0,0,0,578.182,613.617Z" transform="translate(-518.418 -548.749)" fill="#c6c6c6"/>
      <path id="Path_704-12" data-name="Path 704" d="M663.674,511.783a1.222,1.222,0,0,0,.038,1.69,11,11,0,0,1,2.1,12.559,1.21,1.21,0,0,0,.228,1.383h0a1.2,1.2,0,0,0,1.922-.311,13.413,13.413,0,0,0-2.566-15.333,1.2,1.2,0,0,0-1.72.012Z" transform="translate(-600.954 -466.246)" fill="#c6c6c6"/>
      <path id="Path_705-12" data-name="Path 705" d="M665.814,291.386a11.009,11.009,0,0,1-2.1,12.549,1.222,1.222,0,0,0-.038,1.69,1.2,1.2,0,0,0,1.718.022,13.41,13.41,0,0,0,2.566-15.328,1.2,1.2,0,0,0-1.922-.311h0A1.21,1.21,0,0,0,665.814,291.386Z" transform="translate(-600.954 -282.814)" fill="#c6c6c6"/>
      <path id="Path_706-12" data-name="Path 706" d="M565.667,255.583a11.008,11.008,0,0,1,12.549-2.1,1.21,1.21,0,0,0,1.383-.228h0a1.2,1.2,0,0,0-.311-1.922,13.41,13.41,0,0,0-15.328,2.57,1.2,1.2,0,0,0,.022,1.718A1.218,1.218,0,0,0,565.667,255.583Z" transform="translate(-518.447 -250)" fill="#c6c6c6"/>
      <path id="Path_707-12" data-name="Path 707" d="M356.111,611.511a11.008,11.008,0,0,1-12.549,2.1,1.21,1.21,0,0,0-1.383.228h0a1.2,1.2,0,0,0,.311,1.922,13.412,13.412,0,0,0,15.333-2.563,1.2,1.2,0,1,0-1.713-1.687Z" transform="translate(-334.995 -548.744)" fill="#c6c6c6"/>
      <path id="Path_708-12" data-name="Path 708" d="M305.675,525.974a11.007,11.007,0,0,1,2.1-12.547,1.222,1.222,0,0,0,.038-1.69,1.2,1.2,0,0,0-1.728-.022,13.406,13.406,0,0,0-2.556,15.326,1.2,1.2,0,0,0,1.922.311h0A1.21,1.21,0,0,0,305.675,525.974Z" transform="translate(-302.2 -466.199)" fill="#c6c6c6"/>
    </g>
    <g id="logo-13" data-name="logo" transform="translate(-2.063 2983.445)" opacity="0.333">
      <path id="Path_700-13" data-name="Path 700" d="M398.313,309.542a5.546,5.546,0,0,0,4.112-5.333v-.014a5.515,5.515,0,0,0-5.515-5.515H396.9a5.544,5.544,0,0,0-5.332,4.112,15.47,15.47,0,0,1-29.823,0,5.544,5.544,0,0,0-5.332-4.112h-.014a5.515,5.515,0,0,0-5.515,5.515v.014a5.546,5.546,0,0,0,4.112,5.333,15.468,15.468,0,0,1,0,29.821,5.544,5.544,0,0,0-4.112,5.332v.012a5.513,5.513,0,0,0,5.515,5.513h.014a5.544,5.544,0,0,0,5.332-4.11,15.47,15.47,0,0,1,29.823,0,5.544,5.544,0,0,0,5.332,4.11h.014a5.515,5.515,0,0,0,5.515-5.513v-.016a5.544,5.544,0,0,0-4.112-5.332,15.468,15.468,0,0,1,0-29.821Z" transform="translate(-342.485 -290.279)" fill="#c6c6c6"/>
      <path id="Path_701-13" data-name="Path 701" d="M342.247,253.252h0a1.21,1.21,0,0,0,1.383.228,11.007,11.007,0,0,1,12.54,2.1,1.224,1.224,0,0,0,1.7.038,1.2,1.2,0,0,0,.021-1.716,13.413,13.413,0,0,0-15.323-2.573,1.2,1.2,0,0,0-.316,1.922Z" transform="translate(-335.053 -250)" fill="#c6c6c6"/>
      <path id="Path_702-13" data-name="Path 702" d="M303.532,290.332a13.411,13.411,0,0,0,2.525,15.3,1.23,1.23,0,0,0,1.612.15,1.2,1.2,0,0,0,.124-1.806,11.007,11.007,0,0,1-2.115-12.566,1.21,1.21,0,0,0-.226-1.383h0a1.2,1.2,0,0,0-1.92.308Z" transform="translate(-302.202 -282.828)" fill="#c6c6c6"/>
      <path id="Path_703-13" data-name="Path 703" d="M578.182,613.617a11.007,11.007,0,0,1-12.544-2.1,1.2,1.2,0,1,0-1.713,1.689,13.41,13.41,0,0,0,15.323,2.572,1.2,1.2,0,0,0,.311-1.922h0A1.21,1.21,0,0,0,578.182,613.617Z" transform="translate(-518.418 -548.749)" fill="#c6c6c6"/>
      <path id="Path_704-13" data-name="Path 704" d="M663.674,511.783a1.222,1.222,0,0,0,.038,1.69,11,11,0,0,1,2.1,12.559,1.21,1.21,0,0,0,.228,1.383h0a1.2,1.2,0,0,0,1.922-.311,13.413,13.413,0,0,0-2.566-15.333,1.2,1.2,0,0,0-1.72.012Z" transform="translate(-600.954 -466.246)" fill="#c6c6c6"/>
      <path id="Path_705-13" data-name="Path 705" d="M665.814,291.386a11.009,11.009,0,0,1-2.1,12.549,1.222,1.222,0,0,0-.038,1.69,1.2,1.2,0,0,0,1.718.022,13.41,13.41,0,0,0,2.566-15.328,1.2,1.2,0,0,0-1.922-.311h0A1.21,1.21,0,0,0,665.814,291.386Z" transform="translate(-600.954 -282.814)" fill="#c6c6c6"/>
      <path id="Path_706-13" data-name="Path 706" d="M565.667,255.583a11.008,11.008,0,0,1,12.549-2.1,1.21,1.21,0,0,0,1.383-.228h0a1.2,1.2,0,0,0-.311-1.922,13.41,13.41,0,0,0-15.328,2.57,1.2,1.2,0,0,0,.022,1.718A1.218,1.218,0,0,0,565.667,255.583Z" transform="translate(-518.447 -250)" fill="#c6c6c6"/>
      <path id="Path_707-13" data-name="Path 707" d="M356.111,611.511a11.008,11.008,0,0,1-12.549,2.1,1.21,1.21,0,0,0-1.383.228h0a1.2,1.2,0,0,0,.311,1.922,13.412,13.412,0,0,0,15.333-2.563,1.2,1.2,0,1,0-1.713-1.687Z" transform="translate(-334.995 -548.744)" fill="#c6c6c6"/>
      <path id="Path_708-13" data-name="Path 708" d="M305.675,525.974a11.007,11.007,0,0,1,2.1-12.547,1.222,1.222,0,0,0,.038-1.69,1.2,1.2,0,0,0-1.728-.022,13.406,13.406,0,0,0-2.556,15.326,1.2,1.2,0,0,0,1.922.311h0A1.21,1.21,0,0,0,305.675,525.974Z" transform="translate(-302.2 -466.199)" fill="#c6c6c6"/>
    </g>
    <g id="logo-14" data-name="logo" transform="translate(86.938 2983.445)" opacity="0.333">
      <path id="Path_700-14" data-name="Path 700" d="M398.313,309.542a5.546,5.546,0,0,0,4.112-5.333v-.014a5.515,5.515,0,0,0-5.515-5.515H396.9a5.544,5.544,0,0,0-5.332,4.112,15.47,15.47,0,0,1-29.823,0,5.544,5.544,0,0,0-5.332-4.112h-.014a5.515,5.515,0,0,0-5.515,5.515v.014a5.546,5.546,0,0,0,4.112,5.333,15.468,15.468,0,0,1,0,29.821,5.544,5.544,0,0,0-4.112,5.332v.012a5.513,5.513,0,0,0,5.515,5.513h.014a5.544,5.544,0,0,0,5.332-4.11,15.47,15.47,0,0,1,29.823,0,5.544,5.544,0,0,0,5.332,4.11h.014a5.515,5.515,0,0,0,5.515-5.513v-.016a5.544,5.544,0,0,0-4.112-5.332,15.468,15.468,0,0,1,0-29.821Z" transform="translate(-342.485 -290.279)" fill="#c6c6c6"/>
      <path id="Path_701-14" data-name="Path 701" d="M342.247,253.252h0a1.21,1.21,0,0,0,1.383.228,11.007,11.007,0,0,1,12.54,2.1,1.224,1.224,0,0,0,1.7.038,1.2,1.2,0,0,0,.021-1.716,13.413,13.413,0,0,0-15.323-2.573,1.2,1.2,0,0,0-.316,1.922Z" transform="translate(-335.053 -250)" fill="#c6c6c6"/>
      <path id="Path_702-14" data-name="Path 702" d="M303.532,290.332a13.411,13.411,0,0,0,2.525,15.3,1.23,1.23,0,0,0,1.612.15,1.2,1.2,0,0,0,.124-1.806,11.007,11.007,0,0,1-2.115-12.566,1.21,1.21,0,0,0-.226-1.383h0a1.2,1.2,0,0,0-1.92.308Z" transform="translate(-302.202 -282.828)" fill="#c6c6c6"/>
      <path id="Path_703-14" data-name="Path 703" d="M578.182,613.617a11.007,11.007,0,0,1-12.544-2.1,1.2,1.2,0,1,0-1.713,1.689,13.41,13.41,0,0,0,15.323,2.572,1.2,1.2,0,0,0,.311-1.922h0A1.21,1.21,0,0,0,578.182,613.617Z" transform="translate(-518.418 -548.749)" fill="#c6c6c6"/>
      <path id="Path_704-14" data-name="Path 704" d="M663.674,511.783a1.222,1.222,0,0,0,.038,1.69,11,11,0,0,1,2.1,12.559,1.21,1.21,0,0,0,.228,1.383h0a1.2,1.2,0,0,0,1.922-.311,13.413,13.413,0,0,0-2.566-15.333,1.2,1.2,0,0,0-1.72.012Z" transform="translate(-600.954 -466.246)" fill="#c6c6c6"/>
      <path id="Path_705-14" data-name="Path 705" d="M665.814,291.386a11.009,11.009,0,0,1-2.1,12.549,1.222,1.222,0,0,0-.038,1.69,1.2,1.2,0,0,0,1.718.022,13.41,13.41,0,0,0,2.566-15.328,1.2,1.2,0,0,0-1.922-.311h0A1.21,1.21,0,0,0,665.814,291.386Z" transform="translate(-600.954 -282.814)" fill="#c6c6c6"/>
      <path id="Path_706-14" data-name="Path 706" d="M565.667,255.583a11.008,11.008,0,0,1,12.549-2.1,1.21,1.21,0,0,0,1.383-.228h0a1.2,1.2,0,0,0-.311-1.922,13.41,13.41,0,0,0-15.328,2.57,1.2,1.2,0,0,0,.022,1.718A1.218,1.218,0,0,0,565.667,255.583Z" transform="translate(-518.447 -250)" fill="#c6c6c6"/>
      <path id="Path_707-14" data-name="Path 707" d="M356.111,611.511a11.008,11.008,0,0,1-12.549,2.1,1.21,1.21,0,0,0-1.383.228h0a1.2,1.2,0,0,0,.311,1.922,13.412,13.412,0,0,0,15.333-2.563,1.2,1.2,0,1,0-1.713-1.687Z" transform="translate(-334.995 -548.744)" fill="#c6c6c6"/>
      <path id="Path_708-14" data-name="Path 708" d="M305.675,525.974a11.007,11.007,0,0,1,2.1-12.547,1.222,1.222,0,0,0,.038-1.69,1.2,1.2,0,0,0-1.728-.022,13.406,13.406,0,0,0-2.556,15.326,1.2,1.2,0,0,0,1.922.311h0A1.21,1.21,0,0,0,305.675,525.974Z" transform="translate(-302.2 -466.199)" fill="#c6c6c6"/>
    </g>
    <g id="logo-15" data-name="logo" transform="translate(175.938 2983.445)" opacity="0.333">
      <path id="Path_700-15" data-name="Path 700" d="M398.313,309.542a5.546,5.546,0,0,0,4.112-5.333v-.014a5.515,5.515,0,0,0-5.515-5.515H396.9a5.544,5.544,0,0,0-5.332,4.112,15.47,15.47,0,0,1-29.823,0,5.544,5.544,0,0,0-5.332-4.112h-.014a5.515,5.515,0,0,0-5.515,5.515v.014a5.546,5.546,0,0,0,4.112,5.333,15.468,15.468,0,0,1,0,29.821,5.544,5.544,0,0,0-4.112,5.332v.012a5.513,5.513,0,0,0,5.515,5.513h.014a5.544,5.544,0,0,0,5.332-4.11,15.47,15.47,0,0,1,29.823,0,5.544,5.544,0,0,0,5.332,4.11h.014a5.515,5.515,0,0,0,5.515-5.513v-.016a5.544,5.544,0,0,0-4.112-5.332,15.468,15.468,0,0,1,0-29.821Z" transform="translate(-342.485 -290.279)" fill="#c6c6c6"/>
      <path id="Path_701-15" data-name="Path 701" d="M342.247,253.252h0a1.21,1.21,0,0,0,1.383.228,11.007,11.007,0,0,1,12.54,2.1,1.224,1.224,0,0,0,1.7.038,1.2,1.2,0,0,0,.021-1.716,13.413,13.413,0,0,0-15.323-2.573,1.2,1.2,0,0,0-.316,1.922Z" transform="translate(-335.053 -250)" fill="#c6c6c6"/>
      <path id="Path_702-15" data-name="Path 702" d="M303.532,290.332a13.411,13.411,0,0,0,2.525,15.3,1.23,1.23,0,0,0,1.612.15,1.2,1.2,0,0,0,.124-1.806,11.007,11.007,0,0,1-2.115-12.566,1.21,1.21,0,0,0-.226-1.383h0a1.2,1.2,0,0,0-1.92.308Z" transform="translate(-302.202 -282.828)" fill="#c6c6c6"/>
      <path id="Path_703-15" data-name="Path 703" d="M578.182,613.617a11.007,11.007,0,0,1-12.544-2.1,1.2,1.2,0,1,0-1.713,1.689,13.41,13.41,0,0,0,15.323,2.572,1.2,1.2,0,0,0,.311-1.922h0A1.21,1.21,0,0,0,578.182,613.617Z" transform="translate(-518.418 -548.749)" fill="#c6c6c6"/>
      <path id="Path_704-15" data-name="Path 704" d="M663.674,511.783a1.222,1.222,0,0,0,.038,1.69,11,11,0,0,1,2.1,12.559,1.21,1.21,0,0,0,.228,1.383h0a1.2,1.2,0,0,0,1.922-.311,13.413,13.413,0,0,0-2.566-15.333,1.2,1.2,0,0,0-1.72.012Z" transform="translate(-600.954 -466.246)" fill="#c6c6c6"/>
      <path id="Path_705-15" data-name="Path 705" d="M665.814,291.386a11.009,11.009,0,0,1-2.1,12.549,1.222,1.222,0,0,0-.038,1.69,1.2,1.2,0,0,0,1.718.022,13.41,13.41,0,0,0,2.566-15.328,1.2,1.2,0,0,0-1.922-.311h0A1.21,1.21,0,0,0,665.814,291.386Z" transform="translate(-600.954 -282.814)" fill="#c6c6c6"/>
      <path id="Path_706-15" data-name="Path 706" d="M565.667,255.583a11.008,11.008,0,0,1,12.549-2.1,1.21,1.21,0,0,0,1.383-.228h0a1.2,1.2,0,0,0-.311-1.922,13.41,13.41,0,0,0-15.328,2.57,1.2,1.2,0,0,0,.022,1.718A1.218,1.218,0,0,0,565.667,255.583Z" transform="translate(-518.447 -250)" fill="#c6c6c6"/>
      <path id="Path_707-15" data-name="Path 707" d="M356.111,611.511a11.008,11.008,0,0,1-12.549,2.1,1.21,1.21,0,0,0-1.383.228h0a1.2,1.2,0,0,0,.311,1.922,13.412,13.412,0,0,0,15.333-2.563,1.2,1.2,0,1,0-1.713-1.687Z" transform="translate(-334.995 -548.744)" fill="#c6c6c6"/>
      <path id="Path_708-15" data-name="Path 708" d="M305.675,525.974a11.007,11.007,0,0,1,2.1-12.547,1.222,1.222,0,0,0,.038-1.69,1.2,1.2,0,0,0-1.728-.022,13.406,13.406,0,0,0-2.556,15.326,1.2,1.2,0,0,0,1.922.311h0A1.21,1.21,0,0,0,305.675,525.974Z" transform="translate(-302.2 -466.199)" fill="#c6c6c6"/>
    </g>
    <g id="logo-16" data-name="logo" transform="translate(264.938 2983.445)" opacity="0.333">
      <path id="Path_700-16" data-name="Path 700" d="M398.313,309.542a5.546,5.546,0,0,0,4.112-5.333v-.014a5.515,5.515,0,0,0-5.515-5.515H396.9a5.544,5.544,0,0,0-5.332,4.112,15.47,15.47,0,0,1-29.823,0,5.544,5.544,0,0,0-5.332-4.112h-.014a5.515,5.515,0,0,0-5.515,5.515v.014a5.546,5.546,0,0,0,4.112,5.333,15.468,15.468,0,0,1,0,29.821,5.544,5.544,0,0,0-4.112,5.332v.012a5.513,5.513,0,0,0,5.515,5.513h.014a5.544,5.544,0,0,0,5.332-4.11,15.47,15.47,0,0,1,29.823,0,5.544,5.544,0,0,0,5.332,4.11h.014a5.515,5.515,0,0,0,5.515-5.513v-.016a5.544,5.544,0,0,0-4.112-5.332,15.468,15.468,0,0,1,0-29.821Z" transform="translate(-342.485 -290.279)" fill="#c6c6c6"/>
      <path id="Path_701-16" data-name="Path 701" d="M342.247,253.252h0a1.21,1.21,0,0,0,1.383.228,11.007,11.007,0,0,1,12.54,2.1,1.224,1.224,0,0,0,1.7.038,1.2,1.2,0,0,0,.021-1.716,13.413,13.413,0,0,0-15.323-2.573,1.2,1.2,0,0,0-.316,1.922Z" transform="translate(-335.053 -250)" fill="#c6c6c6"/>
      <path id="Path_702-16" data-name="Path 702" d="M303.532,290.332a13.411,13.411,0,0,0,2.525,15.3,1.23,1.23,0,0,0,1.612.15,1.2,1.2,0,0,0,.124-1.806,11.007,11.007,0,0,1-2.115-12.566,1.21,1.21,0,0,0-.226-1.383h0a1.2,1.2,0,0,0-1.92.308Z" transform="translate(-302.202 -282.828)" fill="#c6c6c6"/>
      <path id="Path_703-16" data-name="Path 703" d="M578.182,613.617a11.007,11.007,0,0,1-12.544-2.1,1.2,1.2,0,1,0-1.713,1.689,13.41,13.41,0,0,0,15.323,2.572,1.2,1.2,0,0,0,.311-1.922h0A1.21,1.21,0,0,0,578.182,613.617Z" transform="translate(-518.418 -548.749)" fill="#c6c6c6"/>
      <path id="Path_704-16" data-name="Path 704" d="M663.674,511.783a1.222,1.222,0,0,0,.038,1.69,11,11,0,0,1,2.1,12.559,1.21,1.21,0,0,0,.228,1.383h0a1.2,1.2,0,0,0,1.922-.311,13.413,13.413,0,0,0-2.566-15.333,1.2,1.2,0,0,0-1.72.012Z" transform="translate(-600.954 -466.246)" fill="#c6c6c6"/>
      <path id="Path_705-16" data-name="Path 705" d="M665.814,291.386a11.009,11.009,0,0,1-2.1,12.549,1.222,1.222,0,0,0-.038,1.69,1.2,1.2,0,0,0,1.718.022,13.41,13.41,0,0,0,2.566-15.328,1.2,1.2,0,0,0-1.922-.311h0A1.21,1.21,0,0,0,665.814,291.386Z" transform="translate(-600.954 -282.814)" fill="#c6c6c6"/>
      <path id="Path_706-16" data-name="Path 706" d="M565.667,255.583a11.008,11.008,0,0,1,12.549-2.1,1.21,1.21,0,0,0,1.383-.228h0a1.2,1.2,0,0,0-.311-1.922,13.41,13.41,0,0,0-15.328,2.57,1.2,1.2,0,0,0,.022,1.718A1.218,1.218,0,0,0,565.667,255.583Z" transform="translate(-518.447 -250)" fill="#c6c6c6"/>
      <path id="Path_707-16" data-name="Path 707" d="M356.111,611.511a11.008,11.008,0,0,1-12.549,2.1,1.21,1.21,0,0,0-1.383.228h0a1.2,1.2,0,0,0,.311,1.922,13.412,13.412,0,0,0,15.333-2.563,1.2,1.2,0,1,0-1.713-1.687Z" transform="translate(-334.995 -548.744)" fill="#c6c6c6"/>
      <path id="Path_708-16" data-name="Path 708" d="M305.675,525.974a11.007,11.007,0,0,1,2.1-12.547,1.222,1.222,0,0,0,.038-1.69,1.2,1.2,0,0,0-1.728-.022,13.406,13.406,0,0,0-2.556,15.326,1.2,1.2,0,0,0,1.922.311h0A1.21,1.21,0,0,0,305.675,525.974Z" transform="translate(-302.2 -466.199)" fill="#c6c6c6"/>
    </g>
    <g id="logo-17" data-name="logo" transform="translate(-2.063 3072.445)" opacity="0.333">
      <path id="Path_700-17" data-name="Path 700" d="M398.313,309.542a5.546,5.546,0,0,0,4.112-5.333v-.014a5.515,5.515,0,0,0-5.515-5.515H396.9a5.544,5.544,0,0,0-5.332,4.112,15.47,15.47,0,0,1-29.823,0,5.544,5.544,0,0,0-5.332-4.112h-.014a5.515,5.515,0,0,0-5.515,5.515v.014a5.546,5.546,0,0,0,4.112,5.333,15.468,15.468,0,0,1,0,29.821,5.544,5.544,0,0,0-4.112,5.332v.012a5.513,5.513,0,0,0,5.515,5.513h.014a5.544,5.544,0,0,0,5.332-4.11,15.47,15.47,0,0,1,29.823,0,5.544,5.544,0,0,0,5.332,4.11h.014a5.515,5.515,0,0,0,5.515-5.513v-.016a5.544,5.544,0,0,0-4.112-5.332,15.468,15.468,0,0,1,0-29.821Z" transform="translate(-342.485 -290.279)" fill="#c6c6c6"/>
      <path id="Path_701-17" data-name="Path 701" d="M342.247,253.252h0a1.21,1.21,0,0,0,1.383.228,11.007,11.007,0,0,1,12.54,2.1,1.224,1.224,0,0,0,1.7.038,1.2,1.2,0,0,0,.021-1.716,13.413,13.413,0,0,0-15.323-2.573,1.2,1.2,0,0,0-.316,1.922Z" transform="translate(-335.053 -250)" fill="#c6c6c6"/>
      <path id="Path_702-17" data-name="Path 702" d="M303.532,290.332a13.411,13.411,0,0,0,2.525,15.3,1.23,1.23,0,0,0,1.612.15,1.2,1.2,0,0,0,.124-1.806,11.007,11.007,0,0,1-2.115-12.566,1.21,1.21,0,0,0-.226-1.383h0a1.2,1.2,0,0,0-1.92.308Z" transform="translate(-302.202 -282.828)" fill="#c6c6c6"/>
      <path id="Path_703-17" data-name="Path 703" d="M578.182,613.617a11.007,11.007,0,0,1-12.544-2.1,1.2,1.2,0,1,0-1.713,1.689,13.41,13.41,0,0,0,15.323,2.572,1.2,1.2,0,0,0,.311-1.922h0A1.21,1.21,0,0,0,578.182,613.617Z" transform="translate(-518.418 -548.749)" fill="#c6c6c6"/>
      <path id="Path_704-17" data-name="Path 704" d="M663.674,511.783a1.222,1.222,0,0,0,.038,1.69,11,11,0,0,1,2.1,12.559,1.21,1.21,0,0,0,.228,1.383h0a1.2,1.2,0,0,0,1.922-.311,13.413,13.413,0,0,0-2.566-15.333,1.2,1.2,0,0,0-1.72.012Z" transform="translate(-600.954 -466.246)" fill="#c6c6c6"/>
      <path id="Path_705-17" data-name="Path 705" d="M665.814,291.386a11.009,11.009,0,0,1-2.1,12.549,1.222,1.222,0,0,0-.038,1.69,1.2,1.2,0,0,0,1.718.022,13.41,13.41,0,0,0,2.566-15.328,1.2,1.2,0,0,0-1.922-.311h0A1.21,1.21,0,0,0,665.814,291.386Z" transform="translate(-600.954 -282.814)" fill="#c6c6c6"/>
      <path id="Path_706-17" data-name="Path 706" d="M565.667,255.583a11.008,11.008,0,0,1,12.549-2.1,1.21,1.21,0,0,0,1.383-.228h0a1.2,1.2,0,0,0-.311-1.922,13.41,13.41,0,0,0-15.328,2.57,1.2,1.2,0,0,0,.022,1.718A1.218,1.218,0,0,0,565.667,255.583Z" transform="translate(-518.447 -250)" fill="#c6c6c6"/>
      <path id="Path_707-17" data-name="Path 707" d="M356.111,611.511a11.008,11.008,0,0,1-12.549,2.1,1.21,1.21,0,0,0-1.383.228h0a1.2,1.2,0,0,0,.311,1.922,13.412,13.412,0,0,0,15.333-2.563,1.2,1.2,0,1,0-1.713-1.687Z" transform="translate(-334.995 -548.744)" fill="#c6c6c6"/>
      <path id="Path_708-17" data-name="Path 708" d="M305.675,525.974a11.007,11.007,0,0,1,2.1-12.547,1.222,1.222,0,0,0,.038-1.69,1.2,1.2,0,0,0-1.728-.022,13.406,13.406,0,0,0-2.556,15.326,1.2,1.2,0,0,0,1.922.311h0A1.21,1.21,0,0,0,305.675,525.974Z" transform="translate(-302.2 -466.199)" fill="#c6c6c6"/>
    </g>
    <g id="logo-18" data-name="logo" transform="translate(86.938 3072.445)" opacity="0.333">
      <path id="Path_700-18" data-name="Path 700" d="M398.313,309.542a5.546,5.546,0,0,0,4.112-5.333v-.014a5.515,5.515,0,0,0-5.515-5.515H396.9a5.544,5.544,0,0,0-5.332,4.112,15.47,15.47,0,0,1-29.823,0,5.544,5.544,0,0,0-5.332-4.112h-.014a5.515,5.515,0,0,0-5.515,5.515v.014a5.546,5.546,0,0,0,4.112,5.333,15.468,15.468,0,0,1,0,29.821,5.544,5.544,0,0,0-4.112,5.332v.012a5.513,5.513,0,0,0,5.515,5.513h.014a5.544,5.544,0,0,0,5.332-4.11,15.47,15.47,0,0,1,29.823,0,5.544,5.544,0,0,0,5.332,4.11h.014a5.515,5.515,0,0,0,5.515-5.513v-.016a5.544,5.544,0,0,0-4.112-5.332,15.468,15.468,0,0,1,0-29.821Z" transform="translate(-342.485 -290.279)" fill="#c6c6c6"/>
      <path id="Path_701-18" data-name="Path 701" d="M342.247,253.252h0a1.21,1.21,0,0,0,1.383.228,11.007,11.007,0,0,1,12.54,2.1,1.224,1.224,0,0,0,1.7.038,1.2,1.2,0,0,0,.021-1.716,13.413,13.413,0,0,0-15.323-2.573,1.2,1.2,0,0,0-.316,1.922Z" transform="translate(-335.053 -250)" fill="#c6c6c6"/>
      <path id="Path_702-18" data-name="Path 702" d="M303.532,290.332a13.411,13.411,0,0,0,2.525,15.3,1.23,1.23,0,0,0,1.612.15,1.2,1.2,0,0,0,.124-1.806,11.007,11.007,0,0,1-2.115-12.566,1.21,1.21,0,0,0-.226-1.383h0a1.2,1.2,0,0,0-1.92.308Z" transform="translate(-302.202 -282.828)" fill="#c6c6c6"/>
      <path id="Path_703-18" data-name="Path 703" d="M578.182,613.617a11.007,11.007,0,0,1-12.544-2.1,1.2,1.2,0,1,0-1.713,1.689,13.41,13.41,0,0,0,15.323,2.572,1.2,1.2,0,0,0,.311-1.922h0A1.21,1.21,0,0,0,578.182,613.617Z" transform="translate(-518.418 -548.749)" fill="#c6c6c6"/>
      <path id="Path_704-18" data-name="Path 704" d="M663.674,511.783a1.222,1.222,0,0,0,.038,1.69,11,11,0,0,1,2.1,12.559,1.21,1.21,0,0,0,.228,1.383h0a1.2,1.2,0,0,0,1.922-.311,13.413,13.413,0,0,0-2.566-15.333,1.2,1.2,0,0,0-1.72.012Z" transform="translate(-600.954 -466.246)" fill="#c6c6c6"/>
      <path id="Path_705-18" data-name="Path 705" d="M665.814,291.386a11.009,11.009,0,0,1-2.1,12.549,1.222,1.222,0,0,0-.038,1.69,1.2,1.2,0,0,0,1.718.022,13.41,13.41,0,0,0,2.566-15.328,1.2,1.2,0,0,0-1.922-.311h0A1.21,1.21,0,0,0,665.814,291.386Z" transform="translate(-600.954 -282.814)" fill="#c6c6c6"/>
      <path id="Path_706-18" data-name="Path 706" d="M565.667,255.583a11.008,11.008,0,0,1,12.549-2.1,1.21,1.21,0,0,0,1.383-.228h0a1.2,1.2,0,0,0-.311-1.922,13.41,13.41,0,0,0-15.328,2.57,1.2,1.2,0,0,0,.022,1.718A1.218,1.218,0,0,0,565.667,255.583Z" transform="translate(-518.447 -250)" fill="#c6c6c6"/>
      <path id="Path_707-18" data-name="Path 707" d="M356.111,611.511a11.008,11.008,0,0,1-12.549,2.1,1.21,1.21,0,0,0-1.383.228h0a1.2,1.2,0,0,0,.311,1.922,13.412,13.412,0,0,0,15.333-2.563,1.2,1.2,0,1,0-1.713-1.687Z" transform="translate(-334.995 -548.744)" fill="#c6c6c6"/>
      <path id="Path_708-18" data-name="Path 708" d="M305.675,525.974a11.007,11.007,0,0,1,2.1-12.547,1.222,1.222,0,0,0,.038-1.69,1.2,1.2,0,0,0-1.728-.022,13.406,13.406,0,0,0-2.556,15.326,1.2,1.2,0,0,0,1.922.311h0A1.21,1.21,0,0,0,305.675,525.974Z" transform="translate(-302.2 -466.199)" fill="#c6c6c6"/>
    </g>
    <g id="logo-19" data-name="logo" transform="translate(175.938 3072.445)" opacity="0.333">
      <path id="Path_700-19" data-name="Path 700" d="M398.313,309.542a5.546,5.546,0,0,0,4.112-5.333v-.014a5.515,5.515,0,0,0-5.515-5.515H396.9a5.544,5.544,0,0,0-5.332,4.112,15.47,15.47,0,0,1-29.823,0,5.544,5.544,0,0,0-5.332-4.112h-.014a5.515,5.515,0,0,0-5.515,5.515v.014a5.546,5.546,0,0,0,4.112,5.333,15.468,15.468,0,0,1,0,29.821,5.544,5.544,0,0,0-4.112,5.332v.012a5.513,5.513,0,0,0,5.515,5.513h.014a5.544,5.544,0,0,0,5.332-4.11,15.47,15.47,0,0,1,29.823,0,5.544,5.544,0,0,0,5.332,4.11h.014a5.515,5.515,0,0,0,5.515-5.513v-.016a5.544,5.544,0,0,0-4.112-5.332,15.468,15.468,0,0,1,0-29.821Z" transform="translate(-342.485 -290.279)" fill="#c6c6c6"/>
      <path id="Path_701-19" data-name="Path 701" d="M342.247,253.252h0a1.21,1.21,0,0,0,1.383.228,11.007,11.007,0,0,1,12.54,2.1,1.224,1.224,0,0,0,1.7.038,1.2,1.2,0,0,0,.021-1.716,13.413,13.413,0,0,0-15.323-2.573,1.2,1.2,0,0,0-.316,1.922Z" transform="translate(-335.053 -250)" fill="#c6c6c6"/>
      <path id="Path_702-19" data-name="Path 702" d="M303.532,290.332a13.411,13.411,0,0,0,2.525,15.3,1.23,1.23,0,0,0,1.612.15,1.2,1.2,0,0,0,.124-1.806,11.007,11.007,0,0,1-2.115-12.566,1.21,1.21,0,0,0-.226-1.383h0a1.2,1.2,0,0,0-1.92.308Z" transform="translate(-302.202 -282.828)" fill="#c6c6c6"/>
      <path id="Path_703-19" data-name="Path 703" d="M578.182,613.617a11.007,11.007,0,0,1-12.544-2.1,1.2,1.2,0,1,0-1.713,1.689,13.41,13.41,0,0,0,15.323,2.572,1.2,1.2,0,0,0,.311-1.922h0A1.21,1.21,0,0,0,578.182,613.617Z" transform="translate(-518.418 -548.749)" fill="#c6c6c6"/>
      <path id="Path_704-19" data-name="Path 704" d="M663.674,511.783a1.222,1.222,0,0,0,.038,1.69,11,11,0,0,1,2.1,12.559,1.21,1.21,0,0,0,.228,1.383h0a1.2,1.2,0,0,0,1.922-.311,13.413,13.413,0,0,0-2.566-15.333,1.2,1.2,0,0,0-1.72.012Z" transform="translate(-600.954 -466.246)" fill="#c6c6c6"/>
      <path id="Path_705-19" data-name="Path 705" d="M665.814,291.386a11.009,11.009,0,0,1-2.1,12.549,1.222,1.222,0,0,0-.038,1.69,1.2,1.2,0,0,0,1.718.022,13.41,13.41,0,0,0,2.566-15.328,1.2,1.2,0,0,0-1.922-.311h0A1.21,1.21,0,0,0,665.814,291.386Z" transform="translate(-600.954 -282.814)" fill="#c6c6c6"/>
      <path id="Path_706-19" data-name="Path 706" d="M565.667,255.583a11.008,11.008,0,0,1,12.549-2.1,1.21,1.21,0,0,0,1.383-.228h0a1.2,1.2,0,0,0-.311-1.922,13.41,13.41,0,0,0-15.328,2.57,1.2,1.2,0,0,0,.022,1.718A1.218,1.218,0,0,0,565.667,255.583Z" transform="translate(-518.447 -250)" fill="#c6c6c6"/>
      <path id="Path_707-19" data-name="Path 707" d="M356.111,611.511a11.008,11.008,0,0,1-12.549,2.1,1.21,1.21,0,0,0-1.383.228h0a1.2,1.2,0,0,0,.311,1.922,13.412,13.412,0,0,0,15.333-2.563,1.2,1.2,0,1,0-1.713-1.687Z" transform="translate(-334.995 -548.744)" fill="#c6c6c6"/>
      <path id="Path_708-19" data-name="Path 708" d="M305.675,525.974a11.007,11.007,0,0,1,2.1-12.547,1.222,1.222,0,0,0,.038-1.69,1.2,1.2,0,0,0-1.728-.022,13.406,13.406,0,0,0-2.556,15.326,1.2,1.2,0,0,0,1.922.311h0A1.21,1.21,0,0,0,305.675,525.974Z" transform="translate(-302.2 -466.199)" fill="#c6c6c6"/>
    </g>
    <g id="logo-20" data-name="logo" transform="translate(264.938 3072.445)" opacity="0.333">
      <path id="Path_700-20" data-name="Path 700" d="M398.313,309.542a5.546,5.546,0,0,0,4.112-5.333v-.014a5.515,5.515,0,0,0-5.515-5.515H396.9a5.544,5.544,0,0,0-5.332,4.112,15.47,15.47,0,0,1-29.823,0,5.544,5.544,0,0,0-5.332-4.112h-.014a5.515,5.515,0,0,0-5.515,5.515v.014a5.546,5.546,0,0,0,4.112,5.333,15.468,15.468,0,0,1,0,29.821,5.544,5.544,0,0,0-4.112,5.332v.012a5.513,5.513,0,0,0,5.515,5.513h.014a5.544,5.544,0,0,0,5.332-4.11,15.47,15.47,0,0,1,29.823,0,5.544,5.544,0,0,0,5.332,4.11h.014a5.515,5.515,0,0,0,5.515-5.513v-.016a5.544,5.544,0,0,0-4.112-5.332,15.468,15.468,0,0,1,0-29.821Z" transform="translate(-342.485 -290.279)" fill="#c6c6c6"/>
      <path id="Path_701-20" data-name="Path 701" d="M342.247,253.252h0a1.21,1.21,0,0,0,1.383.228,11.007,11.007,0,0,1,12.54,2.1,1.224,1.224,0,0,0,1.7.038,1.2,1.2,0,0,0,.021-1.716,13.413,13.413,0,0,0-15.323-2.573,1.2,1.2,0,0,0-.316,1.922Z" transform="translate(-335.053 -250)" fill="#c6c6c6"/>
      <path id="Path_702-20" data-name="Path 702" d="M303.532,290.332a13.411,13.411,0,0,0,2.525,15.3,1.23,1.23,0,0,0,1.612.15,1.2,1.2,0,0,0,.124-1.806,11.007,11.007,0,0,1-2.115-12.566,1.21,1.21,0,0,0-.226-1.383h0a1.2,1.2,0,0,0-1.92.308Z" transform="translate(-302.202 -282.828)" fill="#c6c6c6"/>
      <path id="Path_703-20" data-name="Path 703" d="M578.182,613.617a11.007,11.007,0,0,1-12.544-2.1,1.2,1.2,0,1,0-1.713,1.689,13.41,13.41,0,0,0,15.323,2.572,1.2,1.2,0,0,0,.311-1.922h0A1.21,1.21,0,0,0,578.182,613.617Z" transform="translate(-518.418 -548.749)" fill="#c6c6c6"/>
      <path id="Path_704-20" data-name="Path 704" d="M663.674,511.783a1.222,1.222,0,0,0,.038,1.69,11,11,0,0,1,2.1,12.559,1.21,1.21,0,0,0,.228,1.383h0a1.2,1.2,0,0,0,1.922-.311,13.413,13.413,0,0,0-2.566-15.333,1.2,1.2,0,0,0-1.72.012Z" transform="translate(-600.954 -466.246)" fill="#c6c6c6"/>
      <path id="Path_705-20" data-name="Path 705" d="M665.814,291.386a11.009,11.009,0,0,1-2.1,12.549,1.222,1.222,0,0,0-.038,1.69,1.2,1.2,0,0,0,1.718.022,13.41,13.41,0,0,0,2.566-15.328,1.2,1.2,0,0,0-1.922-.311h0A1.21,1.21,0,0,0,665.814,291.386Z" transform="translate(-600.954 -282.814)" fill="#c6c6c6"/>
      <path id="Path_706-20" data-name="Path 706" d="M565.667,255.583a11.008,11.008,0,0,1,12.549-2.1,1.21,1.21,0,0,0,1.383-.228h0a1.2,1.2,0,0,0-.311-1.922,13.41,13.41,0,0,0-15.328,2.57,1.2,1.2,0,0,0,.022,1.718A1.218,1.218,0,0,0,565.667,255.583Z" transform="translate(-518.447 -250)" fill="#c6c6c6"/>
      <path id="Path_707-20" data-name="Path 707" d="M356.111,611.511a11.008,11.008,0,0,1-12.549,2.1,1.21,1.21,0,0,0-1.383.228h0a1.2,1.2,0,0,0,.311,1.922,13.412,13.412,0,0,0,15.333-2.563,1.2,1.2,0,1,0-1.713-1.687Z" transform="translate(-334.995 -548.744)" fill="#c6c6c6"/>
      <path id="Path_708-20" data-name="Path 708" d="M305.675,525.974a11.007,11.007,0,0,1,2.1-12.547,1.222,1.222,0,0,0,.038-1.69,1.2,1.2,0,0,0-1.728-.022,13.406,13.406,0,0,0-2.556,15.326,1.2,1.2,0,0,0,1.922.311h0A1.21,1.21,0,0,0,305.675,525.974Z" transform="translate(-302.2 -466.199)" fill="#c6c6c6"/>
    </g>
    <g id="logo-21" data-name="logo" transform="translate(-2.063 3161.445)" opacity="0.333">
      <path id="Path_700-21" data-name="Path 700" d="M398.313,309.542a5.546,5.546,0,0,0,4.112-5.333v-.014a5.515,5.515,0,0,0-5.515-5.515H396.9a5.544,5.544,0,0,0-5.332,4.112,15.47,15.47,0,0,1-29.823,0,5.544,5.544,0,0,0-5.332-4.112h-.014a5.515,5.515,0,0,0-5.515,5.515v.014a5.546,5.546,0,0,0,4.112,5.333,15.468,15.468,0,0,1,0,29.821,5.544,5.544,0,0,0-4.112,5.332v.012a5.513,5.513,0,0,0,5.515,5.513h.014a5.544,5.544,0,0,0,5.332-4.11,15.47,15.47,0,0,1,29.823,0,5.544,5.544,0,0,0,5.332,4.11h.014a5.515,5.515,0,0,0,5.515-5.513v-.016a5.544,5.544,0,0,0-4.112-5.332,15.468,15.468,0,0,1,0-29.821Z" transform="translate(-342.485 -290.279)" fill="#c6c6c6"/>
      <path id="Path_701-21" data-name="Path 701" d="M342.247,253.252h0a1.21,1.21,0,0,0,1.383.228,11.007,11.007,0,0,1,12.54,2.1,1.224,1.224,0,0,0,1.7.038,1.2,1.2,0,0,0,.021-1.716,13.413,13.413,0,0,0-15.323-2.573,1.2,1.2,0,0,0-.316,1.922Z" transform="translate(-335.053 -250)" fill="#c6c6c6"/>
      <path id="Path_702-21" data-name="Path 702" d="M303.532,290.332a13.411,13.411,0,0,0,2.525,15.3,1.23,1.23,0,0,0,1.612.15,1.2,1.2,0,0,0,.124-1.806,11.007,11.007,0,0,1-2.115-12.566,1.21,1.21,0,0,0-.226-1.383h0a1.2,1.2,0,0,0-1.92.308Z" transform="translate(-302.202 -282.828)" fill="#c6c6c6"/>
      <path id="Path_703-21" data-name="Path 703" d="M578.182,613.617a11.007,11.007,0,0,1-12.544-2.1,1.2,1.2,0,1,0-1.713,1.689,13.41,13.41,0,0,0,15.323,2.572,1.2,1.2,0,0,0,.311-1.922h0A1.21,1.21,0,0,0,578.182,613.617Z" transform="translate(-518.418 -548.749)" fill="#c6c6c6"/>
      <path id="Path_704-21" data-name="Path 704" d="M663.674,511.783a1.222,1.222,0,0,0,.038,1.69,11,11,0,0,1,2.1,12.559,1.21,1.21,0,0,0,.228,1.383h0a1.2,1.2,0,0,0,1.922-.311,13.413,13.413,0,0,0-2.566-15.333,1.2,1.2,0,0,0-1.72.012Z" transform="translate(-600.954 -466.246)" fill="#c6c6c6"/>
      <path id="Path_705-21" data-name="Path 705" d="M665.814,291.386a11.009,11.009,0,0,1-2.1,12.549,1.222,1.222,0,0,0-.038,1.69,1.2,1.2,0,0,0,1.718.022,13.41,13.41,0,0,0,2.566-15.328,1.2,1.2,0,0,0-1.922-.311h0A1.21,1.21,0,0,0,665.814,291.386Z" transform="translate(-600.954 -282.814)" fill="#c6c6c6"/>
      <path id="Path_706-21" data-name="Path 706" d="M565.667,255.583a11.008,11.008,0,0,1,12.549-2.1,1.21,1.21,0,0,0,1.383-.228h0a1.2,1.2,0,0,0-.311-1.922,13.41,13.41,0,0,0-15.328,2.57,1.2,1.2,0,0,0,.022,1.718A1.218,1.218,0,0,0,565.667,255.583Z" transform="translate(-518.447 -250)" fill="#c6c6c6"/>
      <path id="Path_707-21" data-name="Path 707" d="M356.111,611.511a11.008,11.008,0,0,1-12.549,2.1,1.21,1.21,0,0,0-1.383.228h0a1.2,1.2,0,0,0,.311,1.922,13.412,13.412,0,0,0,15.333-2.563,1.2,1.2,0,1,0-1.713-1.687Z" transform="translate(-334.995 -548.744)" fill="#c6c6c6"/>
      <path id="Path_708-21" data-name="Path 708" d="M305.675,525.974a11.007,11.007,0,0,1,2.1-12.547,1.222,1.222,0,0,0,.038-1.69,1.2,1.2,0,0,0-1.728-.022,13.406,13.406,0,0,0-2.556,15.326,1.2,1.2,0,0,0,1.922.311h0A1.21,1.21,0,0,0,305.675,525.974Z" transform="translate(-302.2 -466.199)" fill="#c6c6c6"/>
    </g>
    <g id="logo-22" data-name="logo" transform="translate(86.938 3161.445)" opacity="0.333">
      <path id="Path_700-22" data-name="Path 700" d="M398.313,309.542a5.546,5.546,0,0,0,4.112-5.333v-.014a5.515,5.515,0,0,0-5.515-5.515H396.9a5.544,5.544,0,0,0-5.332,4.112,15.47,15.47,0,0,1-29.823,0,5.544,5.544,0,0,0-5.332-4.112h-.014a5.515,5.515,0,0,0-5.515,5.515v.014a5.546,5.546,0,0,0,4.112,5.333,15.468,15.468,0,0,1,0,29.821,5.544,5.544,0,0,0-4.112,5.332v.012a5.513,5.513,0,0,0,5.515,5.513h.014a5.544,5.544,0,0,0,5.332-4.11,15.47,15.47,0,0,1,29.823,0,5.544,5.544,0,0,0,5.332,4.11h.014a5.515,5.515,0,0,0,5.515-5.513v-.016a5.544,5.544,0,0,0-4.112-5.332,15.468,15.468,0,0,1,0-29.821Z" transform="translate(-342.485 -290.279)" fill="#c6c6c6"/>
      <path id="Path_701-22" data-name="Path 701" d="M342.247,253.252h0a1.21,1.21,0,0,0,1.383.228,11.007,11.007,0,0,1,12.54,2.1,1.224,1.224,0,0,0,1.7.038,1.2,1.2,0,0,0,.021-1.716,13.413,13.413,0,0,0-15.323-2.573,1.2,1.2,0,0,0-.316,1.922Z" transform="translate(-335.053 -250)" fill="#c6c6c6"/>
      <path id="Path_702-22" data-name="Path 702" d="M303.532,290.332a13.411,13.411,0,0,0,2.525,15.3,1.23,1.23,0,0,0,1.612.15,1.2,1.2,0,0,0,.124-1.806,11.007,11.007,0,0,1-2.115-12.566,1.21,1.21,0,0,0-.226-1.383h0a1.2,1.2,0,0,0-1.92.308Z" transform="translate(-302.202 -282.828)" fill="#c6c6c6"/>
      <path id="Path_703-22" data-name="Path 703" d="M578.182,613.617a11.007,11.007,0,0,1-12.544-2.1,1.2,1.2,0,1,0-1.713,1.689,13.41,13.41,0,0,0,15.323,2.572,1.2,1.2,0,0,0,.311-1.922h0A1.21,1.21,0,0,0,578.182,613.617Z" transform="translate(-518.418 -548.749)" fill="#c6c6c6"/>
      <path id="Path_704-22" data-name="Path 704" d="M663.674,511.783a1.222,1.222,0,0,0,.038,1.69,11,11,0,0,1,2.1,12.559,1.21,1.21,0,0,0,.228,1.383h0a1.2,1.2,0,0,0,1.922-.311,13.413,13.413,0,0,0-2.566-15.333,1.2,1.2,0,0,0-1.72.012Z" transform="translate(-600.954 -466.246)" fill="#c6c6c6"/>
      <path id="Path_705-22" data-name="Path 705" d="M665.814,291.386a11.009,11.009,0,0,1-2.1,12.549,1.222,1.222,0,0,0-.038,1.69,1.2,1.2,0,0,0,1.718.022,13.41,13.41,0,0,0,2.566-15.328,1.2,1.2,0,0,0-1.922-.311h0A1.21,1.21,0,0,0,665.814,291.386Z" transform="translate(-600.954 -282.814)" fill="#c6c6c6"/>
      <path id="Path_706-22" data-name="Path 706" d="M565.667,255.583a11.008,11.008,0,0,1,12.549-2.1,1.21,1.21,0,0,0,1.383-.228h0a1.2,1.2,0,0,0-.311-1.922,13.41,13.41,0,0,0-15.328,2.57,1.2,1.2,0,0,0,.022,1.718A1.218,1.218,0,0,0,565.667,255.583Z" transform="translate(-518.447 -250)" fill="#c6c6c6"/>
      <path id="Path_707-22" data-name="Path 707" d="M356.111,611.511a11.008,11.008,0,0,1-12.549,2.1,1.21,1.21,0,0,0-1.383.228h0a1.2,1.2,0,0,0,.311,1.922,13.412,13.412,0,0,0,15.333-2.563,1.2,1.2,0,1,0-1.713-1.687Z" transform="translate(-334.995 -548.744)" fill="#c6c6c6"/>
      <path id="Path_708-22" data-name="Path 708" d="M305.675,525.974a11.007,11.007,0,0,1,2.1-12.547,1.222,1.222,0,0,0,.038-1.69,1.2,1.2,0,0,0-1.728-.022,13.406,13.406,0,0,0-2.556,15.326,1.2,1.2,0,0,0,1.922.311h0A1.21,1.21,0,0,0,305.675,525.974Z" transform="translate(-302.2 -466.199)" fill="#c6c6c6"/>
    </g>
    <g id="logo-23" data-name="logo" transform="translate(175.938 3161.445)" opacity="0.333">
      <path id="Path_700-23" data-name="Path 700" d="M398.313,309.542a5.546,5.546,0,0,0,4.112-5.333v-.014a5.515,5.515,0,0,0-5.515-5.515H396.9a5.544,5.544,0,0,0-5.332,4.112,15.47,15.47,0,0,1-29.823,0,5.544,5.544,0,0,0-5.332-4.112h-.014a5.515,5.515,0,0,0-5.515,5.515v.014a5.546,5.546,0,0,0,4.112,5.333,15.468,15.468,0,0,1,0,29.821,5.544,5.544,0,0,0-4.112,5.332v.012a5.513,5.513,0,0,0,5.515,5.513h.014a5.544,5.544,0,0,0,5.332-4.11,15.47,15.47,0,0,1,29.823,0,5.544,5.544,0,0,0,5.332,4.11h.014a5.515,5.515,0,0,0,5.515-5.513v-.016a5.544,5.544,0,0,0-4.112-5.332,15.468,15.468,0,0,1,0-29.821Z" transform="translate(-342.485 -290.279)" fill="#c6c6c6"/>
      <path id="Path_701-23" data-name="Path 701" d="M342.247,253.252h0a1.21,1.21,0,0,0,1.383.228,11.007,11.007,0,0,1,12.54,2.1,1.224,1.224,0,0,0,1.7.038,1.2,1.2,0,0,0,.021-1.716,13.413,13.413,0,0,0-15.323-2.573,1.2,1.2,0,0,0-.316,1.922Z" transform="translate(-335.053 -250)" fill="#c6c6c6"/>
      <path id="Path_702-23" data-name="Path 702" d="M303.532,290.332a13.411,13.411,0,0,0,2.525,15.3,1.23,1.23,0,0,0,1.612.15,1.2,1.2,0,0,0,.124-1.806,11.007,11.007,0,0,1-2.115-12.566,1.21,1.21,0,0,0-.226-1.383h0a1.2,1.2,0,0,0-1.92.308Z" transform="translate(-302.202 -282.828)" fill="#c6c6c6"/>
      <path id="Path_703-23" data-name="Path 703" d="M578.182,613.617a11.007,11.007,0,0,1-12.544-2.1,1.2,1.2,0,1,0-1.713,1.689,13.41,13.41,0,0,0,15.323,2.572,1.2,1.2,0,0,0,.311-1.922h0A1.21,1.21,0,0,0,578.182,613.617Z" transform="translate(-518.418 -548.749)" fill="#c6c6c6"/>
      <path id="Path_704-23" data-name="Path 704" d="M663.674,511.783a1.222,1.222,0,0,0,.038,1.69,11,11,0,0,1,2.1,12.559,1.21,1.21,0,0,0,.228,1.383h0a1.2,1.2,0,0,0,1.922-.311,13.413,13.413,0,0,0-2.566-15.333,1.2,1.2,0,0,0-1.72.012Z" transform="translate(-600.954 -466.246)" fill="#c6c6c6"/>
      <path id="Path_705-23" data-name="Path 705" d="M665.814,291.386a11.009,11.009,0,0,1-2.1,12.549,1.222,1.222,0,0,0-.038,1.69,1.2,1.2,0,0,0,1.718.022,13.41,13.41,0,0,0,2.566-15.328,1.2,1.2,0,0,0-1.922-.311h0A1.21,1.21,0,0,0,665.814,291.386Z" transform="translate(-600.954 -282.814)" fill="#c6c6c6"/>
      <path id="Path_706-23" data-name="Path 706" d="M565.667,255.583a11.008,11.008,0,0,1,12.549-2.1,1.21,1.21,0,0,0,1.383-.228h0a1.2,1.2,0,0,0-.311-1.922,13.41,13.41,0,0,0-15.328,2.57,1.2,1.2,0,0,0,.022,1.718A1.218,1.218,0,0,0,565.667,255.583Z" transform="translate(-518.447 -250)" fill="#c6c6c6"/>
      <path id="Path_707-23" data-name="Path 707" d="M356.111,611.511a11.008,11.008,0,0,1-12.549,2.1,1.21,1.21,0,0,0-1.383.228h0a1.2,1.2,0,0,0,.311,1.922,13.412,13.412,0,0,0,15.333-2.563,1.2,1.2,0,1,0-1.713-1.687Z" transform="translate(-334.995 -548.744)" fill="#c6c6c6"/>
      <path id="Path_708-23" data-name="Path 708" d="M305.675,525.974a11.007,11.007,0,0,1,2.1-12.547,1.222,1.222,0,0,0,.038-1.69,1.2,1.2,0,0,0-1.728-.022,13.406,13.406,0,0,0-2.556,15.326,1.2,1.2,0,0,0,1.922.311h0A1.21,1.21,0,0,0,305.675,525.974Z" transform="translate(-302.2 -466.199)" fill="#c6c6c6"/>
    </g>
    <g id="logo-24" data-name="logo" transform="translate(264.938 3161.445)" opacity="0.333">
      <path id="Path_700-24" data-name="Path 700" d="M398.313,309.542a5.546,5.546,0,0,0,4.112-5.333v-.014a5.515,5.515,0,0,0-5.515-5.515H396.9a5.544,5.544,0,0,0-5.332,4.112,15.47,15.47,0,0,1-29.823,0,5.544,5.544,0,0,0-5.332-4.112h-.014a5.515,5.515,0,0,0-5.515,5.515v.014a5.546,5.546,0,0,0,4.112,5.333,15.468,15.468,0,0,1,0,29.821,5.544,5.544,0,0,0-4.112,5.332v.012a5.513,5.513,0,0,0,5.515,5.513h.014a5.544,5.544,0,0,0,5.332-4.11,15.47,15.47,0,0,1,29.823,0,5.544,5.544,0,0,0,5.332,4.11h.014a5.515,5.515,0,0,0,5.515-5.513v-.016a5.544,5.544,0,0,0-4.112-5.332,15.468,15.468,0,0,1,0-29.821Z" transform="translate(-342.485 -290.279)" fill="#c6c6c6"/>
      <path id="Path_701-24" data-name="Path 701" d="M342.247,253.252h0a1.21,1.21,0,0,0,1.383.228,11.007,11.007,0,0,1,12.54,2.1,1.224,1.224,0,0,0,1.7.038,1.2,1.2,0,0,0,.021-1.716,13.413,13.413,0,0,0-15.323-2.573,1.2,1.2,0,0,0-.316,1.922Z" transform="translate(-335.053 -250)" fill="#c6c6c6"/>
      <path id="Path_702-24" data-name="Path 702" d="M303.532,290.332a13.411,13.411,0,0,0,2.525,15.3,1.23,1.23,0,0,0,1.612.15,1.2,1.2,0,0,0,.124-1.806,11.007,11.007,0,0,1-2.115-12.566,1.21,1.21,0,0,0-.226-1.383h0a1.2,1.2,0,0,0-1.92.308Z" transform="translate(-302.202 -282.828)" fill="#c6c6c6"/>
      <path id="Path_703-24" data-name="Path 703" d="M578.182,613.617a11.007,11.007,0,0,1-12.544-2.1,1.2,1.2,0,1,0-1.713,1.689,13.41,13.41,0,0,0,15.323,2.572,1.2,1.2,0,0,0,.311-1.922h0A1.21,1.21,0,0,0,578.182,613.617Z" transform="translate(-518.418 -548.749)" fill="#c6c6c6"/>
      <path id="Path_704-24" data-name="Path 704" d="M663.674,511.783a1.222,1.222,0,0,0,.038,1.69,11,11,0,0,1,2.1,12.559,1.21,1.21,0,0,0,.228,1.383h0a1.2,1.2,0,0,0,1.922-.311,13.413,13.413,0,0,0-2.566-15.333,1.2,1.2,0,0,0-1.72.012Z" transform="translate(-600.954 -466.246)" fill="#c6c6c6"/>
      <path id="Path_705-24" data-name="Path 705" d="M665.814,291.386a11.009,11.009,0,0,1-2.1,12.549,1.222,1.222,0,0,0-.038,1.69,1.2,1.2,0,0,0,1.718.022,13.41,13.41,0,0,0,2.566-15.328,1.2,1.2,0,0,0-1.922-.311h0A1.21,1.21,0,0,0,665.814,291.386Z" transform="translate(-600.954 -282.814)" fill="#c6c6c6"/>
      <path id="Path_706-24" data-name="Path 706" d="M565.667,255.583a11.008,11.008,0,0,1,12.549-2.1,1.21,1.21,0,0,0,1.383-.228h0a1.2,1.2,0,0,0-.311-1.922,13.41,13.41,0,0,0-15.328,2.57,1.2,1.2,0,0,0,.022,1.718A1.218,1.218,0,0,0,565.667,255.583Z" transform="translate(-518.447 -250)" fill="#c6c6c6"/>
      <path id="Path_707-24" data-name="Path 707" d="M356.111,611.511a11.008,11.008,0,0,1-12.549,2.1,1.21,1.21,0,0,0-1.383.228h0a1.2,1.2,0,0,0,.311,1.922,13.412,13.412,0,0,0,15.333-2.563,1.2,1.2,0,1,0-1.713-1.687Z" transform="translate(-334.995 -548.744)" fill="#c6c6c6"/>
      <path id="Path_708-24" data-name="Path 708" d="M305.675,525.974a11.007,11.007,0,0,1,2.1-12.547,1.222,1.222,0,0,0,.038-1.69,1.2,1.2,0,0,0-1.728-.022,13.406,13.406,0,0,0-2.556,15.326,1.2,1.2,0,0,0,1.922.311h0A1.21,1.21,0,0,0,305.675,525.974Z" transform="translate(-302.2 -466.199)" fill="#c6c6c6"/>
    </g>
    <g id="logo-25" data-name="logo" transform="translate(-2.063 3250.445)" opacity="0.333">
      <path id="Path_700-25" data-name="Path 700" d="M398.313,309.542a5.546,5.546,0,0,0,4.112-5.333v-.014a5.515,5.515,0,0,0-5.515-5.515H396.9a5.544,5.544,0,0,0-5.332,4.112,15.47,15.47,0,0,1-29.823,0,5.544,5.544,0,0,0-5.332-4.112h-.014a5.515,5.515,0,0,0-5.515,5.515v.014a5.546,5.546,0,0,0,4.112,5.333,15.468,15.468,0,0,1,0,29.821,5.544,5.544,0,0,0-4.112,5.332v.012a5.513,5.513,0,0,0,5.515,5.513h.014a5.544,5.544,0,0,0,5.332-4.11,15.47,15.47,0,0,1,29.823,0,5.544,5.544,0,0,0,5.332,4.11h.014a5.515,5.515,0,0,0,5.515-5.513v-.016a5.544,5.544,0,0,0-4.112-5.332,15.468,15.468,0,0,1,0-29.821Z" transform="translate(-342.485 -290.279)" fill="#c6c6c6"/>
      <path id="Path_701-25" data-name="Path 701" d="M342.247,253.252h0a1.21,1.21,0,0,0,1.383.228,11.007,11.007,0,0,1,12.54,2.1,1.224,1.224,0,0,0,1.7.038,1.2,1.2,0,0,0,.021-1.716,13.413,13.413,0,0,0-15.323-2.573,1.2,1.2,0,0,0-.316,1.922Z" transform="translate(-335.053 -250)" fill="#c6c6c6"/>
      <path id="Path_702-25" data-name="Path 702" d="M303.532,290.332a13.411,13.411,0,0,0,2.525,15.3,1.23,1.23,0,0,0,1.612.15,1.2,1.2,0,0,0,.124-1.806,11.007,11.007,0,0,1-2.115-12.566,1.21,1.21,0,0,0-.226-1.383h0a1.2,1.2,0,0,0-1.92.308Z" transform="translate(-302.202 -282.828)" fill="#c6c6c6"/>
      <path id="Path_703-25" data-name="Path 703" d="M578.182,613.617a11.007,11.007,0,0,1-12.544-2.1,1.2,1.2,0,1,0-1.713,1.689,13.41,13.41,0,0,0,15.323,2.572,1.2,1.2,0,0,0,.311-1.922h0A1.21,1.21,0,0,0,578.182,613.617Z" transform="translate(-518.418 -548.749)" fill="#c6c6c6"/>
      <path id="Path_704-25" data-name="Path 704" d="M663.674,511.783a1.222,1.222,0,0,0,.038,1.69,11,11,0,0,1,2.1,12.559,1.21,1.21,0,0,0,.228,1.383h0a1.2,1.2,0,0,0,1.922-.311,13.413,13.413,0,0,0-2.566-15.333,1.2,1.2,0,0,0-1.72.012Z" transform="translate(-600.954 -466.246)" fill="#c6c6c6"/>
      <path id="Path_705-25" data-name="Path 705" d="M665.814,291.386a11.009,11.009,0,0,1-2.1,12.549,1.222,1.222,0,0,0-.038,1.69,1.2,1.2,0,0,0,1.718.022,13.41,13.41,0,0,0,2.566-15.328,1.2,1.2,0,0,0-1.922-.311h0A1.21,1.21,0,0,0,665.814,291.386Z" transform="translate(-600.954 -282.814)" fill="#c6c6c6"/>
      <path id="Path_706-25" data-name="Path 706" d="M565.667,255.583a11.008,11.008,0,0,1,12.549-2.1,1.21,1.21,0,0,0,1.383-.228h0a1.2,1.2,0,0,0-.311-1.922,13.41,13.41,0,0,0-15.328,2.57,1.2,1.2,0,0,0,.022,1.718A1.218,1.218,0,0,0,565.667,255.583Z" transform="translate(-518.447 -250)" fill="#c6c6c6"/>
      <path id="Path_707-25" data-name="Path 707" d="M356.111,611.511a11.008,11.008,0,0,1-12.549,2.1,1.21,1.21,0,0,0-1.383.228h0a1.2,1.2,0,0,0,.311,1.922,13.412,13.412,0,0,0,15.333-2.563,1.2,1.2,0,1,0-1.713-1.687Z" transform="translate(-334.995 -548.744)" fill="#c6c6c6"/>
      <path id="Path_708-25" data-name="Path 708" d="M305.675,525.974a11.007,11.007,0,0,1,2.1-12.547,1.222,1.222,0,0,0,.038-1.69,1.2,1.2,0,0,0-1.728-.022,13.406,13.406,0,0,0-2.556,15.326,1.2,1.2,0,0,0,1.922.311h0A1.21,1.21,0,0,0,305.675,525.974Z" transform="translate(-302.2 -466.199)" fill="#c6c6c6"/>
    </g>
    <g id="logo-26" data-name="logo" transform="translate(86.938 3250.445)" opacity="0.333">
      <path id="Path_700-26" data-name="Path 700" d="M398.313,309.542a5.546,5.546,0,0,0,4.112-5.333v-.014a5.515,5.515,0,0,0-5.515-5.515H396.9a5.544,5.544,0,0,0-5.332,4.112,15.47,15.47,0,0,1-29.823,0,5.544,5.544,0,0,0-5.332-4.112h-.014a5.515,5.515,0,0,0-5.515,5.515v.014a5.546,5.546,0,0,0,4.112,5.333,15.468,15.468,0,0,1,0,29.821,5.544,5.544,0,0,0-4.112,5.332v.012a5.513,5.513,0,0,0,5.515,5.513h.014a5.544,5.544,0,0,0,5.332-4.11,15.47,15.47,0,0,1,29.823,0,5.544,5.544,0,0,0,5.332,4.11h.014a5.515,5.515,0,0,0,5.515-5.513v-.016a5.544,5.544,0,0,0-4.112-5.332,15.468,15.468,0,0,1,0-29.821Z" transform="translate(-342.485 -290.279)" fill="#c6c6c6"/>
      <path id="Path_701-26" data-name="Path 701" d="M342.247,253.252h0a1.21,1.21,0,0,0,1.383.228,11.007,11.007,0,0,1,12.54,2.1,1.224,1.224,0,0,0,1.7.038,1.2,1.2,0,0,0,.021-1.716,13.413,13.413,0,0,0-15.323-2.573,1.2,1.2,0,0,0-.316,1.922Z" transform="translate(-335.053 -250)" fill="#c6c6c6"/>
      <path id="Path_702-26" data-name="Path 702" d="M303.532,290.332a13.411,13.411,0,0,0,2.525,15.3,1.23,1.23,0,0,0,1.612.15,1.2,1.2,0,0,0,.124-1.806,11.007,11.007,0,0,1-2.115-12.566,1.21,1.21,0,0,0-.226-1.383h0a1.2,1.2,0,0,0-1.92.308Z" transform="translate(-302.202 -282.828)" fill="#c6c6c6"/>
      <path id="Path_703-26" data-name="Path 703" d="M578.182,613.617a11.007,11.007,0,0,1-12.544-2.1,1.2,1.2,0,1,0-1.713,1.689,13.41,13.41,0,0,0,15.323,2.572,1.2,1.2,0,0,0,.311-1.922h0A1.21,1.21,0,0,0,578.182,613.617Z" transform="translate(-518.418 -548.749)" fill="#c6c6c6"/>
      <path id="Path_704-26" data-name="Path 704" d="M663.674,511.783a1.222,1.222,0,0,0,.038,1.69,11,11,0,0,1,2.1,12.559,1.21,1.21,0,0,0,.228,1.383h0a1.2,1.2,0,0,0,1.922-.311,13.413,13.413,0,0,0-2.566-15.333,1.2,1.2,0,0,0-1.72.012Z" transform="translate(-600.954 -466.246)" fill="#c6c6c6"/>
      <path id="Path_705-26" data-name="Path 705" d="M665.814,291.386a11.009,11.009,0,0,1-2.1,12.549,1.222,1.222,0,0,0-.038,1.69,1.2,1.2,0,0,0,1.718.022,13.41,13.41,0,0,0,2.566-15.328,1.2,1.2,0,0,0-1.922-.311h0A1.21,1.21,0,0,0,665.814,291.386Z" transform="translate(-600.954 -282.814)" fill="#c6c6c6"/>
      <path id="Path_706-26" data-name="Path 706" d="M565.667,255.583a11.008,11.008,0,0,1,12.549-2.1,1.21,1.21,0,0,0,1.383-.228h0a1.2,1.2,0,0,0-.311-1.922,13.41,13.41,0,0,0-15.328,2.57,1.2,1.2,0,0,0,.022,1.718A1.218,1.218,0,0,0,565.667,255.583Z" transform="translate(-518.447 -250)" fill="#c6c6c6"/>
      <path id="Path_707-26" data-name="Path 707" d="M356.111,611.511a11.008,11.008,0,0,1-12.549,2.1,1.21,1.21,0,0,0-1.383.228h0a1.2,1.2,0,0,0,.311,1.922,13.412,13.412,0,0,0,15.333-2.563,1.2,1.2,0,1,0-1.713-1.687Z" transform="translate(-334.995 -548.744)" fill="#c6c6c6"/>
      <path id="Path_708-26" data-name="Path 708" d="M305.675,525.974a11.007,11.007,0,0,1,2.1-12.547,1.222,1.222,0,0,0,.038-1.69,1.2,1.2,0,0,0-1.728-.022,13.406,13.406,0,0,0-2.556,15.326,1.2,1.2,0,0,0,1.922.311h0A1.21,1.21,0,0,0,305.675,525.974Z" transform="translate(-302.2 -466.199)" fill="#c6c6c6"/>
    </g>
    <g id="logo-27" data-name="logo" transform="translate(175.938 3250.445)" opacity="0.333">
      <path id="Path_700-27" data-name="Path 700" d="M398.313,309.542a5.546,5.546,0,0,0,4.112-5.333v-.014a5.515,5.515,0,0,0-5.515-5.515H396.9a5.544,5.544,0,0,0-5.332,4.112,15.47,15.47,0,0,1-29.823,0,5.544,5.544,0,0,0-5.332-4.112h-.014a5.515,5.515,0,0,0-5.515,5.515v.014a5.546,5.546,0,0,0,4.112,5.333,15.468,15.468,0,0,1,0,29.821,5.544,5.544,0,0,0-4.112,5.332v.012a5.513,5.513,0,0,0,5.515,5.513h.014a5.544,5.544,0,0,0,5.332-4.11,15.47,15.47,0,0,1,29.823,0,5.544,5.544,0,0,0,5.332,4.11h.014a5.515,5.515,0,0,0,5.515-5.513v-.016a5.544,5.544,0,0,0-4.112-5.332,15.468,15.468,0,0,1,0-29.821Z" transform="translate(-342.485 -290.279)" fill="#c6c6c6"/>
      <path id="Path_701-27" data-name="Path 701" d="M342.247,253.252h0a1.21,1.21,0,0,0,1.383.228,11.007,11.007,0,0,1,12.54,2.1,1.224,1.224,0,0,0,1.7.038,1.2,1.2,0,0,0,.021-1.716,13.413,13.413,0,0,0-15.323-2.573,1.2,1.2,0,0,0-.316,1.922Z" transform="translate(-335.053 -250)" fill="#c6c6c6"/>
      <path id="Path_702-27" data-name="Path 702" d="M303.532,290.332a13.411,13.411,0,0,0,2.525,15.3,1.23,1.23,0,0,0,1.612.15,1.2,1.2,0,0,0,.124-1.806,11.007,11.007,0,0,1-2.115-12.566,1.21,1.21,0,0,0-.226-1.383h0a1.2,1.2,0,0,0-1.92.308Z" transform="translate(-302.202 -282.828)" fill="#c6c6c6"/>
      <path id="Path_703-27" data-name="Path 703" d="M578.182,613.617a11.007,11.007,0,0,1-12.544-2.1,1.2,1.2,0,1,0-1.713,1.689,13.41,13.41,0,0,0,15.323,2.572,1.2,1.2,0,0,0,.311-1.922h0A1.21,1.21,0,0,0,578.182,613.617Z" transform="translate(-518.418 -548.749)" fill="#c6c6c6"/>
      <path id="Path_704-27" data-name="Path 704" d="M663.674,511.783a1.222,1.222,0,0,0,.038,1.69,11,11,0,0,1,2.1,12.559,1.21,1.21,0,0,0,.228,1.383h0a1.2,1.2,0,0,0,1.922-.311,13.413,13.413,0,0,0-2.566-15.333,1.2,1.2,0,0,0-1.72.012Z" transform="translate(-600.954 -466.246)" fill="#c6c6c6"/>
      <path id="Path_705-27" data-name="Path 705" d="M665.814,291.386a11.009,11.009,0,0,1-2.1,12.549,1.222,1.222,0,0,0-.038,1.69,1.2,1.2,0,0,0,1.718.022,13.41,13.41,0,0,0,2.566-15.328,1.2,1.2,0,0,0-1.922-.311h0A1.21,1.21,0,0,0,665.814,291.386Z" transform="translate(-600.954 -282.814)" fill="#c6c6c6"/>
      <path id="Path_706-27" data-name="Path 706" d="M565.667,255.583a11.008,11.008,0,0,1,12.549-2.1,1.21,1.21,0,0,0,1.383-.228h0a1.2,1.2,0,0,0-.311-1.922,13.41,13.41,0,0,0-15.328,2.57,1.2,1.2,0,0,0,.022,1.718A1.218,1.218,0,0,0,565.667,255.583Z" transform="translate(-518.447 -250)" fill="#c6c6c6"/>
      <path id="Path_707-27" data-name="Path 707" d="M356.111,611.511a11.008,11.008,0,0,1-12.549,2.1,1.21,1.21,0,0,0-1.383.228h0a1.2,1.2,0,0,0,.311,1.922,13.412,13.412,0,0,0,15.333-2.563,1.2,1.2,0,1,0-1.713-1.687Z" transform="translate(-334.995 -548.744)" fill="#c6c6c6"/>
      <path id="Path_708-27" data-name="Path 708" d="M305.675,525.974a11.007,11.007,0,0,1,2.1-12.547,1.222,1.222,0,0,0,.038-1.69,1.2,1.2,0,0,0-1.728-.022,13.406,13.406,0,0,0-2.556,15.326,1.2,1.2,0,0,0,1.922.311h0A1.21,1.21,0,0,0,305.675,525.974Z" transform="translate(-302.2 -466.199)" fill="#c6c6c6"/>
    </g>
    <g id="logo-28" data-name="logo" transform="translate(264.938 3250.445)" opacity="0.333">
      <path id="Path_700-28" data-name="Path 700" d="M398.313,309.542a5.546,5.546,0,0,0,4.112-5.333v-.014a5.515,5.515,0,0,0-5.515-5.515H396.9a5.544,5.544,0,0,0-5.332,4.112,15.47,15.47,0,0,1-29.823,0,5.544,5.544,0,0,0-5.332-4.112h-.014a5.515,5.515,0,0,0-5.515,5.515v.014a5.546,5.546,0,0,0,4.112,5.333,15.468,15.468,0,0,1,0,29.821,5.544,5.544,0,0,0-4.112,5.332v.012a5.513,5.513,0,0,0,5.515,5.513h.014a5.544,5.544,0,0,0,5.332-4.11,15.47,15.47,0,0,1,29.823,0,5.544,5.544,0,0,0,5.332,4.11h.014a5.515,5.515,0,0,0,5.515-5.513v-.016a5.544,5.544,0,0,0-4.112-5.332,15.468,15.468,0,0,1,0-29.821Z" transform="translate(-342.485 -290.279)" fill="#c6c6c6"/>
      <path id="Path_701-28" data-name="Path 701" d="M342.247,253.252h0a1.21,1.21,0,0,0,1.383.228,11.007,11.007,0,0,1,12.54,2.1,1.224,1.224,0,0,0,1.7.038,1.2,1.2,0,0,0,.021-1.716,13.413,13.413,0,0,0-15.323-2.573,1.2,1.2,0,0,0-.316,1.922Z" transform="translate(-335.053 -250)" fill="#c6c6c6"/>
      <path id="Path_702-28" data-name="Path 702" d="M303.532,290.332a13.411,13.411,0,0,0,2.525,15.3,1.23,1.23,0,0,0,1.612.15,1.2,1.2,0,0,0,.124-1.806,11.007,11.007,0,0,1-2.115-12.566,1.21,1.21,0,0,0-.226-1.383h0a1.2,1.2,0,0,0-1.92.308Z" transform="translate(-302.202 -282.828)" fill="#c6c6c6"/>
      <path id="Path_703-28" data-name="Path 703" d="M578.182,613.617a11.007,11.007,0,0,1-12.544-2.1,1.2,1.2,0,1,0-1.713,1.689,13.41,13.41,0,0,0,15.323,2.572,1.2,1.2,0,0,0,.311-1.922h0A1.21,1.21,0,0,0,578.182,613.617Z" transform="translate(-518.418 -548.749)" fill="#c6c6c6"/>
      <path id="Path_704-28" data-name="Path 704" d="M663.674,511.783a1.222,1.222,0,0,0,.038,1.69,11,11,0,0,1,2.1,12.559,1.21,1.21,0,0,0,.228,1.383h0a1.2,1.2,0,0,0,1.922-.311,13.413,13.413,0,0,0-2.566-15.333,1.2,1.2,0,0,0-1.72.012Z" transform="translate(-600.954 -466.246)" fill="#c6c6c6"/>
      <path id="Path_705-28" data-name="Path 705" d="M665.814,291.386a11.009,11.009,0,0,1-2.1,12.549,1.222,1.222,0,0,0-.038,1.69,1.2,1.2,0,0,0,1.718.022,13.41,13.41,0,0,0,2.566-15.328,1.2,1.2,0,0,0-1.922-.311h0A1.21,1.21,0,0,0,665.814,291.386Z" transform="translate(-600.954 -282.814)" fill="#c6c6c6"/>
      <path id="Path_706-28" data-name="Path 706" d="M565.667,255.583a11.008,11.008,0,0,1,12.549-2.1,1.21,1.21,0,0,0,1.383-.228h0a1.2,1.2,0,0,0-.311-1.922,13.41,13.41,0,0,0-15.328,2.57,1.2,1.2,0,0,0,.022,1.718A1.218,1.218,0,0,0,565.667,255.583Z" transform="translate(-518.447 -250)" fill="#c6c6c6"/>
      <path id="Path_707-28" data-name="Path 707" d="M356.111,611.511a11.008,11.008,0,0,1-12.549,2.1,1.21,1.21,0,0,0-1.383.228h0a1.2,1.2,0,0,0,.311,1.922,13.412,13.412,0,0,0,15.333-2.563,1.2,1.2,0,1,0-1.713-1.687Z" transform="translate(-334.995 -548.744)" fill="#c6c6c6"/>
      <path id="Path_708-28" data-name="Path 708" d="M305.675,525.974a11.007,11.007,0,0,1,2.1-12.547,1.222,1.222,0,0,0,.038-1.69,1.2,1.2,0,0,0-1.728-.022,13.406,13.406,0,0,0-2.556,15.326,1.2,1.2,0,0,0,1.922.311h0A1.21,1.21,0,0,0,305.675,525.974Z" transform="translate(-302.2 -466.199)" fill="#c6c6c6"/>
    </g>
    <g id="logo-29" data-name="logo" transform="translate(-2.063 3339.445)" opacity="0.333">
      <path id="Path_700-29" data-name="Path 700" d="M398.313,309.542a5.546,5.546,0,0,0,4.112-5.333v-.014a5.515,5.515,0,0,0-5.515-5.515H396.9a5.544,5.544,0,0,0-5.332,4.112,15.47,15.47,0,0,1-29.823,0,5.544,5.544,0,0,0-5.332-4.112h-.014a5.515,5.515,0,0,0-5.515,5.515v.014a5.546,5.546,0,0,0,4.112,5.333,15.468,15.468,0,0,1,0,29.821,5.544,5.544,0,0,0-4.112,5.332v.012a5.513,5.513,0,0,0,5.515,5.513h.014a5.544,5.544,0,0,0,5.332-4.11,15.47,15.47,0,0,1,29.823,0,5.544,5.544,0,0,0,5.332,4.11h.014a5.515,5.515,0,0,0,5.515-5.513v-.016a5.544,5.544,0,0,0-4.112-5.332,15.468,15.468,0,0,1,0-29.821Z" transform="translate(-342.485 -290.279)" fill="#c6c6c6"/>
      <path id="Path_701-29" data-name="Path 701" d="M342.247,253.252h0a1.21,1.21,0,0,0,1.383.228,11.007,11.007,0,0,1,12.54,2.1,1.224,1.224,0,0,0,1.7.038,1.2,1.2,0,0,0,.021-1.716,13.413,13.413,0,0,0-15.323-2.573,1.2,1.2,0,0,0-.316,1.922Z" transform="translate(-335.053 -250)" fill="#c6c6c6"/>
      <path id="Path_702-29" data-name="Path 702" d="M303.532,290.332a13.411,13.411,0,0,0,2.525,15.3,1.23,1.23,0,0,0,1.612.15,1.2,1.2,0,0,0,.124-1.806,11.007,11.007,0,0,1-2.115-12.566,1.21,1.21,0,0,0-.226-1.383h0a1.2,1.2,0,0,0-1.92.308Z" transform="translate(-302.202 -282.828)" fill="#c6c6c6"/>
      <path id="Path_703-29" data-name="Path 703" d="M578.182,613.617a11.007,11.007,0,0,1-12.544-2.1,1.2,1.2,0,1,0-1.713,1.689,13.41,13.41,0,0,0,15.323,2.572,1.2,1.2,0,0,0,.311-1.922h0A1.21,1.21,0,0,0,578.182,613.617Z" transform="translate(-518.418 -548.749)" fill="#c6c6c6"/>
      <path id="Path_704-29" data-name="Path 704" d="M663.674,511.783a1.222,1.222,0,0,0,.038,1.69,11,11,0,0,1,2.1,12.559,1.21,1.21,0,0,0,.228,1.383h0a1.2,1.2,0,0,0,1.922-.311,13.413,13.413,0,0,0-2.566-15.333,1.2,1.2,0,0,0-1.72.012Z" transform="translate(-600.954 -466.246)" fill="#c6c6c6"/>
      <path id="Path_705-29" data-name="Path 705" d="M665.814,291.386a11.009,11.009,0,0,1-2.1,12.549,1.222,1.222,0,0,0-.038,1.69,1.2,1.2,0,0,0,1.718.022,13.41,13.41,0,0,0,2.566-15.328,1.2,1.2,0,0,0-1.922-.311h0A1.21,1.21,0,0,0,665.814,291.386Z" transform="translate(-600.954 -282.814)" fill="#c6c6c6"/>
      <path id="Path_706-29" data-name="Path 706" d="M565.667,255.583a11.008,11.008,0,0,1,12.549-2.1,1.21,1.21,0,0,0,1.383-.228h0a1.2,1.2,0,0,0-.311-1.922,13.41,13.41,0,0,0-15.328,2.57,1.2,1.2,0,0,0,.022,1.718A1.218,1.218,0,0,0,565.667,255.583Z" transform="translate(-518.447 -250)" fill="#c6c6c6"/>
      <path id="Path_707-29" data-name="Path 707" d="M356.111,611.511a11.008,11.008,0,0,1-12.549,2.1,1.21,1.21,0,0,0-1.383.228h0a1.2,1.2,0,0,0,.311,1.922,13.412,13.412,0,0,0,15.333-2.563,1.2,1.2,0,1,0-1.713-1.687Z" transform="translate(-334.995 -548.744)" fill="#c6c6c6"/>
      <path id="Path_708-29" data-name="Path 708" d="M305.675,525.974a11.007,11.007,0,0,1,2.1-12.547,1.222,1.222,0,0,0,.038-1.69,1.2,1.2,0,0,0-1.728-.022,13.406,13.406,0,0,0-2.556,15.326,1.2,1.2,0,0,0,1.922.311h0A1.21,1.21,0,0,0,305.675,525.974Z" transform="translate(-302.2 -466.199)" fill="#c6c6c6"/>
    </g>
    <g id="logo-30" data-name="logo" transform="translate(86.938 3339.445)" opacity="0.333">
      <path id="Path_700-30" data-name="Path 700" d="M398.313,309.542a5.546,5.546,0,0,0,4.112-5.333v-.014a5.515,5.515,0,0,0-5.515-5.515H396.9a5.544,5.544,0,0,0-5.332,4.112,15.47,15.47,0,0,1-29.823,0,5.544,5.544,0,0,0-5.332-4.112h-.014a5.515,5.515,0,0,0-5.515,5.515v.014a5.546,5.546,0,0,0,4.112,5.333,15.468,15.468,0,0,1,0,29.821,5.544,5.544,0,0,0-4.112,5.332v.012a5.513,5.513,0,0,0,5.515,5.513h.014a5.544,5.544,0,0,0,5.332-4.11,15.47,15.47,0,0,1,29.823,0,5.544,5.544,0,0,0,5.332,4.11h.014a5.515,5.515,0,0,0,5.515-5.513v-.016a5.544,5.544,0,0,0-4.112-5.332,15.468,15.468,0,0,1,0-29.821Z" transform="translate(-342.485 -290.279)" fill="#c6c6c6"/>
      <path id="Path_701-30" data-name="Path 701" d="M342.247,253.252h0a1.21,1.21,0,0,0,1.383.228,11.007,11.007,0,0,1,12.54,2.1,1.224,1.224,0,0,0,1.7.038,1.2,1.2,0,0,0,.021-1.716,13.413,13.413,0,0,0-15.323-2.573,1.2,1.2,0,0,0-.316,1.922Z" transform="translate(-335.053 -250)" fill="#c6c6c6"/>
      <path id="Path_702-30" data-name="Path 702" d="M303.532,290.332a13.411,13.411,0,0,0,2.525,15.3,1.23,1.23,0,0,0,1.612.15,1.2,1.2,0,0,0,.124-1.806,11.007,11.007,0,0,1-2.115-12.566,1.21,1.21,0,0,0-.226-1.383h0a1.2,1.2,0,0,0-1.92.308Z" transform="translate(-302.202 -282.828)" fill="#c6c6c6"/>
      <path id="Path_703-30" data-name="Path 703" d="M578.182,613.617a11.007,11.007,0,0,1-12.544-2.1,1.2,1.2,0,1,0-1.713,1.689,13.41,13.41,0,0,0,15.323,2.572,1.2,1.2,0,0,0,.311-1.922h0A1.21,1.21,0,0,0,578.182,613.617Z" transform="translate(-518.418 -548.749)" fill="#c6c6c6"/>
      <path id="Path_704-30" data-name="Path 704" d="M663.674,511.783a1.222,1.222,0,0,0,.038,1.69,11,11,0,0,1,2.1,12.559,1.21,1.21,0,0,0,.228,1.383h0a1.2,1.2,0,0,0,1.922-.311,13.413,13.413,0,0,0-2.566-15.333,1.2,1.2,0,0,0-1.72.012Z" transform="translate(-600.954 -466.246)" fill="#c6c6c6"/>
      <path id="Path_705-30" data-name="Path 705" d="M665.814,291.386a11.009,11.009,0,0,1-2.1,12.549,1.222,1.222,0,0,0-.038,1.69,1.2,1.2,0,0,0,1.718.022,13.41,13.41,0,0,0,2.566-15.328,1.2,1.2,0,0,0-1.922-.311h0A1.21,1.21,0,0,0,665.814,291.386Z" transform="translate(-600.954 -282.814)" fill="#c6c6c6"/>
      <path id="Path_706-30" data-name="Path 706" d="M565.667,255.583a11.008,11.008,0,0,1,12.549-2.1,1.21,1.21,0,0,0,1.383-.228h0a1.2,1.2,0,0,0-.311-1.922,13.41,13.41,0,0,0-15.328,2.57,1.2,1.2,0,0,0,.022,1.718A1.218,1.218,0,0,0,565.667,255.583Z" transform="translate(-518.447 -250)" fill="#c6c6c6"/>
      <path id="Path_707-30" data-name="Path 707" d="M356.111,611.511a11.008,11.008,0,0,1-12.549,2.1,1.21,1.21,0,0,0-1.383.228h0a1.2,1.2,0,0,0,.311,1.922,13.412,13.412,0,0,0,15.333-2.563,1.2,1.2,0,1,0-1.713-1.687Z" transform="translate(-334.995 -548.744)" fill="#c6c6c6"/>
      <path id="Path_708-30" data-name="Path 708" d="M305.675,525.974a11.007,11.007,0,0,1,2.1-12.547,1.222,1.222,0,0,0,.038-1.69,1.2,1.2,0,0,0-1.728-.022,13.406,13.406,0,0,0-2.556,15.326,1.2,1.2,0,0,0,1.922.311h0A1.21,1.21,0,0,0,305.675,525.974Z" transform="translate(-302.2 -466.199)" fill="#c6c6c6"/>
    </g>
    <g id="logo-31" data-name="logo" transform="translate(175.938 3339.445)" opacity="0.333">
      <path id="Path_700-31" data-name="Path 700" d="M398.313,309.542a5.546,5.546,0,0,0,4.112-5.333v-.014a5.515,5.515,0,0,0-5.515-5.515H396.9a5.544,5.544,0,0,0-5.332,4.112,15.47,15.47,0,0,1-29.823,0,5.544,5.544,0,0,0-5.332-4.112h-.014a5.515,5.515,0,0,0-5.515,5.515v.014a5.546,5.546,0,0,0,4.112,5.333,15.468,15.468,0,0,1,0,29.821,5.544,5.544,0,0,0-4.112,5.332v.012a5.513,5.513,0,0,0,5.515,5.513h.014a5.544,5.544,0,0,0,5.332-4.11,15.47,15.47,0,0,1,29.823,0,5.544,5.544,0,0,0,5.332,4.11h.014a5.515,5.515,0,0,0,5.515-5.513v-.016a5.544,5.544,0,0,0-4.112-5.332,15.468,15.468,0,0,1,0-29.821Z" transform="translate(-342.485 -290.279)" fill="#c6c6c6"/>
      <path id="Path_701-31" data-name="Path 701" d="M342.247,253.252h0a1.21,1.21,0,0,0,1.383.228,11.007,11.007,0,0,1,12.54,2.1,1.224,1.224,0,0,0,1.7.038,1.2,1.2,0,0,0,.021-1.716,13.413,13.413,0,0,0-15.323-2.573,1.2,1.2,0,0,0-.316,1.922Z" transform="translate(-335.053 -250)" fill="#c6c6c6"/>
      <path id="Path_702-31" data-name="Path 702" d="M303.532,290.332a13.411,13.411,0,0,0,2.525,15.3,1.23,1.23,0,0,0,1.612.15,1.2,1.2,0,0,0,.124-1.806,11.007,11.007,0,0,1-2.115-12.566,1.21,1.21,0,0,0-.226-1.383h0a1.2,1.2,0,0,0-1.92.308Z" transform="translate(-302.202 -282.828)" fill="#c6c6c6"/>
      <path id="Path_703-31" data-name="Path 703" d="M578.182,613.617a11.007,11.007,0,0,1-12.544-2.1,1.2,1.2,0,1,0-1.713,1.689,13.41,13.41,0,0,0,15.323,2.572,1.2,1.2,0,0,0,.311-1.922h0A1.21,1.21,0,0,0,578.182,613.617Z" transform="translate(-518.418 -548.749)" fill="#c6c6c6"/>
      <path id="Path_704-31" data-name="Path 704" d="M663.674,511.783a1.222,1.222,0,0,0,.038,1.69,11,11,0,0,1,2.1,12.559,1.21,1.21,0,0,0,.228,1.383h0a1.2,1.2,0,0,0,1.922-.311,13.413,13.413,0,0,0-2.566-15.333,1.2,1.2,0,0,0-1.72.012Z" transform="translate(-600.954 -466.246)" fill="#c6c6c6"/>
      <path id="Path_705-31" data-name="Path 705" d="M665.814,291.386a11.009,11.009,0,0,1-2.1,12.549,1.222,1.222,0,0,0-.038,1.69,1.2,1.2,0,0,0,1.718.022,13.41,13.41,0,0,0,2.566-15.328,1.2,1.2,0,0,0-1.922-.311h0A1.21,1.21,0,0,0,665.814,291.386Z" transform="translate(-600.954 -282.814)" fill="#c6c6c6"/>
      <path id="Path_706-31" data-name="Path 706" d="M565.667,255.583a11.008,11.008,0,0,1,12.549-2.1,1.21,1.21,0,0,0,1.383-.228h0a1.2,1.2,0,0,0-.311-1.922,13.41,13.41,0,0,0-15.328,2.57,1.2,1.2,0,0,0,.022,1.718A1.218,1.218,0,0,0,565.667,255.583Z" transform="translate(-518.447 -250)" fill="#c6c6c6"/>
      <path id="Path_707-31" data-name="Path 707" d="M356.111,611.511a11.008,11.008,0,0,1-12.549,2.1,1.21,1.21,0,0,0-1.383.228h0a1.2,1.2,0,0,0,.311,1.922,13.412,13.412,0,0,0,15.333-2.563,1.2,1.2,0,1,0-1.713-1.687Z" transform="translate(-334.995 -548.744)" fill="#c6c6c6"/>
      <path id="Path_708-31" data-name="Path 708" d="M305.675,525.974a11.007,11.007,0,0,1,2.1-12.547,1.222,1.222,0,0,0,.038-1.69,1.2,1.2,0,0,0-1.728-.022,13.406,13.406,0,0,0-2.556,15.326,1.2,1.2,0,0,0,1.922.311h0A1.21,1.21,0,0,0,305.675,525.974Z" transform="translate(-302.2 -466.199)" fill="#c6c6c6"/>
    </g>
    <g id="logo-32" data-name="logo" transform="translate(264.938 3339.445)" opacity="0.333">
      <path id="Path_700-32" data-name="Path 700" d="M398.313,309.542a5.546,5.546,0,0,0,4.112-5.333v-.014a5.515,5.515,0,0,0-5.515-5.515H396.9a5.544,5.544,0,0,0-5.332,4.112,15.47,15.47,0,0,1-29.823,0,5.544,5.544,0,0,0-5.332-4.112h-.014a5.515,5.515,0,0,0-5.515,5.515v.014a5.546,5.546,0,0,0,4.112,5.333,15.468,15.468,0,0,1,0,29.821,5.544,5.544,0,0,0-4.112,5.332v.012a5.513,5.513,0,0,0,5.515,5.513h.014a5.544,5.544,0,0,0,5.332-4.11,15.47,15.47,0,0,1,29.823,0,5.544,5.544,0,0,0,5.332,4.11h.014a5.515,5.515,0,0,0,5.515-5.513v-.016a5.544,5.544,0,0,0-4.112-5.332,15.468,15.468,0,0,1,0-29.821Z" transform="translate(-342.485 -290.279)" fill="#c6c6c6"/>
      <path id="Path_701-32" data-name="Path 701" d="M342.247,253.252h0a1.21,1.21,0,0,0,1.383.228,11.007,11.007,0,0,1,12.54,2.1,1.224,1.224,0,0,0,1.7.038,1.2,1.2,0,0,0,.021-1.716,13.413,13.413,0,0,0-15.323-2.573,1.2,1.2,0,0,0-.316,1.922Z" transform="translate(-335.053 -250)" fill="#c6c6c6"/>
      <path id="Path_702-32" data-name="Path 702" d="M303.532,290.332a13.411,13.411,0,0,0,2.525,15.3,1.23,1.23,0,0,0,1.612.15,1.2,1.2,0,0,0,.124-1.806,11.007,11.007,0,0,1-2.115-12.566,1.21,1.21,0,0,0-.226-1.383h0a1.2,1.2,0,0,0-1.92.308Z" transform="translate(-302.202 -282.828)" fill="#c6c6c6"/>
      <path id="Path_703-32" data-name="Path 703" d="M578.182,613.617a11.007,11.007,0,0,1-12.544-2.1,1.2,1.2,0,1,0-1.713,1.689,13.41,13.41,0,0,0,15.323,2.572,1.2,1.2,0,0,0,.311-1.922h0A1.21,1.21,0,0,0,578.182,613.617Z" transform="translate(-518.418 -548.749)" fill="#c6c6c6"/>
      <path id="Path_704-32" data-name="Path 704" d="M663.674,511.783a1.222,1.222,0,0,0,.038,1.69,11,11,0,0,1,2.1,12.559,1.21,1.21,0,0,0,.228,1.383h0a1.2,1.2,0,0,0,1.922-.311,13.413,13.413,0,0,0-2.566-15.333,1.2,1.2,0,0,0-1.72.012Z" transform="translate(-600.954 -466.246)" fill="#c6c6c6"/>
      <path id="Path_705-32" data-name="Path 705" d="M665.814,291.386a11.009,11.009,0,0,1-2.1,12.549,1.222,1.222,0,0,0-.038,1.69,1.2,1.2,0,0,0,1.718.022,13.41,13.41,0,0,0,2.566-15.328,1.2,1.2,0,0,0-1.922-.311h0A1.21,1.21,0,0,0,665.814,291.386Z" transform="translate(-600.954 -282.814)" fill="#c6c6c6"/>
      <path id="Path_706-32" data-name="Path 706" d="M565.667,255.583a11.008,11.008,0,0,1,12.549-2.1,1.21,1.21,0,0,0,1.383-.228h0a1.2,1.2,0,0,0-.311-1.922,13.41,13.41,0,0,0-15.328,2.57,1.2,1.2,0,0,0,.022,1.718A1.218,1.218,0,0,0,565.667,255.583Z" transform="translate(-518.447 -250)" fill="#c6c6c6"/>
      <path id="Path_707-32" data-name="Path 707" d="M356.111,611.511a11.008,11.008,0,0,1-12.549,2.1,1.21,1.21,0,0,0-1.383.228h0a1.2,1.2,0,0,0,.311,1.922,13.412,13.412,0,0,0,15.333-2.563,1.2,1.2,0,1,0-1.713-1.687Z" transform="translate(-334.995 -548.744)" fill="#c6c6c6"/>
      <path id="Path_708-32" data-name="Path 708" d="M305.675,525.974a11.007,11.007,0,0,1,2.1-12.547,1.222,1.222,0,0,0,.038-1.69,1.2,1.2,0,0,0-1.728-.022,13.406,13.406,0,0,0-2.556,15.326,1.2,1.2,0,0,0,1.922.311h0A1.21,1.21,0,0,0,305.675,525.974Z" transform="translate(-302.2 -466.199)" fill="#c6c6c6"/>
    </g>
  </g>
</svg>
