<svg xmlns="http://www.w3.org/2000/svg" width="38.931" height="38.045" viewBox="0 0 38.931 38.045">
  <g id="Star" transform="translate(0 0)">
    <g id="Group_2773" data-name="Group 2773" transform="translate(0 0)">
      <path id="Path_2553" data-name="Path 2553" d="M95.819,82.637A13.182,13.182,0,1,0,109,95.819,13.2,13.2,0,0,0,95.819,82.637Zm0,24.843A11.661,11.661,0,1,1,107.48,95.819,11.674,11.674,0,0,1,95.819,107.48Z" transform="translate(-76.354 -76.796)" fill="#fff"/>
      <path id="Path_2554" data-name="Path 2554" d="M37.892,27.462a4.968,4.968,0,0,0,1.039-2.614,4.968,4.968,0,0,0-1.039-2.614,5.046,5.046,0,0,1-.733-1.419,5.225,5.225,0,0,1,.04-1.661,4.823,4.823,0,0,0-.193-2.743,4.942,4.942,0,0,0-2.052-1.88,5.139,5.139,0,0,1-1.3-.981,5.156,5.156,0,0,1-.675-1.494A4.931,4.931,0,0,0,31.6,9.65a4.932,4.932,0,0,0-2.644-.8,5.208,5.208,0,0,1-1.619-.329A5.112,5.112,0,0,1,26.1,7.478,4.953,4.953,0,0,0,23.8,5.893a4.821,4.821,0,0,0-2.7.423,5.278,5.278,0,0,1-1.634.412,5.276,5.276,0,0,1-1.634-.412,4.821,4.821,0,0,0-2.7-.423,4.952,4.952,0,0,0-2.307,1.586,5.112,5.112,0,0,1-1.236,1.04,5.212,5.212,0,0,1-1.619.329,4.932,4.932,0,0,0-2.644.8,4.93,4.93,0,0,0-1.375,2.405,5.156,5.156,0,0,1-.675,1.494,5.142,5.142,0,0,1-1.3.981,4.942,4.942,0,0,0-2.052,1.88,4.823,4.823,0,0,0-.193,2.743,5.226,5.226,0,0,1,.04,1.661,5.046,5.046,0,0,1-.733,1.419A4.968,4.968,0,0,0,0,24.848a4.968,4.968,0,0,0,1.039,2.614,5.048,5.048,0,0,1,.733,1.419,5.226,5.226,0,0,1-.04,1.661,4.823,4.823,0,0,0,.193,2.743,4.941,4.941,0,0,0,2.052,1.88,5.141,5.141,0,0,1,1.3.981,5.156,5.156,0,0,1,.675,1.494,4.93,4.93,0,0,0,1.375,2.405,4.932,4.932,0,0,0,2.644.8,5.208,5.208,0,0,1,1.619.329,5.112,5.112,0,0,1,1.236,1.04A4.953,4.953,0,0,0,15.134,43.8a4.819,4.819,0,0,0,2.7-.423,5.277,5.277,0,0,1,1.634-.412,5.276,5.276,0,0,1,1.634.412,6.273,6.273,0,0,0,2.079.491A2.783,2.783,0,0,0,23.8,43.8,4.952,4.952,0,0,0,26.1,42.217a5.11,5.11,0,0,1,1.236-1.04,5.208,5.208,0,0,1,1.619-.329,4.932,4.932,0,0,0,2.644-.8,4.931,4.931,0,0,0,1.375-2.405,5.156,5.156,0,0,1,.675-1.494,5.141,5.141,0,0,1,1.3-.981,4.942,4.942,0,0,0,2.052-1.88,4.823,4.823,0,0,0,.193-2.743,5.226,5.226,0,0,1-.04-1.661,5.044,5.044,0,0,1,.733-1.419Zm-1.279-.823a6.163,6.163,0,0,0-.936,1.9,6.363,6.363,0,0,0,.013,2.181,3.756,3.756,0,0,1-.052,1.9,3.79,3.79,0,0,1-1.478,1.245A6.268,6.268,0,0,0,32.464,35.2a6.284,6.284,0,0,0-.927,1.954,3.781,3.781,0,0,1-.883,1.706,3.787,3.787,0,0,1-1.854.479,6.342,6.342,0,0,0-2.12.471,6.233,6.233,0,0,0-1.661,1.345,3.794,3.794,0,0,1-1.558,1.168,3.763,3.763,0,0,1-1.847-.371,6.42,6.42,0,0,0-2.148-.5,6.42,6.42,0,0,0-2.148.5,3.761,3.761,0,0,1-1.847.371,3.794,3.794,0,0,1-1.558-1.168,6.233,6.233,0,0,0-1.661-1.345,6.344,6.344,0,0,0-2.12-.471,3.787,3.787,0,0,1-1.854-.479,3.781,3.781,0,0,1-.883-1.706A6.287,6.287,0,0,0,6.466,35.2a6.268,6.268,0,0,0-1.695-1.328,3.789,3.789,0,0,1-1.478-1.245,3.756,3.756,0,0,1-.052-1.9,6.363,6.363,0,0,0,.013-2.181,6.163,6.163,0,0,0-.936-1.9,3.8,3.8,0,0,1-.8-1.791,3.8,3.8,0,0,1,.8-1.791,6.162,6.162,0,0,0,.936-1.9,6.363,6.363,0,0,0-.013-2.181,3.756,3.756,0,0,1,.052-1.9,3.79,3.79,0,0,1,1.478-1.245A6.268,6.268,0,0,0,6.467,14.5a6.286,6.286,0,0,0,.927-1.954,3.782,3.782,0,0,1,.883-1.706,3.787,3.787,0,0,1,1.855-.479,6.344,6.344,0,0,0,2.12-.471,6.233,6.233,0,0,0,1.661-1.345,3.794,3.794,0,0,1,1.558-1.168,3.762,3.762,0,0,1,1.847.371,6.422,6.422,0,0,0,2.147.5,6.42,6.42,0,0,0,2.148-.5,3.763,3.763,0,0,1,1.847-.371,3.793,3.793,0,0,1,1.558,1.168A6.233,6.233,0,0,0,26.68,9.888a6.346,6.346,0,0,0,2.12.471,3.788,3.788,0,0,1,1.855.479,3.781,3.781,0,0,1,.883,1.706,6.287,6.287,0,0,0,.927,1.954,6.267,6.267,0,0,0,1.695,1.328,3.789,3.789,0,0,1,1.478,1.245,3.756,3.756,0,0,1,.052,1.9,6.363,6.363,0,0,0-.013,2.181,6.162,6.162,0,0,0,.936,1.9,3.8,3.8,0,0,1,.8,1.791,3.8,3.8,0,0,1-.8,1.791Z" transform="translate(0 -5.825)" fill="#fff"/>
    </g>
    <g id="Group_2774" data-name="Group 2774" transform="translate(12.433 12.334)">
      <path id="Path_2555" data-name="Path 2555" d="M170.544,179.868l-4.346,1.546.127-4.611-2.813-3.656,4.425-1.3,2.608-3.805,2.608,3.805,4.425,1.3-2.813,3.656.127,4.611Z" transform="translate(-163.511 -168.037)" fill="#00b1bf"/>
    </g>
  </g>
</svg>
