<svg xmlns="http://www.w3.org/2000/svg" width="36.287" height="39.43" viewBox="0 0 36.287 39.43">
  <g id="wallet" transform="translate(0 0)">
    <g id="Group_2740" data-name="Group 2740" transform="translate(13.011 6.351)">
      <path id="Path_2524" data-name="Path 2524" d="M202.19,91.171l2.3-2.3a1.919,1.919,0,0,1,0-2.715l-3.7-3.7a1.923,1.923,0,0,1-2.717,0l-8.715,8.708H202.19Z" transform="translate(-189.357 -82.463)" fill="#00b1bf"/>
    </g>
    <g id="Group_2742" data-name="Group 2742" transform="translate(0 0)">
      <g id="Group_2741" data-name="Group 2741">
        <path id="Path_2525" data-name="Path 2525" d="M53.614,30.569v6.123a1.2,1.2,0,0,1-1.2,1.2h-25.7V15.828h25.7a1.2,1.2,0,0,1,1.2,1.2v6.123h1.54V17.025a2.742,2.742,0,0,0-2.214-2.687l1.28-1.279a2.34,2.34,0,0,0,0-3.311L45.149.684a2.345,2.345,0,0,0-3.311,0l-13.615,13.6H23.147a2.741,2.741,0,0,0-2.739,2.737V36.693a2.741,2.741,0,0,0,2.739,2.737H52.416a2.741,2.741,0,0,0,2.739-2.737V30.569h-1.54ZM42.926,1.773a.8.8,0,0,1,1.134,0l9.072,9.065a.8.8,0,0,1,0,1.131l-2.32,2.319H30.4ZM25.172,37.889H23.147a1.2,1.2,0,0,1-1.2-1.2V17.025a1.2,1.2,0,0,1,1.2-1.2h2.025Z" transform="translate(-20.408 0.001)" fill="#fff"/>
      </g>
    </g>
    <path id="Path_2526" data-name="Path 2526" d="M330.992,299.542h-8.919a4.48,4.48,0,0,1,0-8.961h8.919Z" transform="translate(-294.706 -268.202)" fill="#00b1bf"/>
    <g id="Group_2743" data-name="Group 2743" transform="translate(25.322 24.3)">
      <path id="Path_2527" data-name="Path 2527" d="M351.762,320.65a2.559,2.559,0,1,1,2.56-2.559A2.563,2.563,0,0,1,351.762,320.65Zm0-3.578a1.019,1.019,0,1,0,1.02,1.019A1.021,1.021,0,0,0,351.762,317.072Z" transform="translate(-349.202 -315.532)" fill="#18496e"/>
    </g>
  </g>
</svg>
